# https://github.com/mikedh/trimesh
v 0.11389501 -0.00663982 -0.08004790
v 0.11417788 -0.00507418 -0.08086633
v 0.09968108 -0.00462289 -0.10373503
v 0.10763117 -0.03373970 -0.08128817
v 0.11694889 -0.00517480 -0.10253065
v 0.10202391 -0.04729099 -0.08090524
v 0.10663476 -0.04420167 -0.10453858
v 0.10357329 -0.04428529 -0.08140933
v 0.09829185 -0.06040831 -0.10407258
v 0.09934592 -0.05884982 -0.10473299
v 0.09794527 -0.05644255 -0.08881405
v 0.09770848 -0.06008605 -0.10031707
f 5 3 2
f 2 1 5
f 3 1 2
f 12 3 9
f 3 10 9
f 7 3 5
f 7 10 3
f 5 1 4
f 4 7 5
f 10 7 6
f 6 1 3
f 6 4 1
f 7 4 8
f 8 6 7
f 4 6 8
f 11 9 10
f 10 6 11
f 12 9 11
f 11 3 12
f 11 6 3

