# https://github.com/mikedh/trimesh
v 0.00114239 0.08424792 -0.25412607
v 0.00350216 0.08047574 -0.25940188
v -0.05529252 0.08897795 -0.25909482
v -0.06652821 0.07723275 -0.26601470
v 0.00143154 0.07401202 -0.26477084
v -0.06597395 0.09150730 -0.25421886
v -0.02905118 0.08903092 -0.25652883
v -0.06618280 0.07431793 -0.26642680
v -0.02873872 0.08036306 -0.26513220
v -0.06606535 0.08610172 -0.26195755
v 0.00042568 0.08155842 -0.25928742
v -0.02921635 0.09028991 -0.25338700
v -0.04381582 0.08591423 -0.26213446
v -0.01001109 0.07374578 -0.26600155
v -0.06237700 0.08925782 -0.25878871
v -0.06620436 0.09032670 -0.25680404
v -0.06242921 0.08064162 -0.26531453
v -0.01817676 0.08524536 -0.25947023
v 0.00071907 0.07867625 -0.26211490
v -0.01035040 0.07623352 -0.26542526
v -0.01426959 0.08249637 -0.26191139
f 8 6 4
f 6 8 1
f 1 5 2
f 8 5 1
f 14 8 4
f 14 5 8
f 2 5 19
f 4 10 17
f 17 10 13
f 20 19 5
f 20 21 19
f 5 14 20
f 6 1 12
f 12 7 6
f 1 7 12
f 18 21 13
f 13 7 18
f 18 7 1
f 16 15 10
f 4 6 16
f 16 10 4
f 3 7 13
f 13 10 3
f 10 15 3
f 15 16 3
f 6 7 3
f 3 16 6
f 13 21 9
f 21 20 9
f 9 17 13
f 9 20 14
f 9 14 4
f 4 17 9
f 21 18 11
f 2 19 11
f 19 21 11
f 11 1 2
f 11 18 1

