# https://github.com/mikedh/trimesh
v 0.00495782 0.03807954 0.21587014
v 0.00537777 0.00669351 0.21689623
v 0.00537777 0.00669351 0.17540277
v -0.02609699 0.05114361 0.17730196
v -0.05036969 0.00664725 0.21078314
v 0.00524511 0.05797954 0.17645614
v -0.03281148 0.00670774 0.21703292
v -0.02603758 0.05170078 0.20702101
v -0.05197530 0.00672833 0.17483174
v 0.00546598 0.05667300 0.20957950
v -0.00551719 0.05916711 0.19084663
v -0.02245168 0.05160958 0.20926906
v -0.04346648 0.03744354 0.20455681
v -0.01614566 0.05564738 0.17736363
v 0.00517440 0.05923120 0.20672679
v -0.00906394 0.05636325 0.20887423
v -0.04714844 0.02722047 0.20928547
v -0.03300289 0.04789368 0.20458399
v -0.04679080 0.03083640 0.17761239
v -0.00203253 0.05919804 0.18707135
v -0.01916269 0.05490165 0.18676498
v -0.00156600 0.05863128 0.20752240
v -0.01905410 0.05481431 0.20738277
v -0.03366840 0.04524232 0.20856559
v -0.04726973 0.03045022 0.20731379
v -0.03617123 0.04415669 0.17946097
v 0.00477767 0.05894700 0.18709844
v -0.00519458 0.05928647 0.20452438
v -0.04069261 0.03825331 0.20858194
v -0.03643578 0.04461354 0.20668131
v -0.03284671 0.04754707 0.18739840
v -0.04302399 0.03737729 0.18713981
v -0.03973305 0.04102054 0.20697958
f 3 5 9
f 6 3 9
f 10 3 6
f 2 3 10
f 7 5 2
f 5 3 2
f 9 5 25
f 1 2 10
f 7 2 1
f 17 5 7
f 17 25 5
f 10 6 15
f 25 17 29
f 29 17 7
f 18 31 26
f 27 15 6
f 22 15 28
f 10 15 22
f 4 6 9
f 4 14 6
f 4 26 31
f 4 31 18
f 21 23 28
f 14 4 21
f 33 13 25
f 25 29 33
f 7 1 12
f 18 26 30
f 30 26 13
f 13 33 30
f 25 13 19
f 9 25 19
f 19 4 9
f 26 4 19
f 11 21 28
f 14 21 11
f 28 23 16
f 16 22 28
f 23 12 16
f 10 22 16
f 16 1 10
f 16 12 1
f 24 29 7
f 7 12 24
f 24 33 29
f 24 30 33
f 13 26 32
f 32 19 13
f 26 19 32
f 28 15 20
f 20 11 28
f 15 27 20
f 20 27 6
f 6 14 20
f 14 11 20
f 8 12 23
f 8 24 12
f 23 21 8
f 18 30 8
f 30 24 8
f 8 4 18
f 8 21 4

