# https://github.com/mikedh/trimesh
v 0.05760581 0.05474358 0.10382240
v 0.06458101 0.05039978 0.10300867
v 0.05703471 0.05359741 0.08500152
v 0.00985107 0.07539524 0.08420633
v 0.00537777 0.04064271 0.10373225
v 0.03931827 0.06325793 0.08487280
v 0.00973882 0.07680735 0.10289302
v 0.06401960 0.04927153 0.08452972
v 0.03986271 0.06432464 0.10365101
v 0.00537777 0.04064271 0.08487159
f 8 2 5
f 5 2 1
f 10 8 5
f 4 8 10
f 5 7 10
f 7 4 10
f 9 7 5
f 5 1 9
f 6 9 1
f 6 8 4
f 6 4 7
f 7 9 6
f 8 6 3
f 3 6 1
f 2 8 3
f 3 1 2

