# https://github.com/mikedh/trimesh
v 0.09773584 -0.00075213 0.13182447
v 0.10757955 -0.02052258 0.11818578
v 0.10903718 -0.00073198 0.11909014
v 0.05818763 -0.00085075 0.11504865
v 0.05818763 -0.01971142 0.13390932
v 0.08459255 -0.01971142 0.11504865
v 0.10134628 -0.00090368 0.12821945
v 0.09654739 -0.01909528 0.13078161
v 0.05818763 -0.00085075 0.13390932
v 0.05818763 -0.01971142 0.11504865
v 0.10031539 -0.01909799 0.12700559
f 4 3 6
f 3 2 6
f 8 5 2
f 2 5 10
f 10 6 2
f 4 6 10
f 11 8 2
f 8 11 7
f 7 2 3
f 7 11 2
f 1 9 5
f 5 8 1
f 8 7 1
f 1 7 3
f 4 9 1
f 1 3 4
f 5 9 10
f 10 9 4

