# https://github.com/mikedh/trimesh
v 0.00681645 -0.05127742 0.17457150
v 0.00519097 -0.05517266 0.17190912
v 0.00537777 -0.03857208 0.14522571
v -0.03988782 -0.03857208 0.14522571
v -0.03803357 -0.03659775 0.17729394
v -0.04236145 -0.06097780 0.14850906
v 0.00537777 -0.05743274 0.14522571
v -0.01276549 -0.05420320 0.17129967
v -0.00593863 -0.05743274 0.14522571
v -0.02308693 -0.05376534 0.16813862
v -0.02329851 -0.05042957 0.17109367
v -0.03713218 -0.05354153 0.16010657
f 3 5 1
f 6 5 4
f 5 3 4
f 1 5 8
f 7 3 1
f 6 8 10
f 1 8 2
f 2 7 1
f 2 8 6
f 6 7 2
f 6 4 9
f 9 7 6
f 12 5 6
f 6 10 12
f 12 10 5
f 11 8 5
f 5 10 11
f 11 10 8
f 3 7 9
f 9 4 3

