# https://github.com/mikedh/trimesh
v 0.12280076 -0.04484598 -0.16103675
v 0.12156913 -0.04797930 -0.16114004
v 0.12300968 -0.04485482 -0.24955882
v 0.07301888 -0.06552252 -0.26563796
v 0.07327616 -0.04611634 -0.16031702
v 0.10069388 -0.08702483 -0.24576306
v 0.12152939 -0.05537761 -0.18701041
v 0.10280524 -0.08323896 -0.16049611
v 0.11929145 -0.04475559 -0.25522483
v 0.12133194 -0.05145438 -0.16852423
v 0.11020359 -0.07764718 -0.23882704
v 0.07330165 -0.09083290 -0.18675838
v 0.07427142 -0.04750174 -0.26096028
v 0.09697921 -0.07785736 -0.26150447
v 0.10999901 -0.07761191 -0.17612759
v 0.12147830 -0.05522428 -0.23548704
v 0.07327616 -0.06874914 -0.16031702
v 0.07311701 -0.09027925 -0.25456005
v 0.09195922 -0.09010900 -0.17545438
v 0.10267720 -0.04604429 -0.26198096
v 0.10662722 -0.07383463 -0.25534067
v 0.10714631 -0.08400674 -0.23155562
v 0.11003853 -0.07379534 -0.16510119
v 0.12144519 -0.05175255 -0.24559312
v 0.07240929 -0.09163238 -0.21260287
v 0.09367686 -0.08719272 -0.25549308
v 0.07327394 -0.07914104 -0.26565959
v 0.11299966 -0.04533857 -0.25927955
v 0.10732242 -0.06744422 -0.25784789
v 0.11753923 -0.05556913 -0.25155476
v 0.10340967 -0.08403059 -0.24875109
v 0.10678356 -0.08406725 -0.18347472
v 0.11775162 -0.06282328 -0.23919367
v 0.11366453 -0.06637901 -0.16503710
v 0.10700519 -0.07794691 -0.16116840
v 0.08432555 -0.09117251 -0.19438983
v 0.08382242 -0.08471780 -0.26211755
v 0.08419550 -0.07601869 -0.26554883
v 0.09948392 -0.08075396 -0.25826332
v 0.11027026 -0.06687081 -0.25484423
v 0.10092549 -0.07124941 -0.26137913
v 0.11842996 -0.04818750 -0.25457256
v 0.11729026 -0.05879102 -0.24890565
v 0.09691043 -0.08690791 -0.25271421
v 0.10676738 -0.08093642 -0.24588321
v 0.10130157 -0.08735871 -0.17575230
v 0.10657526 -0.08123167 -0.16875424
v 0.07328213 -0.09136278 -0.19448312
v 0.08804728 -0.09110466 -0.20196525
v 0.08412738 -0.08733002 -0.25936128
v 0.08047300 -0.07855992 -0.26552868
v 0.08436593 -0.06925692 -0.26538616
v 0.10646439 -0.07737720 -0.25243376
v 0.09415102 -0.08121333 -0.26127002
v 0.11130029 -0.05606208 -0.25804548
v 0.12181855 -0.04802175 -0.24930221
v 0.09978370 -0.08385797 -0.25475718
v 0.10996759 -0.07376985 -0.24905265
v 0.10339564 -0.08389998 -0.16501297
v 0.10177930 -0.08519561 -0.16455001
v 0.10436432 -0.08172645 -0.16110452
v 0.08801973 -0.09096257 -0.20517540
v 0.08748878 -0.08447093 -0.26156076
v 0.08715153 -0.08718881 -0.25855919
f 25 5 4
f 17 5 25
f 13 4 5
f 12 17 25
f 3 1 7
f 25 4 18
f 18 4 27
f 48 12 25
f 10 7 1
f 20 52 4
f 4 13 20
f 3 42 9
f 9 1 3
f 5 1 9
f 9 13 5
f 9 20 13
f 28 20 9
f 17 12 8
f 5 17 8
f 8 1 5
f 22 46 6
f 36 48 25
f 30 42 3
f 52 20 38
f 27 4 38
f 4 52 38
f 29 9 42
f 19 8 12
f 12 48 19
f 48 36 19
f 3 7 16
f 16 24 3
f 25 18 49
f 49 36 25
f 49 19 36
f 6 46 49
f 46 19 49
f 2 10 1
f 2 34 10
f 35 34 2
f 2 8 35
f 1 8 2
f 23 34 35
f 3 24 56
f 56 30 3
f 14 38 41
f 41 20 28
f 41 38 20
f 42 30 40
f 40 29 42
f 37 18 27
f 54 38 14
f 35 8 61
f 8 59 61
f 46 22 32
f 32 22 7
f 60 19 46
f 8 19 60
f 60 59 8
f 46 32 60
f 60 32 59
f 62 18 6
f 6 49 62
f 62 49 18
f 43 58 30
f 43 56 24
f 30 56 43
f 24 16 33
f 33 43 24
f 58 43 33
f 7 22 33
f 33 16 7
f 31 22 6
f 9 29 55
f 29 41 55
f 28 9 55
f 55 41 28
f 30 58 53
f 63 37 51
f 38 54 51
f 51 54 63
f 27 38 51
f 51 37 27
f 63 54 26
f 26 64 63
f 6 18 26
f 18 64 26
f 50 37 63
f 63 64 50
f 18 37 50
f 50 64 18
f 15 23 35
f 15 32 7
f 34 23 15
f 7 10 15
f 10 34 15
f 47 61 59
f 59 32 47
f 32 15 47
f 35 61 47
f 47 15 35
f 11 33 22
f 58 33 11
f 29 40 21
f 21 40 30
f 30 53 21
f 57 53 31
f 58 11 45
f 45 53 58
f 31 53 45
f 22 31 45
f 45 11 22
f 29 21 39
f 14 41 39
f 39 41 29
f 39 54 14
f 39 21 53
f 53 57 39
f 39 26 54
f 39 57 26
f 6 26 44
f 26 57 44
f 44 31 6
f 44 57 31

