# https://github.com/mikedh/trimesh
v 0.05753713 -0.09097194 -0.19675358
v 0.05842164 -0.09123048 -0.19850054
v 0.05818445 -0.07993517 -0.26558398
v 0.02425454 -0.07976257 -0.26522045
v 0.02938094 -0.09075336 -0.25034605
v 0.03813847 -0.08909572 -0.19686044
v 0.05835729 -0.09091272 -0.25634252
v 0.02255600 -0.08869457 -0.21218857
v 0.03242464 -0.09089308 -0.21729293
v 0.02859460 -0.08716871 -0.25907348
v 0.02506646 -0.08787735 -0.25705293
v 0.04722176 -0.09084067 -0.20230918
v 0.02459854 -0.08919563 -0.21337924
v 0.05817176 -0.08567949 -0.26273071
v 0.02475267 -0.08398409 -0.26214773
v 0.05472284 -0.09101219 -0.19852017
v 0.03957842 -0.08947139 -0.19828756
v 0.02894461 -0.09080174 -0.22445492
v 0.05496480 -0.09028386 -0.25697411
f 2 3 1
f 7 3 2
f 5 7 2
f 2 1 16
f 6 1 3
f 3 4 6
f 6 16 1
f 17 16 6
f 6 4 8
f 13 6 8
f 9 5 2
f 17 6 9
f 6 13 9
f 3 7 14
f 14 4 3
f 2 16 12
f 12 9 2
f 12 16 17
f 17 9 12
f 5 9 18
f 18 9 13
f 8 5 18
f 18 13 8
f 11 5 8
f 8 4 11
f 7 5 11
f 11 10 7
f 19 14 7
f 7 10 19
f 19 10 14
f 15 11 4
f 10 11 15
f 4 14 15
f 14 10 15

