# https://github.com/mikedh/trimesh
v -0.11619246 0.00265582 0.10028299
v -0.10745880 -0.01181273 0.08864303
v -0.11816447 0.01257111 -0.03095471
v -0.11451053 -0.00702026 -0.04392546
v -0.12603198 0.00585199 0.03193685
v -0.10775742 -0.01589895 -0.02829583
v -0.11902181 0.00988491 0.09772213
v -0.12162664 0.00498654 0.08372466
v -0.12653601 0.01125742 -0.00118503
v -0.10592211 -0.01359970 0.03194092
v -0.11245915 -0.01102177 -0.04358916
v -0.11544747 -0.00824172 -0.01349804
v -0.12252544 0.00265686 0.05453902
v -0.11359696 -0.00361449 0.09949177
v -0.12687352 0.01186280 0.06928761
v -0.12200451 0.00794168 0.08723670
v -0.11574148 -0.00373864 -0.04299092
v -0.12588251 0.00544062 0.01330522
v -0.11193855 -0.01220387 -0.02847626
v -0.10949412 -0.00993258 0.08863937
v -0.11479925 -0.00195249 0.09879962
v -0.12560824 0.00858926 0.06911080
v -0.12026596 0.01087607 0.09510376
v -0.12302070 0.01035636 -0.01586829
v -0.12571555 0.00790101 -0.00108838
v -0.12194514 0.00110556 -0.00874489
v -0.11488732 -0.00887615 -0.01682474
v -0.11864498 0.00443436 0.09503649
v -0.12284059 0.01145804 0.08750702
v -0.11961663 0.00983317 -0.02745917
v -0.11691074 0.00359664 0.09913915
v -0.12016338 0.00705412 0.09244077
f 15 3 9
f 23 7 3
f 10 3 2
f 3 7 2
f 3 4 17
f 24 9 3
f 24 17 9
f 25 18 9
f 25 17 4
f 9 17 25
f 10 2 6
f 2 19 6
f 6 3 10
f 22 8 15
f 13 8 22
f 29 3 15
f 29 23 3
f 15 8 16
f 16 29 15
f 14 8 13
f 3 17 30
f 30 24 3
f 17 24 30
f 26 25 4
f 18 25 26
f 20 19 2
f 20 12 19
f 13 12 20
f 20 14 13
f 2 14 20
f 5 12 13
f 18 12 5
f 13 22 5
f 5 22 15
f 15 9 5
f 9 18 5
f 11 6 19
f 11 26 4
f 11 4 3
f 3 6 11
f 11 12 18
f 18 26 11
f 1 2 7
f 1 14 2
f 19 12 27
f 27 11 19
f 12 11 27
f 7 23 31
f 31 1 7
f 8 14 21
f 14 1 21
f 28 31 23
f 28 16 8
f 8 21 28
f 1 31 28
f 28 21 1
f 23 29 32
f 32 28 23
f 29 16 32
f 16 28 32

