# https://github.com/mikedh/trimesh
v 0.01984735 0.00675769 0.26747197
v 0.02990827 0.00749691 0.24815556
v -0.02616188 0.00774660 0.24890424
v -0.01348289 0.00669351 0.21689623
v 0.00845550 -0.03243021 0.21450242
v 0.03533796 0.00820673 0.21902192
v -0.02108058 0.00707377 0.26611684
v 0.01822101 -0.01681904 0.26101141
v -0.01280559 -0.02977255 0.21589430
v 0.01893734 -0.02867505 0.21448813
v -0.01106156 -0.01920500 0.26121774
v 0.02048226 -0.01905032 0.24570280
v -0.00550898 -0.03249048 0.21497395
v 0.00776844 -0.02277991 0.25745804
v 0.01442254 -0.01931834 0.26119036
v -0.01460763 -0.01677795 0.26138221
v 0.02280769 -0.02515840 0.21572216
v -0.00422505 -0.02781781 0.24062905
v 0.01133053 -0.02238671 0.25363537
v -0.01525385 -0.02003955 0.24634014
v -0.01408877 -0.01915366 0.25361206
v -0.00461887 -0.02261959 0.25741242
f 3 6 4
f 2 6 3
f 7 11 1
f 7 2 3
f 1 2 7
f 8 2 1
f 3 4 9
f 9 4 13
f 9 20 3
f 11 7 16
f 20 9 16
f 3 20 16
f 16 7 3
f 1 11 15
f 15 8 1
f 11 14 15
f 6 2 12
f 2 8 12
f 12 17 6
f 8 17 12
f 21 9 11
f 11 16 21
f 21 16 9
f 18 9 13
f 11 9 18
f 10 4 6
f 6 17 10
f 8 15 10
f 10 17 8
f 22 14 11
f 11 18 22
f 22 18 14
f 13 4 5
f 4 10 5
f 5 18 13
f 14 18 5
f 19 15 14
f 19 10 15
f 14 5 19
f 19 5 10

