# https://github.com/mikedh/trimesh
v 0.13046058 -0.00704521 -0.24663451
v 0.12993741 -0.02986927 -0.24615834
v 0.11419177 -0.00826623 -0.26558209
v 0.06622386 0.00000910 -0.26236512
v 0.11825494 0.00700433 -0.24785844
v 0.07811006 -0.04714181 -0.26180219
v 0.12916627 -0.01286040 -0.25603508
v 0.12593119 -0.04078140 -0.24618625
v 0.11303995 -0.00196780 -0.26527882
v 0.08527888 0.00020969 -0.26604034
v 0.12569728 -0.00378243 -0.25638117
v 0.06477804 -0.01003708 -0.26082757
v 0.12902954 -0.02582172 -0.25254955
v 0.12242850 -0.00615404 -0.26150510
v 0.11089475 -0.01169526 -0.26557758
v 0.12735513 -0.00339462 -0.24701031
v 0.12899921 -0.00724819 -0.25313822
v 0.11970115 -0.00238849 -0.26215204
v 0.12405516 -0.04519705 -0.24640464
v 0.06520776 -0.00230625 -0.26193950
v 0.12902775 -0.01865595 -0.25564458
v 0.12916892 -0.02947298 -0.24910840
v 0.12577401 -0.00686111 -0.25868919
v 0.10363534 -0.01160973 -0.26544567
v 0.07233542 -0.04477684 -0.26001235
v 0.10267720 -0.04604429 -0.26198096
v 0.12291252 -0.01871931 -0.26153691
v 0.12523033 -0.03669582 -0.25203605
v 0.07359634 -0.04656203 -0.26056366
v 0.12023493 -0.02606460 -0.26128205
v 0.11579204 -0.04490803 -0.25768252
v 0.12589061 -0.02220688 -0.25832568
v 0.12513973 -0.04039006 -0.24886003
v 0.12195151 -0.04427259 -0.25207530
v 0.12156689 -0.04010903 -0.25475394
f 12 19 5
f 25 19 12
f 4 5 10
f 4 10 6
f 16 5 1
f 6 10 24
f 24 15 6
f 10 15 24
f 10 5 9
f 6 19 29
f 19 25 29
f 29 25 12
f 2 7 1
f 6 15 26
f 26 19 6
f 26 31 19
f 19 31 34
f 3 26 15
f 3 15 10
f 10 9 3
f 20 4 6
f 6 29 20
f 20 29 12
f 12 5 20
f 5 4 20
f 14 7 27
f 27 3 14
f 14 3 9
f 13 2 22
f 31 26 30
f 27 32 30
f 30 32 31
f 30 3 27
f 26 3 30
f 13 32 21
f 21 2 13
f 7 2 21
f 27 7 21
f 21 32 27
f 31 32 35
f 35 34 31
f 18 9 5
f 18 14 9
f 7 14 23
f 14 18 23
f 8 22 2
f 8 5 19
f 1 5 8
f 8 2 1
f 13 22 28
f 34 35 28
f 28 32 13
f 28 35 32
f 1 7 17
f 7 23 17
f 11 18 5
f 11 23 18
f 11 17 23
f 5 16 11
f 11 16 1
f 1 17 11
f 22 8 33
f 33 28 22
f 33 8 19
f 19 34 33
f 34 28 33

