# https://github.com/mikedh/trimesh
v 0.00537777 0.01046564 0.11127652
v 0.00543064 -0.07610416 0.11128814
v 0.00581524 -0.07470110 0.00184073
v -0.05874848 0.01046564 0.00188468
v -0.06644605 -0.04283410 0.10995221
v 0.00537777 0.01046564 0.00188468
v -0.05620254 -0.04941263 0.11170838
v -0.05874848 0.01046564 0.11127652
v -0.05659033 -0.04636023 0.00182187
v -0.01923774 -0.06805866 0.11137110
v -0.00116559 -0.07275243 0.00181069
v -0.00829883 -0.07194332 0.11138462
v -0.02306561 -0.06468300 0.00183088
v -0.04498197 -0.05333109 0.00185758
f 3 1 2
f 5 4 9
f 8 4 5
f 6 1 3
f 6 9 4
f 12 2 1
f 5 9 7
f 7 8 5
f 10 12 7
f 1 8 7
f 7 12 1
f 10 7 13
f 11 6 3
f 9 6 11
f 11 13 9
f 3 2 11
f 2 12 11
f 11 12 10
f 10 13 11
f 14 7 9
f 9 13 14
f 14 13 7
f 4 8 6
f 6 8 1

