# https://github.com/mikedh/trimesh
v -0.04665357 -0.05923674 -0.17473431
v -0.04216296 -0.06183960 -0.17577603
v -0.04361771 -0.06111077 -0.26205564
v -0.04649233 -0.05997042 -0.26192608
v -0.05718957 -0.06042294 -0.25062071
v -0.06268468 -0.05016914 -0.17535914
v -0.05623466 -0.06037199 -0.21752832
v -0.04226474 -0.06606009 -0.25686642
v -0.06392181 -0.05545217 -0.25523280
v -0.05565953 -0.05777072 -0.19687521
v -0.04288841 -0.06345873 -0.26037440
v -0.04914828 -0.06423653 -0.22712082
v -0.06432523 -0.05277826 -0.19760987
v -0.06072052 -0.05820985 -0.25380084
v -0.04514410 -0.06422320 -0.20243767
v -0.04490487 -0.06041645 -0.17610959
v -0.05707944 -0.05343504 -0.17492174
v -0.04949922 -0.06110229 -0.25956513
v -0.05984319 -0.05676581 -0.20618213
v -0.05336075 -0.06112138 -0.25636537
v -0.04884805 -0.06409531 -0.21740718
v -0.04217719 -0.06563051 -0.20209639
v -0.05048251 -0.05967820 -0.26052813
f 6 9 13
f 22 8 2
f 13 9 14
f 2 3 1
f 3 6 1
f 8 18 11
f 2 8 11
f 11 3 2
f 23 18 9
f 23 11 18
f 19 10 13
f 10 19 7
f 13 14 7
f 7 19 13
f 8 22 12
f 12 22 21
f 21 7 12
f 20 18 8
f 9 18 20
f 20 14 9
f 16 10 2
f 2 1 16
f 16 1 10
f 17 1 6
f 10 1 17
f 17 6 13
f 13 10 17
f 4 23 9
f 4 6 3
f 9 6 4
f 3 11 4
f 11 23 4
f 10 7 15
f 2 10 15
f 15 22 2
f 21 22 15
f 15 7 21
f 5 7 14
f 5 12 7
f 8 12 5
f 5 20 8
f 14 20 5

