# https://github.com/mikedh/trimesh
v 0.07530872 -0.09024803 -0.24722357
v 0.07327394 -0.07914104 -0.26565959
v 0.07233542 -0.04477684 -0.26001235
v 0.01665253 -0.05385979 -0.26535122
v 0.03982427 -0.09049709 -0.24761138
v 0.07301888 -0.06552252 -0.26563796
v 0.03937641 -0.07878286 -0.26605637
v 0.01669417 -0.04611634 -0.24707607
v 0.07399099 -0.05115873 -0.26197215
v 0.02430027 -0.06854001 -0.26769181
v 0.02423843 -0.06874914 -0.24707607
v 0.01640176 -0.04683385 -0.26288152
v 0.06932759 -0.06235936 -0.26523503
v 0.07359634 -0.04656203 -0.26056366
v 0.01669417 -0.05366061 -0.24707607
f 8 3 12
f 1 3 8
f 5 2 1
f 1 2 9
f 1 8 11
f 11 5 1
f 5 11 10
f 14 3 1
f 1 9 14
f 6 9 2
f 13 9 6
f 2 10 6
f 6 10 13
f 15 8 12
f 15 11 8
f 2 5 7
f 7 10 2
f 5 10 7
f 13 10 4
f 4 9 13
f 4 15 12
f 4 14 9
f 4 10 11
f 11 15 4
f 12 3 4
f 3 14 4

