# https://github.com/mikedh/trimesh
v 0.00322542 0.07536628 -0.09983801
v 0.00160564 0.01046564 -0.09996290
v 0.00160564 0.01046564 -0.13013996
v -0.06251908 0.08969160 -0.13014012
v -0.06248103 0.08927510 -0.09998283
v 0.00320708 0.07594595 -0.13001073
v -0.06252062 0.01046564 -0.09996290
v -0.01821265 0.08183112 -0.13028275
v -0.03689246 0.08571585 -0.09990743
v -0.06252062 0.01046564 -0.13013996
v -0.01032669 0.07993950 -0.13021885
v -0.03692273 0.08551601 -0.13015844
v -0.01026749 0.07969706 -0.09996287
v -0.01820835 0.08170599 -0.09999233
f 2 1 7
f 1 2 3
f 5 4 7
f 7 4 10
f 1 3 6
f 3 10 8
f 8 10 4
f 11 6 3
f 3 8 11
f 4 5 9
f 7 1 9
f 9 5 7
f 12 8 4
f 4 9 12
f 12 9 8
f 14 11 8
f 8 9 14
f 6 11 13
f 11 14 13
f 1 6 13
f 13 9 1
f 13 14 9
f 10 3 2
f 10 2 7

