# https://github.com/mikedh/trimesh
v 0.00160564 0.00669351 -0.23198754
v 0.00160564 -0.01216715 -0.23198754
v 0.00183801 0.00714247 -0.25996183
v -0.07011826 -0.01224628 -0.26567849
v -0.06252062 0.00669351 -0.23198754
v 0.00139958 -0.01260907 -0.25934485
v -0.06252062 -0.01216715 -0.23198754
v -0.07008951 0.00727417 -0.25988578
v -0.05150834 -0.01286926 -0.26221999
v -0.07088329 -0.00209720 -0.26229062
f 4 7 10
f 9 7 4
f 8 1 3
f 8 4 10
f 3 4 8
f 6 4 3
f 9 4 6
f 1 8 5
f 10 7 5
f 5 8 10
f 3 1 2
f 2 6 3
f 2 7 9
f 9 6 2
f 2 5 7
f 1 5 2

