# https://github.com/mikedh/trimesh
v -0.06242628 0.08902942 -0.04713198
v -0.06252062 0.01046564 -0.04715305
v -0.06252062 0.01046564 -0.09241864
v -0.08933971 0.06841764 -0.09301778
v -0.10002910 0.05185013 -0.04711290
v -0.06245994 0.08905770 -0.09243392
v -0.08490067 0.07544625 -0.04615754
v -0.09646981 0.01046564 -0.04715305
v -0.09219840 0.06431023 -0.09317010
v -0.07203882 0.08616008 -0.09273299
v -0.09688782 0.05752570 -0.04645346
v -0.09646981 0.01046564 -0.09241864
v -0.07840646 0.08267104 -0.04648204
v -0.07216535 0.08636475 -0.04679381
v -0.09973383 0.05168623 -0.09250200
v -0.09654950 0.05735968 -0.09295080
f 7 2 1
f 5 12 8
f 2 7 8
f 15 12 5
f 3 12 9
f 9 10 3
f 3 10 6
f 1 2 3
f 3 6 1
f 5 8 11
f 11 8 7
f 11 7 9
f 11 15 5
f 9 12 16
f 12 15 16
f 16 11 9
f 15 11 16
f 9 7 4
f 4 10 9
f 1 6 14
f 6 10 14
f 13 4 7
f 10 4 13
f 13 14 10
f 13 7 1
f 1 14 13
f 3 8 12
f 2 8 3

