# https://github.com/mikedh/trimesh
v -0.09269768 0.05195910 0.08487159
v -0.09269768 0.03309844 0.08487159
v -0.09269768 0.03309844 0.05846666
v -0.12301535 0.05044739 0.05799994
v -0.12145529 0.03367829 0.08577501
v -0.09269768 0.05195910 0.05846666
v -0.11650446 0.05066467 0.08379282
v -0.12799988 0.03543112 0.05972077
v -0.12550172 0.04403084 0.05835188
v -0.12288756 0.04308434 0.07259561
v -0.11946234 0.04331787 0.08344672
v -0.12208356 0.05000454 0.06512894
v -0.11833552 0.04992200 0.07955961
v -0.11846905 0.04647925 0.08303994
v -0.12176607 0.04645955 0.07230935
f 5 2 1
f 3 5 8
f 2 5 3
f 7 5 1
f 8 5 10
f 4 6 3
f 1 6 4
f 4 7 1
f 5 7 11
f 11 10 5
f 9 3 8
f 9 4 3
f 8 10 9
f 10 11 13
f 12 9 10
f 4 9 12
f 7 4 12
f 12 13 7
f 14 11 7
f 7 13 14
f 14 13 11
f 10 13 15
f 15 12 10
f 13 12 15
f 2 3 6
f 1 2 6

