# https://github.com/mikedh/trimesh
v -0.09269768 0.05195910 0.00188468
v -0.09269768 0.01046564 0.00188468
v -0.09269768 0.01046564 -0.04715305
v -0.10304855 0.04394054 -0.05455959
v -0.12620587 0.00864205 0.00067789
v -0.09796409 0.05506430 -0.04825149
v -0.11920769 0.05015937 0.00321180
v -0.11401101 0.01025921 -0.05456581
v -0.11352308 0.01238990 -0.05564871
v -0.11525116 0.00971874 -0.04657137
v -0.11069831 0.02421293 -0.05421484
v -0.12559423 0.01064404 -0.00541694
v -0.12304203 0.03205768 -0.00433384
v -0.10694185 0.03509291 -0.05423991
v -0.12146353 0.04386316 0.00236017
v -0.10383086 0.04247183 -0.05413313
f 6 7 1
f 2 7 5
f 1 7 2
f 7 6 4
f 3 2 5
f 9 4 3
f 3 4 6
f 3 6 1
f 1 2 3
f 5 13 12
f 12 13 9
f 9 13 11
f 9 3 8
f 5 12 8
f 8 12 9
f 15 11 13
f 5 7 15
f 15 13 5
f 10 3 5
f 5 8 10
f 10 8 3
f 11 15 14
f 14 4 9
f 9 11 14
f 14 15 7
f 7 4 16
f 16 14 7
f 4 14 16

