# https://github.com/mikedh/trimesh
v 0.00776525 0.07802949 0.11105367
v 0.00449964 0.07909001 0.11139482
v -0.02100392 0.08225940 0.02452502
v -0.02098205 0.08233501 -0.09996151
v 0.00084196 0.07622048 -0.10002178
v -0.00598496 0.08195466 0.11128322
v -0.00741628 0.07883831 -0.10003299
v 0.00697792 0.07462433 0.00189142
v 0.00322542 0.07536628 -0.09983801
v -0.01346808 0.08220582 0.08486622
v -0.00327655 0.08124885 0.11089127
v -0.01854061 0.08178063 -0.09988615
v 0.00409988 0.07746864 0.08508702
f 3 8 13
f 13 8 1
f 9 8 3
f 3 4 9
f 1 8 9
f 2 6 1
f 1 6 10
f 10 13 1
f 3 13 10
f 10 4 3
f 10 6 4
f 6 2 11
f 7 11 2
f 5 9 4
f 4 7 5
f 1 9 5
f 5 2 1
f 5 7 2
f 4 6 12
f 12 7 4
f 6 11 12
f 11 7 12

