# https://github.com/mikedh/trimesh
v 0.03627682 0.06474925 0.08476415
v 0.03555483 0.04064271 0.08487159
v 0.03178270 0.04064271 0.00188468
v 0.00912964 0.07370811 0.00231177
v 0.00537777 0.04064271 0.08487159
v 0.03226340 0.06427136 0.00185770
v 0.03701931 0.06274886 0.04707562
v 0.00985107 0.07539524 0.08420633
v 0.00537777 0.04064271 0.00188468
v 0.03555483 0.04064271 0.04715027
f 5 8 4
f 1 2 7
f 7 6 1
f 1 8 5
f 5 2 1
f 1 4 8
f 6 4 1
f 5 4 9
f 9 4 6
f 3 6 7
f 3 9 6
f 7 2 10
f 10 3 7
f 5 9 10
f 10 2 5
f 9 3 10

