# https://github.com/mikedh/trimesh
v -0.01725503 -0.03479995 -0.13013996
v -0.02135045 -0.06743930 -0.12962931
v -0.01725503 -0.03479995 -0.16031702
v -0.06861467 -0.04427430 -0.15918614
v -0.06758831 -0.04302132 -0.12977420
v -0.02229061 -0.06899239 -0.15880640
v -0.03828056 -0.06197515 -0.16068766
v -0.05303129 -0.05410349 -0.16067226
v -0.03542209 -0.06338131 -0.16046979
v -0.04188483 -0.05781116 -0.13035017
v -0.06351732 -0.04766591 -0.16013206
v -0.03593309 -0.06083434 -0.13015860
v -0.04920055 -0.05386258 -0.13039859
v -0.06252318 -0.04612060 -0.13013977
f 5 2 1
f 4 5 3
f 3 5 1
f 1 2 3
f 3 2 6
f 2 5 12
f 5 10 12
f 10 7 12
f 9 3 6
f 9 7 3
f 6 2 9
f 2 12 9
f 9 12 7
f 8 7 10
f 3 7 8
f 13 10 5
f 13 8 10
f 11 5 4
f 11 8 5
f 4 3 11
f 3 8 11
f 5 8 14
f 14 13 5
f 8 13 14

