# https://github.com/mikedh/trimesh
v 0.09796999 0.02071636 0.12544746
v 0.11783185 -0.00099064 0.10343718
v 0.12008885 0.00412814 0.06223519
v 0.09842304 0.02393002 0.06231060
v 0.09968108 -0.00085075 0.06223880
v 0.09761792 0.02406169 0.12171442
v 0.10151355 -0.00080472 0.12803295
v 0.11253083 0.01174288 0.06227660
v 0.11008135 0.01179164 0.10957815
v 0.11506355 -0.00155687 0.10964712
v 0.10062637 0.02216101 0.06230497
v 0.09917715 0.02246088 0.12077216
v 0.11568773 0.00517816 0.10290804
v 0.10294720 0.01288144 0.12349624
v 0.11350455 0.00473174 0.10928164
v 0.09933487 0.01952412 0.12416828
v 0.11113845 -0.00092799 0.11619267
v 0.10491997 -0.00083052 0.12427885
v 0.10987053 0.00533472 0.11607948
f 5 10 7
f 4 5 6
f 3 5 4
f 9 3 6
f 9 13 3
f 3 13 2
f 2 5 3
f 10 5 2
f 7 14 1
f 6 5 1
f 1 5 7
f 6 3 8
f 15 9 14
f 10 2 15
f 13 9 15
f 15 2 13
f 12 9 6
f 6 1 12
f 14 9 16
f 16 1 14
f 9 12 16
f 16 12 1
f 7 10 18
f 10 17 18
f 18 14 7
f 18 17 14
f 3 4 11
f 11 8 3
f 11 4 6
f 6 8 11
f 14 17 19
f 19 15 14
f 19 17 10
f 10 15 19

