# https://github.com/mikedh/trimesh
v -0.01305686 0.01743655 0.26752987
v -0.01240264 -0.02162446 0.24667753
v -0.01743258 0.03155705 0.21824629
v -0.02948376 0.02045900 0.21467277
v -0.02398596 -0.00339573 0.25736867
v -0.01280559 -0.02977255 0.21589430
v -0.01748790 0.01899566 0.26393899
v -0.01641352 -0.01500684 0.26191401
v -0.01600819 -0.02871701 0.21505178
v -0.01276550 0.02049178 0.26676363
v -0.02650707 0.02407617 0.21563082
v -0.01608297 0.01720923 0.26661039
v -0.02414141 0.00911590 0.25742144
v -0.01509834 -0.01733383 0.25773549
v -0.03351317 -0.00426716 0.21458590
v -0.01237604 -0.02742657 0.22355723
v -0.01439562 0.02679437 0.24737472
v -0.02043599 0.01917715 0.25367805
v -0.01455537 0.01911774 0.26645265
v -0.02036889 -0.01014701 0.26104198
v -0.02058893 0.01599275 0.26108647
v -0.02274378 -0.02500981 0.21407215
v -0.03318331 0.01018508 0.21504567
v -0.02778217 -0.00055963 0.24234482
v -0.01894408 0.02322897 0.24637031
v -0.03007252 -0.01467292 0.21439112
v -0.02392305 0.01243716 0.25369780
v -0.01799441 -0.01346111 0.26125550
v -0.02774325 0.00611969 0.24232505
v -0.02368818 -0.00666818 0.25362659
f 2 6 16
f 16 6 17
f 17 6 3
f 3 4 11
f 4 18 11
f 14 2 1
f 1 8 14
f 20 26 28
f 28 8 20
f 16 17 10
f 10 2 16
f 1 2 10
f 25 11 18
f 25 17 3
f 3 11 25
f 15 26 5
f 23 4 15
f 4 23 27
f 27 23 13
f 22 14 8
f 22 28 26
f 8 28 22
f 15 4 22
f 22 26 15
f 15 5 24
f 24 5 13
f 30 26 20
f 20 5 30
f 30 5 26
f 14 22 9
f 6 2 9
f 2 14 9
f 9 22 4
f 3 6 9
f 9 4 3
f 21 27 13
f 21 18 4
f 4 27 21
f 13 23 29
f 29 24 13
f 29 23 15
f 15 24 29
f 18 21 7
f 7 25 18
f 17 25 7
f 7 10 17
f 7 19 10
f 12 7 21
f 12 21 13
f 19 7 12
f 12 5 20
f 13 5 12
f 12 8 1
f 20 8 12
f 1 10 12
f 10 19 12

