# https://github.com/mikedh/trimesh
v 0.11708701 -0.00038029 0.10481786
v 0.12286720 -0.00212699 0.08781680
v 0.11321678 0.00961518 0.10326773
v 0.11469140 0.01037786 0.00187981
v 0.12503003 -0.00144649 0.00196056
v 0.11749465 0.00412270 0.09859174
v 0.11845481 -0.00170116 0.10225677
v 0.12159471 0.00076513 0.08782683
v 0.11767705 0.00101159 0.10213794
v 0.12045140 0.00470753 0.00213706
v 0.11422079 0.00817141 0.10248439
v 0.12345937 0.00102388 0.00204103
v 0.11665258 0.00850302 0.00179777
f 4 1 3
f 5 1 4
f 7 1 5
f 5 2 7
f 5 4 13
f 13 4 3
f 3 10 13
f 8 2 5
f 8 10 3
f 3 6 8
f 8 6 2
f 11 6 3
f 2 6 9
f 9 7 2
f 1 7 9
f 6 11 9
f 3 1 9
f 9 11 3
f 5 13 12
f 12 13 10
f 12 8 5
f 10 8 12

