# https://github.com/mikedh/trimesh
v -0.10308237 0.05519749 -0.11533443
v -0.10401407 0.05195910 -0.17540555
v -0.10781075 0.08332684 -0.19813334
v -0.10673395 0.07566672 -0.15784532
v -0.12275222 0.05190168 -0.18296153
v -0.10223403 0.08406476 -0.16462110
v -0.10785287 0.04652129 -0.11618514
v -0.11845047 0.06297505 -0.19805915
v -0.11086114 0.07595319 -0.17976190
v -0.10152876 0.06564575 -0.12742280
v -0.10456382 0.08679825 -0.19801577
v -0.10596255 0.04918246 -0.11452060
v -0.11179045 0.04659481 -0.12775577
v -0.11806334 0.05347768 -0.15769669
v -0.11845132 0.06123011 -0.18335793
v -0.11106576 0.07819137 -0.19796631
v -0.10715741 0.08297500 -0.18358702
v -0.10214346 0.08050083 -0.15340564
v -0.10660286 0.06798832 -0.14327429
v -0.11558853 0.06917168 -0.19817852
v -0.11419158 0.06469592 -0.16497129
v -0.11944722 0.05035373 -0.15736540
v -0.10705627 0.07945547 -0.16887460
v -0.10170745 0.07315862 -0.13862652
v -0.11412162 0.05332287 -0.14301956
v -0.10346667 0.07902065 -0.15408834
v -0.11458650 0.06857717 -0.17962385
v -0.11289970 0.04698505 -0.13107482
v -0.11816660 0.06109846 -0.17961206
v -0.10397144 0.08241038 -0.16507830
v -0.11041669 0.07201898 -0.16510768
v -0.10305064 0.07164933 -0.13961879
v -0.11498437 0.07042353 -0.19775123
f 8 2 5
f 11 2 8
f 1 2 10
f 10 2 6
f 6 2 11
f 7 2 12
f 2 1 12
f 12 25 7
f 23 26 30
f 23 30 17
f 17 6 11
f 17 30 6
f 3 17 11
f 16 17 3
f 6 30 18
f 18 30 26
f 22 29 5
f 22 21 29
f 14 21 22
f 25 14 22
f 9 17 16
f 16 33 9
f 23 17 9
f 16 3 20
f 20 33 16
f 11 8 20
f 20 3 11
f 20 8 5
f 24 1 10
f 24 32 1
f 10 6 24
f 6 18 24
f 26 32 24
f 24 18 26
f 4 14 25
f 4 21 14
f 4 26 23
f 7 25 28
f 25 22 28
f 28 22 5
f 27 9 33
f 29 21 27
f 21 9 27
f 19 4 25
f 1 32 19
f 19 32 26
f 26 4 19
f 19 12 1
f 25 12 19
f 31 4 23
f 21 4 31
f 23 9 31
f 31 9 21
f 13 2 7
f 7 28 13
f 5 2 13
f 13 28 5
f 29 27 15
f 15 27 33
f 5 29 15
f 15 20 5
f 33 20 15

