# https://github.com/mikedh/trimesh
v 0.11253083 0.01174288 0.06227660
v 0.12008885 0.00412814 0.06223519
v 0.12045140 0.00470753 0.00213706
v 0.10301787 0.02117497 -0.02832202
v 0.09590895 -0.00085075 0.06223880
v 0.10721257 0.01799345 -0.02829333
v 0.09606370 0.02575396 0.06222996
v 0.09590895 -0.00085075 0.00188468
v 0.10062637 0.02216101 0.06230497
v 0.10487578 0.01982297 -0.02821082
v 0.10538274 0.01943362 -0.02839803
v 0.09588667 0.02551897 0.00188231
v 0.10855301 0.01528534 0.06230146
f 8 5 12
f 3 2 8
f 8 2 5
f 12 5 7
f 5 9 7
f 13 9 5
f 5 2 13
f 1 2 3
f 1 13 2
f 3 8 6
f 8 11 6
f 6 1 3
f 13 1 6
f 9 13 6
f 6 7 9
f 6 11 7
f 12 7 4
f 4 8 12
f 4 11 8
f 7 11 10
f 10 4 7
f 11 4 10

