# https://github.com/mikedh/trimesh
v -0.06245994 0.08905770 -0.09243392
v -0.05875881 0.08952944 -0.10373678
v -0.07653701 0.08945354 -0.13063969
v -0.08391443 0.08682505 -0.13081130
v -0.08265308 0.07648265 -0.08902154
v -0.06525560 0.08850963 -0.09179882
v -0.06213486 0.08950290 -0.10392918
v -0.05881439 0.08918421 -0.13014186
v -0.07751636 0.08201943 -0.08865936
v -0.05901545 0.08954749 -0.10378028
v -0.08873265 0.08322366 -0.12838761
v -0.06099387 0.08948000 -0.13029352
v -0.08121442 0.07822616 -0.08867047
v -0.07566108 0.08364919 -0.08898418
v -0.07801479 0.08167318 -0.08911291
v -0.07203882 0.08616008 -0.09273299
f 8 5 11
f 2 5 8
f 11 5 13
f 4 8 11
f 15 9 11
f 11 13 15
f 15 13 9
f 6 4 16
f 3 4 6
f 6 16 14
f 14 16 4
f 11 9 14
f 14 4 11
f 8 4 12
f 4 3 12
f 2 8 12
f 1 3 6
f 1 5 2
f 1 13 5
f 9 13 1
f 1 14 9
f 6 14 1
f 3 1 7
f 3 7 10
f 2 12 10
f 10 12 3
f 10 1 2
f 10 7 1

