# https://github.com/mikedh/trimesh
v 0.02073058 0.00663282 0.26758563
v 0.01800412 -0.01365459 0.26592352
v 0.01822101 -0.01681904 0.26101141
v -0.01129710 0.02548572 0.26101050
v -0.02073248 -0.00339686 0.26594579
v 0.00526889 0.02875262 0.26199140
v -0.00495320 -0.01995280 0.26557719
v -0.01799441 -0.01346111 0.26125550
v -0.01135727 0.02246890 0.26593897
v 0.01447971 -0.01631863 0.26604476
v -0.01752822 -0.00961937 0.26588245
v -0.02058893 0.01599275 0.26108647
v -0.01106156 -0.01920500 0.26121774
v -0.01779422 0.01573962 0.26611372
v 0.00505151 0.02604115 0.26639919
v 0.00809934 -0.01983966 0.26553800
v 0.01755939 -0.01625004 0.26370131
v -0.02113046 -0.00636144 0.26390588
v -0.01983490 0.01555419 0.26393295
v -0.01140554 -0.01670706 0.26558285
v -0.00496768 0.02617812 0.26545221
v 0.01442254 -0.01931834 0.26119036
v 0.01437640 -0.01851610 0.26351030
v -0.01710700 -0.01340652 0.26354108
v -0.02170997 -0.00700577 0.26131619
v -0.01088103 0.02467298 0.26384604
v -0.02086163 0.00927492 0.26581451
v -0.01055468 -0.01859641 0.26360645
f 3 6 1
f 4 6 3
f 4 3 12
f 1 6 15
f 15 14 1
f 13 12 3
f 2 3 1
f 4 12 19
f 21 6 4
f 21 15 6
f 22 13 3
f 1 14 5
f 5 11 1
f 18 11 5
f 25 18 5
f 1 11 7
f 7 22 16
f 13 22 7
f 8 18 25
f 25 12 8
f 12 13 8
f 26 21 4
f 4 19 26
f 14 15 9
f 15 21 9
f 21 26 9
f 9 19 14
f 9 26 19
f 16 22 23
f 23 22 3
f 27 19 12
f 27 12 25
f 25 5 27
f 14 19 27
f 27 5 14
f 20 7 11
f 16 23 10
f 10 2 1
f 1 7 10
f 10 7 16
f 3 2 17
f 17 23 3
f 2 10 17
f 17 10 23
f 13 7 28
f 7 20 28
f 24 20 11
f 24 11 18
f 18 8 24
f 24 28 20
f 24 8 13
f 13 28 24

