# https://github.com/mikedh/trimesh
v 0.04593937 0.03237285 0.20961489
v 0.05786259 -0.00419227 0.20478002
v 0.05360467 0.02396158 0.20687725
v 0.05018062 0.02683559 0.17396595
v 0.04515640 -0.03341527 0.19065017
v 0.05417956 0.02060972 0.17717653
v 0.04887769 0.03206005 0.20745644
v 0.05496409 -0.00792636 0.20896184
v 0.04561076 -0.03010178 0.17629599
v 0.05801528 0.01001102 0.20454386
v 0.05167049 0.02444314 0.20876985
v 0.04661540 0.03294799 0.20907733
v 0.05373252 0.02350469 0.18330587
v 0.04630372 -0.03155012 0.20653067
v 0.04443338 -0.03297431 0.20776707
v 0.05144411 -0.02603264 0.17094187
v 0.05787256 -0.00064672 0.18715448
v 0.05771360 0.00612920 0.20739599
v 0.05497249 0.01334883 0.20914683
v 0.04751995 0.03124457 0.20920872
v 0.05216452 0.02460886 0.17636143
v 0.05336091 -0.01787413 0.20736950
v 0.04659658 -0.02332323 0.21053870
v 0.04626129 -0.03207211 0.19086943
v 0.05773219 0.00265529 0.18716387
v 0.05410097 -0.01458391 0.17681852
v 0.05777540 -0.00408494 0.19076127
v 0.05751332 -0.00023097 0.20730187
v 0.05084037 -0.02164466 0.20868286
v 0.05735588 0.00965304 0.19482074
f 19 23 8
f 29 23 15
f 8 23 29
f 15 9 5
f 5 9 16
f 12 7 4
f 4 6 16
f 16 9 4
f 30 6 10
f 10 25 30
f 30 25 6
f 16 6 26
f 18 19 8
f 3 18 10
f 19 18 3
f 23 19 1
f 15 23 1
f 1 9 15
f 12 4 1
f 1 4 9
f 14 29 15
f 15 5 14
f 13 4 7
f 7 3 13
f 10 6 13
f 13 3 10
f 10 18 2
f 19 3 11
f 11 1 19
f 11 3 7
f 24 5 16
f 16 14 24
f 24 14 5
f 6 4 21
f 21 13 6
f 4 13 21
f 27 2 16
f 28 18 8
f 8 2 28
f 28 2 18
f 16 2 22
f 22 14 16
f 29 14 22
f 8 29 22
f 22 2 8
f 12 1 20
f 1 11 20
f 20 7 12
f 20 11 7
f 6 25 17
f 17 26 6
f 17 25 10
f 16 26 17
f 17 27 16
f 10 2 17
f 2 27 17

