# https://github.com/mikedh/trimesh
v -0.06222706 -0.04562260 -0.11507241
v -0.06078748 -0.04699362 -0.12651495
v -0.06247090 -0.03823308 -0.26683351
v -0.07297814 -0.03744469 -0.26569483
v -0.08950654 -0.03897284 -0.22078868
v -0.07681420 -0.03729999 -0.13017994
v -0.06084432 -0.05828284 -0.22106776
v -0.06834520 -0.04204622 -0.11493050
v -0.09003715 -0.03645049 -0.25423227
v -0.06087917 -0.05477337 -0.25967022
v -0.06360398 -0.05673507 -0.22132834
v -0.08011149 -0.03699441 -0.26314228
v -0.09118440 -0.03726946 -0.22047013
v -0.06177907 -0.04488027 -0.26563267
v -0.06072052 -0.05820985 -0.25380084
v -0.07468756 -0.04920804 -0.21748142
v -0.07466784 -0.04584454 -0.25876151
v -0.08619512 -0.04168315 -0.24320495
v -0.06116333 -0.05130255 -0.26266265
v -0.08581823 -0.04180480 -0.22114327
v -0.07898920 -0.03921103 -0.26235512
v -0.08843724 -0.03863135 -0.25327800
v -0.06650615 -0.05288255 -0.25683693
v -0.06294560 -0.05692521 -0.25315728
v -0.06544024 -0.04469530 -0.26502272
v -0.06405005 -0.05014620 -0.26228459
v -0.06345469 -0.05342050 -0.25931103
v -0.07219564 -0.04013336 -0.26487636
v -0.07509514 -0.04277495 -0.26183817
f 6 8 3
f 6 9 13
f 3 8 1
f 1 2 3
f 8 11 1
f 20 18 11
f 2 1 7
f 7 1 11
f 15 2 7
f 7 11 15
f 13 9 22
f 22 18 13
f 9 6 12
f 16 11 8
f 8 20 16
f 16 20 11
f 8 6 5
f 5 20 8
f 5 6 13
f 13 18 5
f 18 20 5
f 18 22 24
f 15 11 24
f 11 18 24
f 15 24 23
f 23 24 22
f 10 2 15
f 10 19 2
f 26 19 10
f 4 6 3
f 4 12 6
f 17 23 22
f 14 4 3
f 3 2 14
f 2 19 14
f 12 4 28
f 21 22 9
f 21 17 22
f 9 12 21
f 21 28 26
f 12 28 21
f 23 17 27
f 15 23 27
f 27 10 15
f 26 10 27
f 4 14 25
f 25 28 4
f 25 14 19
f 25 19 26
f 26 28 25
f 29 21 26
f 17 21 29
f 26 27 29
f 29 27 17

