# https://github.com/mikedh/trimesh
v 0.09968108 -0.04611634 0.00188468
v 0.10789091 -0.07014258 -0.00158904
v 0.10306435 -0.04592997 -0.05844634
v 0.02801057 -0.04611634 -0.05846944
v 0.02508993 -0.07920753 0.00252817
v 0.02801057 -0.04611634 0.00188468
v 0.10864135 -0.04856571 -0.02625316
v 0.09331786 -0.06340418 -0.05826067
v 0.10007580 -0.05182826 -0.05818607
v 0.02801057 -0.06497701 -0.05846944
v 0.09601186 -0.05897760 -0.05817380
f 6 4 5
f 6 3 4
f 2 3 7
f 5 4 10
f 4 3 10
f 1 2 7
f 7 3 1
f 3 6 1
f 1 6 5
f 5 2 1
f 8 10 3
f 8 2 5
f 5 10 8
f 3 2 9
f 2 8 11
f 11 9 2
f 11 8 3
f 3 9 11

