# https://github.com/mikedh/trimesh
v 0.06734329 0.04866157 0.10397680
v 0.07256935 0.04513115 0.10335799
v 0.07077991 0.04243999 0.00193226
v 0.05008684 0.05476105 -0.01692742
v 0.05052632 0.05550563 0.04716739
v 0.05572397 0.05136066 -0.01775018
v 0.05411250 0.05517045 0.08490574
v 0.06666590 0.04734382 0.08135800
v 0.05668212 0.05093646 0.00106152
v 0.06297730 0.05152740 0.10404401
v 0.05730004 0.05038451 -0.01725490
v 0.05760581 0.05474358 0.10382240
v 0.05672520 0.05168520 0.04635959
f 9 5 4
f 8 3 2
f 2 7 8
f 11 10 3
f 11 9 4
f 3 9 11
f 2 3 1
f 3 10 1
f 12 7 2
f 2 1 12
f 12 1 10
f 4 5 12
f 5 7 12
f 13 9 3
f 5 9 13
f 3 8 13
f 13 7 5
f 13 8 7
f 6 11 4
f 10 11 6
f 4 12 6
f 6 12 10

