# https://github.com/mikedh/trimesh
v -0.07702606 -0.03771468 -0.14527815
v -0.07580168 -0.03966937 -0.16057935
v -0.07760915 -0.01971142 -0.16786129
v -0.08800883 -0.02255403 -0.26609413
v -0.09301550 -0.03423639 -0.20635335
v -0.07855909 -0.02442907 -0.26723471
v -0.07662654 -0.04470169 -0.19831367
v -0.09866929 -0.02320697 -0.14513045
v -0.07566139 -0.04345739 -0.18713904
v -0.08476107 -0.02307784 -0.26667814
v -0.08061021 -0.04280322 -0.25691339
v -0.08598374 -0.03154155 -0.14481181
v -0.09532614 -0.02234694 -0.26365608
v -0.08941569 -0.03815176 -0.21369217
v -0.08400744 -0.03337611 -0.26341476
v -0.09927540 -0.02372856 -0.16754879
v -0.08950654 -0.03897284 -0.22078868
v -0.08424162 -0.02632478 -0.26607657
v -0.08897238 -0.03469025 -0.25856577
v -0.09255314 -0.03090831 -0.25877523
v -0.08737043 -0.02573938 -0.26543693
v -0.08402780 -0.03712881 -0.26062599
v -0.09210316 -0.03556240 -0.22398015
v -0.08663054 -0.03228215 -0.26254703
v -0.09415833 -0.02494849 -0.26261664
f 6 3 9
f 11 17 19
f 9 3 2
f 2 1 9
f 3 1 2
f 8 13 16
f 3 13 8
f 19 17 20
f 16 13 20
f 7 6 9
f 7 11 6
f 17 11 7
f 9 1 7
f 6 11 15
f 5 8 16
f 17 8 5
f 1 8 14
f 14 8 17
f 14 7 1
f 17 7 14
f 12 1 3
f 3 8 12
f 12 8 1
f 6 15 18
f 13 15 24
f 22 11 19
f 22 15 11
f 22 24 15
f 23 20 17
f 17 5 23
f 16 20 23
f 23 5 16
f 4 13 3
f 21 15 13
f 21 18 15
f 13 4 21
f 21 4 18
f 25 20 13
f 13 24 25
f 24 22 25
f 19 20 25
f 25 22 19
f 6 18 10
f 18 4 10
f 3 6 10
f 10 4 3

