# https://github.com/mikedh/trimesh
v -0.03120445 -0.06308626 -0.12983571
v -0.02832398 -0.06444570 -0.13016856
v -0.02857142 -0.05366061 -0.19803835
v -0.04361557 -0.05355912 -0.26543615
v -0.03359819 -0.07171556 -0.25361251
v -0.03742574 -0.06009110 -0.13000627
v -0.03400770 -0.07165871 -0.22119663
v -0.02731529 -0.07307726 -0.25704373
v -0.04138083 -0.06775992 -0.21737773
v -0.02713124 -0.06548706 -0.14156918
v -0.04182168 -0.06481783 -0.25925558
v -0.02839307 -0.05338514 -0.26644526
v -0.04806267 -0.06196503 -0.19689779
v -0.02719721 -0.07288225 -0.20593224
v -0.03065317 -0.07196187 -0.25659306
v -0.02781839 -0.06684897 -0.26298711
v -0.04082299 -0.06773979 -0.23077905
v -0.03964906 -0.05293730 -0.26589141
v -0.04514425 -0.06011128 -0.17499205
v -0.03411188 -0.06849446 -0.25928359
v -0.04203503 -0.06177940 -0.26216645
v -0.03948825 -0.05651897 -0.26520196
v -0.03466680 -0.06555620 -0.26187823
v -0.02837961 -0.05679046 -0.26590986
f 8 12 10
f 10 12 3
f 3 4 6
f 14 8 10
f 14 7 8
f 9 6 13
f 12 8 16
f 13 6 19
f 19 4 13
f 6 4 19
f 10 3 2
f 2 14 10
f 7 14 2
f 18 3 12
f 4 3 18
f 8 7 5
f 7 9 5
f 20 16 8
f 21 4 22
f 22 16 21
f 4 18 22
f 1 3 6
f 1 2 3
f 6 9 1
f 1 9 7
f 7 2 1
f 21 20 11
f 13 4 11
f 11 4 21
f 21 16 23
f 23 20 21
f 16 20 23
f 24 18 12
f 24 22 18
f 12 16 24
f 16 22 24
f 17 5 9
f 17 11 5
f 17 9 13
f 13 11 17
f 15 20 8
f 15 11 20
f 8 5 15
f 5 11 15

