# https://github.com/mikedh/trimesh
v 0.02423843 -0.06874914 -0.23198754
v 0.02503414 -0.08930809 -0.23206236
v 0.02378536 -0.05528567 -0.26532745
v 0.01641319 -0.05500471 -0.26575772
v 0.01392170 -0.08590032 -0.23306446
v 0.02475267 -0.08398409 -0.26214773
v 0.02423843 -0.05366061 -0.24707607
v 0.01800197 -0.08686214 -0.23195667
v 0.02423369 -0.07559879 -0.26665068
v 0.01716992 -0.07836974 -0.26542793
v 0.02143848 -0.08701567 -0.25693782
v 0.01669417 -0.05366061 -0.24707607
v 0.02506646 -0.08787735 -0.25705293
v 0.01669417 -0.06874914 -0.23198754
v 0.02432647 -0.07840978 -0.26579426
v 0.01812299 -0.08685887 -0.25077404
v 0.01730470 -0.08454784 -0.26002006
v 0.02106700 -0.08369419 -0.26189028
f 13 7 2
f 1 2 7
f 5 4 10
f 12 4 5
f 7 4 12
f 3 7 13
f 3 4 7
f 5 2 8
f 2 1 8
f 5 10 17
f 14 12 5
f 5 8 14
f 14 8 1
f 9 10 4
f 4 3 9
f 5 17 16
f 16 2 5
f 13 2 16
f 10 9 15
f 6 3 13
f 6 9 3
f 6 15 9
f 10 15 6
f 11 17 13
f 13 16 11
f 11 16 17
f 18 17 10
f 10 6 18
f 13 17 18
f 18 6 13
f 7 12 14
f 14 1 7

