# https://github.com/mikedh/trimesh
v 0.05401469 0.06254415 -0.21322258
v 0.06390674 0.05800790 -0.23205521
v 0.03826291 0.06872287 -0.25711708
v 0.04021420 0.06515789 -0.26030827
v 0.05038041 0.05898721 -0.26151585
v 0.03903313 0.07019005 -0.21319524
v 0.06298183 0.05890796 -0.25062736
v 0.05601166 0.05940603 -0.25833826
v 0.04199026 0.06873134 -0.21257656
v 0.05700880 0.05741802 -0.25978163
v 0.04847845 0.06626004 -0.22705516
v 0.04627308 0.06191501 -0.26077279
v 0.04540223 0.06382069 -0.25928425
v 0.06002041 0.05897566 -0.25622215
v 0.06420590 0.05784242 -0.25070787
v 0.04820961 0.06611372 -0.21746005
v 0.06268520 0.05898191 -0.23211460
v 0.04840677 0.06243221 -0.25917988
v 0.05247767 0.06274353 -0.25582801
v 0.06096305 0.05781751 -0.25690158
v 0.05244557 0.06345310 -0.21359722
v 0.05550031 0.06229136 -0.21751286
v 0.04131671 0.06749475 -0.25650836
v 0.04504317 0.06728492 -0.21354829
v 0.05705663 0.06133675 -0.21714548
f 1 9 5
f 2 1 5
f 15 14 7
f 3 11 7
f 7 2 15
f 15 2 10
f 10 2 5
f 6 11 3
f 3 4 6
f 5 9 6
f 6 4 5
f 16 6 9
f 11 6 16
f 19 14 3
f 19 7 14
f 20 14 15
f 15 10 20
f 3 14 13
f 13 4 3
f 9 1 21
f 22 21 1
f 16 21 22
f 3 7 23
f 23 19 3
f 7 19 23
f 8 13 14
f 14 20 8
f 8 20 10
f 12 10 5
f 5 4 12
f 4 13 12
f 12 8 10
f 24 16 9
f 9 21 24
f 24 21 16
f 1 2 25
f 25 22 1
f 11 16 17
f 16 22 17
f 17 7 11
f 2 7 17
f 17 25 2
f 22 25 17
f 13 8 18
f 18 12 13
f 8 12 18

