# https://github.com/mikedh/trimesh
v -0.05874848 0.01046564 0.11127652
v -0.06226052 -0.04569502 0.11131146
v -0.06211227 -0.04374276 0.08827426
v -0.12126002 0.00883128 0.09046278
v -0.11302689 0.01043285 0.10998936
v -0.11311370 -0.00628222 0.08857937
v -0.05874848 0.01046564 0.08864372
v -0.06133056 -0.04428704 0.08877443
v -0.07879777 -0.03479564 0.11163635
v -0.10704002 -0.00968479 0.10965186
v -0.11833470 0.01058645 0.09964098
v -0.06554842 -0.04148040 0.08789685
v -0.06757373 -0.04229549 0.11170510
v -0.09759089 -0.02058052 0.11110167
v -0.11582570 0.00047923 0.09887212
v -0.09736272 -0.01966485 0.08884011
v -0.07101195 -0.03800164 0.08895402
v -0.06707090 -0.04164471 0.10035680
v -0.11056906 -0.00578132 0.10579491
v -0.11484338 0.00087793 0.10231810
v -0.09377395 -0.02348611 0.10407648
v -0.08220106 -0.03049430 0.08892211
v -0.11453155 0.00424813 0.10555960
v -0.09333905 -0.02287142 0.09272780
v -0.11553482 0.01042038 0.10550483
v -0.11061758 -0.00302433 0.10922978
f 4 7 6
f 6 7 12
f 1 2 8
f 8 7 1
f 1 7 11
f 11 5 1
f 11 25 5
f 11 7 4
f 12 7 3
f 7 8 3
f 3 8 2
f 13 2 1
f 1 9 13
f 1 5 14
f 14 9 1
f 16 6 12
f 18 13 9
f 12 3 18
f 18 3 2
f 2 13 18
f 22 16 12
f 9 14 21
f 21 14 6
f 6 16 21
f 4 6 15
f 6 19 15
f 6 14 10
f 10 19 6
f 10 14 5
f 17 18 9
f 9 22 17
f 12 18 17
f 17 22 12
f 16 22 24
f 24 21 16
f 24 22 9
f 9 21 24
f 4 15 20
f 20 15 19
f 23 11 4
f 4 20 23
f 25 11 23
f 5 25 23
f 26 10 5
f 5 23 26
f 19 10 26
f 26 20 19
f 26 23 20

