# https://github.com/mikedh/trimesh
v 0.10711282 -0.03853348 -0.05090804
v 0.10664712 -0.03966761 -0.05141162
v 0.10756940 -0.03727893 -0.09285090
v 0.10862142 -0.03406635 -0.09270944
v 0.09213682 -0.03102781 -0.05846944
v 0.10373878 -0.04625206 -0.05096392
v 0.10904449 -0.03046474 -0.05833642
v 0.09213682 -0.03102781 -0.08110224
v 0.10450976 -0.04475428 -0.05061567
v 0.10060022 -0.05070800 -0.05917954
v 0.10869310 -0.03032377 -0.08125266
v 0.10705417 -0.03850751 -0.09244022
v 0.10052063 -0.05025101 -0.08067697
f 5 7 11
f 1 7 5
f 5 9 1
f 5 10 6
f 6 9 5
f 10 13 6
f 5 11 8
f 8 10 5
f 8 13 10
f 4 11 7
f 7 1 4
f 4 1 3
f 3 8 4
f 4 8 11
f 3 1 2
f 2 1 9
f 9 6 12
f 3 2 12
f 12 2 9
f 12 6 13
f 12 8 3
f 13 8 12

