# https://github.com/mikedh/trimesh
v 0.06395619 0.05747513 -0.25392193
v 0.07304520 0.04935208 -0.25681531
v 0.03060512 0.06814793 -0.26155511
v 0.02423280 0.05571741 -0.26584138
v 0.03505894 0.04423563 -0.26669321
v 0.02450722 0.07544677 -0.25486085
v 0.05609459 0.05580456 -0.26159823
v 0.06802264 0.05388174 -0.25433150
v 0.03375369 0.07044155 -0.25814209
v 0.02346335 0.06910713 -0.26279995
v 0.06304013 0.05520972 -0.25844294
v 0.06889162 0.04352854 -0.26415837
v 0.03661272 0.07084225 -0.25424428
v 0.04127790 0.06315690 -0.26178174
v 0.02343241 0.07267061 -0.26008986
v 0.06714265 0.05209479 -0.25897485
v 0.03690628 0.07022193 -0.25594104
v 0.05796367 0.04382862 -0.26592146
v 0.05753344 0.04693077 -0.26537765
v 0.06749033 0.04887057 -0.26160399
v 0.03567752 0.04445918 -0.26672194
v 0.04665714 0.05128062 -0.26539424
v 0.03536938 0.05136752 -0.26593574
v 0.02488503 0.05731899 -0.26557064
f 2 12 20
f 12 7 20
f 10 14 19
f 19 7 12
f 19 14 7
f 5 8 6
f 2 8 5
f 5 12 2
f 11 20 7
f 3 10 15
f 3 14 10
f 2 20 16
f 20 11 16
f 7 14 9
f 9 11 7
f 9 3 15
f 14 3 9
f 15 6 9
f 18 19 12
f 18 5 21
f 12 5 18
f 10 19 22
f 22 24 10
f 19 18 22
f 15 10 4
f 10 24 4
f 4 6 15
f 4 5 6
f 21 5 4
f 24 22 4
f 1 8 2
f 2 16 1
f 1 16 11
f 23 18 21
f 21 4 23
f 23 22 18
f 23 4 22
f 11 9 17
f 17 1 11
f 17 9 6
f 13 17 6
f 1 17 13
f 6 8 13
f 8 1 13

