# https://github.com/mikedh/trimesh
v -0.02574319 0.04868726 0.17337008
v -0.02102716 0.04064271 0.14522571
v -0.02333615 0.07296999 0.15085803
v -0.05043515 0.06606189 0.14378079
v -0.05043283 0.04009377 0.16329209
v -0.02659608 0.06300572 0.16047220
v -0.02020834 0.06449905 0.16184524
v -0.04837285 0.04580003 0.16095909
v -0.05776057 0.04560901 0.15242584
v -0.03358556 0.05932821 0.16034759
v -0.04425959 0.05560476 0.15621434
f 9 4 2
f 7 1 2
f 8 4 9
f 10 8 1
f 7 2 3
f 3 2 4
f 5 2 1
f 1 8 5
f 9 2 5
f 5 8 9
f 6 1 7
f 6 10 1
f 7 3 6
f 4 10 6
f 6 3 4
f 4 8 11
f 11 10 4
f 8 10 11

