# https://github.com/mikedh/trimesh
v 0.00160564 -0.03479995 -0.13013996
v 0.00175887 -0.07577574 -0.13016331
v 0.00229505 -0.07767193 -0.16055813
v -0.01725503 -0.03479995 -0.16031702
v -0.01725503 -0.03479995 -0.13013996
v 0.00160564 -0.03479995 -0.16031702
v 0.00266269 -0.07650254 -0.14159280
v -0.01616800 -0.06957430 -0.13026818
v -0.01538040 -0.07192747 -0.16090363
v -0.00468145 -0.07567182 -0.16072810
v -0.00834123 -0.07243509 -0.13025722
f 6 1 7
f 7 3 6
f 4 8 5
f 7 1 2
f 2 3 7
f 1 5 2
f 2 5 8
f 3 2 10
f 10 6 3
f 11 2 8
f 11 10 2
f 9 8 4
f 4 6 9
f 6 10 9
f 9 11 8
f 10 11 9
f 1 6 5
f 5 6 4

