# https://github.com/mikedh/trimesh
v -0.11984063 -0.00111508 -0.11870889
v -0.09534336 -0.02537930 -0.13010939
v -0.09646981 0.00669351 -0.13013996
v -0.10752268 0.00652389 -0.26581360
v -0.11093927 -0.01694995 -0.25347276
v -0.09397626 -0.02841433 -0.26006517
v -0.13067571 0.00793557 -0.16080468
v -0.11720718 -0.00741228 -0.11908476
v -0.09407489 -0.03295975 -0.22408055
v -0.09669654 0.00598384 -0.26571024
v -0.11631514 -0.00224209 -0.26171956
v -0.12279055 0.00431485 -0.12741279
v -0.12059480 0.00769402 -0.26241862
v -0.12279126 -0.00470642 -0.18697978
v -0.11805021 -0.00589360 -0.11948839
v -0.10822253 -0.01969982 -0.25308178
v -0.10487980 -0.01930149 -0.13004620
v -0.09546386 -0.01518333 -0.26603197
v -0.11143139 -0.01260322 -0.25826371
v -0.12016312 -0.00035150 -0.11941455
v -0.13108607 0.00813893 -0.24642214
v -0.12947204 0.00482478 -0.16084047
v -0.09689979 -0.03050775 -0.20251755
v -0.09659119 -0.02695597 -0.25879457
v -0.09799241 -0.02371323 -0.13002442
v -0.10247252 -0.01079370 -0.26501698
v -0.12992957 0.00611671 -0.24682317
v -0.11907244 -0.00825816 -0.17942448
v -0.09452781 -0.03230591 -0.20222133
v -0.10506674 -0.02273098 -0.24673293
v -0.09861809 -0.01439980 -0.26517296
v -0.10666029 -0.00368957 -0.26543879
v -0.12218141 -0.00520281 -0.20785076
v -0.12645639 0.00528989 -0.25580095
v -0.12272545 0.00221844 -0.25855205
v -0.12660116 0.00304163 -0.25033676
v -0.12716668 0.00772317 -0.25635203
v -0.12013160 0.00412515 -0.26170386
f 6 18 10
f 10 3 6
f 1 3 20
f 3 12 20
f 35 5 34
f 31 18 6
f 19 11 6
f 19 5 35
f 35 11 19
f 4 10 18
f 9 29 23
f 6 3 9
f 21 34 27
f 21 27 22
f 22 27 14
f 24 19 6
f 5 19 24
f 6 9 24
f 32 4 18
f 38 11 35
f 30 9 23
f 30 24 9
f 8 22 14
f 8 3 1
f 2 25 29
f 2 9 3
f 29 9 2
f 3 8 2
f 2 8 25
f 36 34 5
f 5 27 36
f 36 27 34
f 5 14 33
f 33 27 5
f 14 27 33
f 1 20 7
f 7 22 1
f 7 20 12
f 21 22 7
f 7 3 21
f 7 12 3
f 11 32 26
f 6 11 26
f 26 31 6
f 18 31 26
f 26 32 18
f 35 34 37
f 37 38 35
f 37 34 21
f 4 32 13
f 38 37 13
f 13 32 11
f 11 38 13
f 10 4 13
f 13 37 21
f 21 3 13
f 3 10 13
f 23 14 16
f 16 30 23
f 16 14 5
f 5 24 16
f 24 30 16
f 28 14 23
f 23 8 28
f 28 8 14
f 17 8 23
f 25 8 17
f 23 29 17
f 29 25 17
f 1 22 15
f 15 8 1
f 22 8 15

