# https://github.com/mikedh/trimesh
v -0.13275367 0.02941984 -0.19797762
v -0.12285200 -0.00104985 -0.22839604
v -0.12874219 0.00200862 -0.19805572
v -0.11465698 0.02467472 -0.26228787
v -0.13383578 0.01447849 -0.24256036
v -0.11502112 0.00671959 -0.26465602
v -0.11450029 0.03620783 -0.25951907
v -0.12956720 0.00824600 -0.25278960
v -0.13345508 0.00862002 -0.19797952
v -0.12889943 0.03926759 -0.20933690
v -0.12059480 0.00769402 -0.26241862
v -0.12585878 0.03511198 -0.25186165
v -0.13459687 0.02441670 -0.19811891
v -0.13359006 0.01191638 -0.23908385
v -0.12064893 0.02078232 -0.26121578
v -0.12957049 0.02439870 -0.25195969
v -0.12799496 0.04191030 -0.22866251
v -0.13349141 0.00894093 -0.20165860
v -0.11769333 0.02439372 -0.26158849
v -0.11998504 0.03528592 -0.25724398
v -0.12640429 0.02800625 -0.25486494
v -0.12972242 0.03533337 -0.23881870
v -0.12324424 0.02778617 -0.25776670
v -0.12953922 0.03157059 -0.24587023
v -0.13331916 0.02426343 -0.23902872
v -0.13356037 0.02071735 -0.24222307
f 3 6 7
f 2 6 3
f 10 3 7
f 7 17 10
f 2 3 8
f 3 14 8
f 3 10 1
f 13 9 1
f 1 9 3
f 1 17 13
f 1 10 17
f 7 6 4
f 4 19 7
f 6 19 4
f 7 19 20
f 21 12 20
f 20 17 7
f 20 12 17
f 21 20 23
f 16 12 21
f 5 8 14
f 13 26 5
f 26 16 5
f 5 16 8
f 17 12 22
f 18 14 3
f 3 9 18
f 18 5 14
f 18 9 13
f 13 5 18
f 11 16 21
f 8 16 11
f 11 6 2
f 2 8 11
f 13 17 25
f 17 22 25
f 25 26 13
f 12 16 24
f 24 22 12
f 24 25 22
f 24 16 26
f 26 25 24
f 21 23 15
f 15 11 21
f 15 20 19
f 15 23 20
f 15 19 6
f 6 11 15

