# https://github.com/mikedh/trimesh
v -0.05706049 0.00645551 0.16959484
v -0.05632703 -0.03687206 0.15780563
v -0.05867206 -0.05358774 0.14138240
v -0.08074682 0.00665063 0.14451093
v -0.07799066 -0.01869853 0.14509617
v -0.07008320 0.00767684 0.15488266
v -0.05740673 -0.05238128 0.14397602
v -0.05673410 -0.00804879 0.16962073
v -0.07857803 -0.02928313 0.13929851
v -0.05869471 0.00641630 0.16807155
v -0.05643565 -0.02254326 0.16568266
v -0.06220704 -0.00430904 0.16426254
v -0.08072634 -0.02315006 0.14086088
v -0.06099968 -0.05236003 0.14010545
v -0.05864355 -0.00772863 0.16776218
v -0.06600580 -0.03588757 0.14883982
v -0.07718093 -0.02864363 0.14148003
v -0.05857732 -0.03591651 0.15628108
v -0.06987980 -0.03940463 0.14176333
v -0.05967124 -0.05122406 0.14270008
v -0.06802809 -0.02815494 0.15111975
v -0.07101242 -0.04036218 0.13946949
f 14 9 4
f 4 3 14
f 6 3 4
f 1 11 2
f 8 11 1
f 3 6 1
f 20 14 3
f 20 19 14
f 15 12 5
f 8 15 5
f 5 11 8
f 5 12 4
f 7 1 2
f 3 1 7
f 2 20 7
f 7 20 3
f 10 6 4
f 10 1 6
f 4 12 10
f 10 12 15
f 10 15 8
f 8 1 10
f 16 20 2
f 19 20 16
f 9 14 22
f 22 19 9
f 14 19 22
f 13 21 11
f 11 5 13
f 4 9 13
f 13 5 4
f 11 21 18
f 21 16 18
f 2 11 18
f 18 16 2
f 17 16 21
f 21 13 17
f 17 13 9
f 9 19 17
f 19 16 17

