# https://github.com/mikedh/trimesh
v 0.05672520 0.05168520 0.04635959
v 0.04881782 0.05648504 0.04687304
v 0.03178270 0.04064271 0.04715027
v 0.03078755 0.06498600 0.00194053
v 0.05668212 0.05093646 0.00106152
v 0.03112916 0.06562284 0.04720197
v 0.04482582 0.05877542 0.04731429
v 0.03178270 0.04064271 0.00188468
v 0.03717869 0.06238667 0.02835685
v 0.03732649 0.06261431 0.04725223
v 0.04836915 0.05557006 0.00168847
v 0.03368056 0.06359142 0.00201004
f 1 3 5
f 4 3 6
f 8 3 4
f 4 5 8
f 8 5 3
f 7 3 1
f 7 6 3
f 1 5 2
f 2 7 1
f 5 7 2
f 12 5 4
f 11 7 5
f 5 12 11
f 11 12 7
f 7 12 9
f 4 6 9
f 9 12 4
f 6 7 10
f 10 9 6
f 7 9 10

