# https://github.com/mikedh/trimesh
v 0.01693822 -0.08643032 -0.25461471
v 0.01730470 -0.08454784 -0.26002006
v 0.01692931 -0.07525625 -0.26646803
v -0.00902542 -0.07429463 -0.26322978
v -0.00067383 -0.08282013 -0.25674039
v 0.01343763 -0.07822772 -0.26506940
v -0.01094552 -0.07928880 -0.25502994
v 0.01466382 -0.08487056 -0.25844877
v 0.00263579 -0.07977462 -0.26192118
v 0.01716992 -0.07836974 -0.26542793
v 0.01317510 -0.07517718 -0.26622095
v -0.00820443 -0.08070008 -0.25403071
v -0.00833366 -0.07643506 -0.26165278
v 0.00628530 -0.08299369 -0.25909890
v -0.00114925 -0.08375565 -0.25353967
v -0.00825204 -0.08016059 -0.25646213
f 7 3 4
f 2 3 1
f 9 6 2
f 4 6 9
f 15 16 5
f 2 1 8
f 1 15 8
f 8 15 5
f 10 3 2
f 2 6 10
f 11 4 3
f 11 6 4
f 3 10 11
f 11 10 6
f 14 9 2
f 5 9 14
f 2 8 14
f 14 8 5
f 4 9 13
f 13 9 5
f 5 16 13
f 7 4 13
f 13 16 7
f 12 15 1
f 12 3 7
f 12 1 3
f 7 16 12
f 16 15 12

