# https://github.com/mikedh/trimesh
v 0.03383693 0.06732193 0.10400068
v 0.03680801 0.06582711 0.10353644
v 0.02899305 0.06646192 0.01296263
v 0.01556683 0.07120231 -0.01303900
v 0.00534344 0.07825457 0.10373902
v 0.02629019 0.07066031 0.10402996
v 0.03563082 0.06342894 0.04714262
v 0.01995538 0.06955991 -0.01326148
v 0.01542839 0.07492362 0.10393347
v 0.03226340 0.06427136 0.00185770
v 0.03346267 0.06607913 0.08514340
v 0.00456695 0.07543822 0.00210256
v 0.01865644 0.07009140 -0.01336463
v 0.00973882 0.07680735 0.10289302
v 0.01669135 0.07081226 -0.01320307
f 7 5 12
f 10 7 12
f 2 7 10
f 2 5 11
f 11 7 2
f 5 7 11
f 2 10 3
f 4 10 12
f 4 15 13
f 5 6 9
f 13 15 9
f 9 6 13
f 9 4 12
f 15 4 9
f 8 3 10
f 10 4 8
f 8 4 13
f 13 6 8
f 6 3 8
f 2 3 1
f 1 3 6
f 1 5 2
f 1 6 5
f 12 5 14
f 14 9 12
f 5 9 14

