# https://github.com/mikedh/trimesh
v -0.11863259 0.04425613 0.08467189
v -0.12145529 0.03367829 0.08577501
v -0.11842190 0.04415883 -0.00537960
v -0.12155044 0.03395286 -0.00668572
v -0.12589788 0.04299533 0.05783963
v -0.12544079 0.03538951 0.07232853
v -0.12175830 0.05312833 0.05884941
v -0.12558825 0.04265175 0.01782981
v -0.12193511 0.03546939 0.08314933
v -0.12661866 0.03200551 0.00670262
v -0.11818524 0.05150887 0.00221668
v -0.12197089 0.04291652 0.07592102
v -0.12301535 0.05044739 0.05799994
v -0.12625925 0.03216640 0.07251316
v -0.11946234 0.04331787 0.08344672
v -0.12304203 0.03205768 -0.00433384
v -0.12222234 0.04994454 0.01426733
v -0.12212829 0.04283078 0.00317303
v -0.12275530 0.03213932 0.08337726
v -0.11920769 0.05015937 0.00321180
v -0.12540731 0.03905612 0.01060789
v -0.12567295 0.03538864 0.00680159
v -0.12210330 0.03546208 -0.00402214
v -0.11931592 0.04307640 -0.00419577
v -0.12191708 0.04652634 0.00699954
f 11 7 1
f 19 14 10
f 17 7 11
f 10 14 5
f 5 8 10
f 4 23 24
f 2 4 3
f 3 1 2
f 4 24 3
f 11 1 3
f 2 1 15
f 16 23 4
f 16 19 10
f 16 4 2
f 2 19 16
f 10 8 21
f 8 17 21
f 21 17 25
f 22 16 10
f 23 16 22
f 10 21 22
f 22 21 25
f 20 17 11
f 25 17 20
f 11 3 20
f 20 3 24
f 8 5 13
f 7 17 13
f 13 17 8
f 18 24 23
f 23 22 18
f 18 22 25
f 25 20 18
f 18 20 24
f 14 19 9
f 9 19 2
f 2 15 9
f 12 13 5
f 7 13 12
f 12 1 7
f 12 15 1
f 6 5 14
f 6 12 5
f 14 9 6
f 6 9 15
f 15 12 6

