# https://github.com/mikedh/trimesh
v -0.10970945 0.04735541 -0.12332060
v -0.10024194 0.00669351 -0.13013996
v -0.10024194 0.05195910 -0.19803835
v -0.12403745 0.05079383 -0.19810257
v -0.12953151 0.00774677 -0.15375394
v -0.10712608 0.05558870 -0.12740820
v -0.11980637 -0.00507829 -0.12881637
v -0.12921769 0.02757127 -0.16130819
v -0.10024194 0.00669351 -0.19803835
v -0.11099753 0.04415356 -0.12277745
v -0.13345508 0.00862002 -0.19797952
v -0.12195336 0.04977232 -0.16864261
v -0.11906915 -0.00769170 -0.14133454
v -0.12171471 0.02405703 -0.13197172
v -0.13347764 0.02757107 -0.19806592
v -0.12731633 0.00114518 -0.16053446
v -0.11798720 0.04973511 -0.15018940
v -0.12264394 -0.00438403 -0.16026549
v -0.12615566 0.00750924 -0.13869216
v -0.12271855 0.00071244 -0.13089775
v -0.12945829 0.03494543 -0.17974325
v -0.13378756 0.01782774 -0.17223783
v -0.12573561 0.00126990 -0.14610989
v -0.13371002 0.01190445 -0.17572564
v -0.11456559 0.04980509 -0.13930993
v -0.12550567 0.02769348 -0.14665607
v -0.12587296 0.04629158 -0.19451633
v -0.12930354 0.03125405 -0.16865439
v -0.13338141 0.02419671 -0.17964892
v -0.13349734 0.00887828 -0.19439773
v -0.13370732 0.01478232 -0.17217544
v -0.11156017 0.05009484 -0.13159000
v -0.12154235 0.03872376 -0.14668693
v -0.12957159 0.02086329 -0.15397833
v -0.12593136 0.04635686 -0.19807512
v -0.13335930 0.02758779 -0.19452527
v -0.11785361 0.04247041 -0.13932727
v -0.12545087 0.02034295 -0.13930697
v -0.11803001 0.03517701 -0.13190291
v -0.11191649 0.04282431 -0.12370213
f 6 4 12
f 3 4 6
f 3 9 4
f 3 6 2
f 2 9 3
f 13 9 2
f 4 9 15
f 9 11 15
f 15 11 22
f 22 19 34
f 34 19 38
f 2 6 1
f 1 10 2
f 2 10 7
f 7 10 20
f 7 13 2
f 20 10 14
f 14 19 20
f 38 19 14
f 18 11 9
f 9 13 18
f 27 12 4
f 27 21 12
f 29 15 22
f 22 11 30
f 30 24 22
f 22 24 31
f 20 19 5
f 5 31 24
f 5 19 22
f 22 31 5
f 4 15 35
f 35 27 4
f 15 27 35
f 21 27 36
f 36 27 15
f 36 29 21
f 15 29 36
f 12 21 28
f 21 29 28
f 24 30 16
f 16 5 24
f 13 7 16
f 16 18 13
f 11 18 16
f 16 30 11
f 26 34 38
f 40 14 10
f 23 16 7
f 5 16 23
f 23 7 20
f 20 5 23
f 14 40 39
f 38 14 39
f 39 26 38
f 8 26 33
f 12 28 8
f 34 26 8
f 8 28 29
f 22 34 8
f 8 29 22
f 10 1 32
f 32 25 10
f 32 1 6
f 6 25 32
f 12 8 17
f 17 8 33
f 6 12 17
f 17 25 6
f 33 26 37
f 26 39 37
f 37 17 33
f 25 17 37
f 37 39 40
f 37 40 10
f 10 25 37

