# https://github.com/mikedh/trimesh
v 0.02137277 0.01603101 0.26590431
v 0.02765523 0.00591726 0.26131157
v 0.02882272 0.03407214 0.21067465
v 0.00537777 0.02555417 0.20557983
v 0.00559008 0.00700117 0.26285503
v 0.03610001 0.00680874 0.21717373
v 0.00477917 0.02903331 0.26134440
v 0.02400440 0.02969680 0.24119479
v 0.02483617 0.00631982 0.26602427
v 0.03120836 0.02896543 0.21156964
v 0.00537777 0.00669351 0.21689623
v 0.00616490 0.04093916 0.21204937
v 0.00505151 0.02604115 0.26639919
v 0.02367828 0.01595993 0.26345138
v 0.02701206 0.00948442 0.26117707
v 0.03138864 0.02805245 0.21171498
v 0.03188621 0.00616824 0.23882105
v 0.02139052 0.03876152 0.21083054
v 0.01396348 0.02539124 0.26356139
v 0.01463950 0.00739281 0.26607460
v 0.02435612 0.00947113 0.26586975
v 0.03066561 0.01243735 0.23852650
v 0.02685417 0.01253334 0.25726988
v 0.01249683 0.03566159 0.24166563
v 0.00801194 0.02620328 0.26579533
v 0.02006450 0.02194516 0.26109702
v 0.00607363 0.01593110 0.26596654
v 0.00672136 0.03440982 0.24130886
v 0.01497586 0.02271169 0.26580539
v 0.00828336 0.02853278 0.26080551
f 7 12 4
f 11 4 6
f 7 4 11
f 11 5 7
f 5 20 27
f 28 12 7
f 7 24 28
f 28 24 12
f 12 24 18
f 18 4 12
f 18 3 4
f 4 3 10
f 5 11 2
f 3 18 8
f 8 18 24
f 8 10 3
f 6 4 16
f 16 10 6
f 4 10 16
f 6 10 22
f 15 22 10
f 15 2 6
f 6 22 15
f 17 11 6
f 6 2 17
f 17 2 11
f 19 8 24
f 9 20 5
f 5 2 9
f 23 8 14
f 14 15 23
f 10 8 23
f 23 15 10
f 30 24 7
f 30 19 24
f 7 5 13
f 5 27 13
f 13 27 20
f 20 9 13
f 13 9 1
f 26 1 14
f 14 8 26
f 8 19 26
f 14 1 21
f 1 9 21
f 21 15 14
f 2 15 21
f 21 9 2
f 19 30 25
f 25 30 7
f 7 13 25
f 1 26 29
f 29 26 19
f 19 25 29
f 29 13 1
f 29 25 13

