# https://github.com/mikedh/trimesh
v 0.09331190 0.02844230 -0.06609189
v 0.09590895 -0.00462289 -0.06601371
v 0.09869214 0.02409079 -0.13012357
v 0.00160564 0.04064271 -0.13013996
v 0.00160564 -0.00462289 -0.06601371
v 0.07627656 0.03946647 -0.13014680
v 0.09907799 0.02460194 -0.10371504
v 0.00160564 0.04064271 -0.06601371
v 0.09968108 -0.00462289 -0.13013996
v 0.09313109 0.02864765 -0.09233505
v 0.07617909 0.03923150 -0.06602695
v 0.09968108 -0.00462289 -0.10373503
v 0.00160564 -0.00462289 -0.13013996
f 8 6 4
f 4 6 13
f 13 6 9
f 9 6 3
f 6 8 11
f 11 8 2
f 2 8 5
f 1 11 2
f 6 11 1
f 2 12 7
f 7 1 2
f 7 12 9
f 9 3 7
f 7 3 6
f 6 1 10
f 10 7 6
f 1 7 10
f 5 8 4
f 4 13 5
f 12 13 9
f 2 5 12
f 12 5 13

