# https://github.com/mikedh/trimesh
v 0.06929283 0.04409925 -0.13015313
v 0.06755141 0.04526913 -0.13026168
v 0.03932696 0.04441484 -0.23198754
v 0.04229948 0.06823755 -0.23273861
v 0.06283056 0.05873469 -0.22489931
v 0.03844366 0.06147742 -0.13021096
v 0.07314008 0.04958760 -0.23222610
v 0.03853105 0.06919658 -0.20199242
v 0.04604836 0.05759065 -0.12971850
v 0.06656291 0.05501561 -0.21375695
v 0.06268520 0.05898191 -0.23211460
v 0.03903313 0.07019005 -0.21319524
v 0.03773162 0.06372723 -0.15679857
v 0.06331399 0.04787770 -0.13035947
v 0.04504317 0.06728492 -0.21354829
v 0.05184264 0.06238490 -0.20237056
f 7 1 3
f 8 3 13
f 12 3 8
f 6 3 1
f 1 9 6
f 13 3 6
f 6 8 13
f 12 8 6
f 10 1 7
f 7 5 10
f 10 5 1
f 11 5 7
f 14 5 9
f 12 6 15
f 15 6 9
f 15 11 12
f 5 11 15
f 4 3 12
f 12 11 4
f 7 3 4
f 4 11 7
f 2 9 1
f 2 14 9
f 1 5 2
f 5 14 2
f 9 5 16
f 16 15 9
f 5 15 16

