# https://github.com/mikedh/trimesh
v 0.00160564 -0.03857208 -0.19803835
v 0.00000352 -0.08159602 -0.19742722
v 0.00192962 -0.07195124 -0.26594776
v -0.02921466 -0.03970159 -0.26540400
v -0.03213307 -0.06969976 -0.19713524
v 0.00143392 -0.03890880 -0.26269816
v 0.00229870 -0.08503692 -0.22089253
v -0.02857142 -0.03857208 -0.19803835
v -0.02712738 -0.07184273 -0.25902925
v 0.00127732 -0.05122096 -0.26553861
v -0.02304250 -0.07552809 -0.21361043
v -0.02827546 -0.06042554 -0.26527813
v 0.00209190 -0.08448652 -0.25369991
v -0.00843880 -0.07962359 -0.20237455
v -0.02391377 -0.07566775 -0.23120512
v -0.02709502 -0.06889996 -0.26189125
v -0.01565440 -0.07586367 -0.25926636
v -0.00436643 -0.08310084 -0.22119345
v -0.00929148 -0.07880242 -0.19821818
v -0.00388469 -0.08289242 -0.25340024
v -0.00536838 -0.07125732 -0.26535801
v -0.01944096 -0.07214178 -0.26175107
v -0.01914491 -0.07524636 -0.19872303
v -0.02682241 -0.07210885 -0.19867062
f 2 1 5
f 7 1 2
f 5 1 8
f 8 4 5
f 6 1 7
f 7 3 6
f 6 8 1
f 4 8 6
f 5 9 15
f 13 3 7
f 12 4 3
f 5 4 12
f 12 9 5
f 3 4 10
f 10 6 3
f 4 6 10
f 19 2 5
f 19 14 2
f 23 19 5
f 14 19 23
f 14 23 11
f 5 15 11
f 3 13 17
f 18 11 15
f 14 11 18
f 7 2 18
f 2 14 18
f 20 15 9
f 9 17 20
f 20 17 13
f 20 18 15
f 20 13 7
f 7 18 20
f 9 12 16
f 24 23 5
f 5 11 24
f 24 11 23
f 3 17 21
f 21 12 3
f 21 16 12
f 22 17 9
f 9 16 22
f 22 21 17
f 16 21 22

