# https://github.com/mikedh/trimesh
v 0.10115442 0.02233668 -0.13001353
v 0.10345322 -0.00085075 -0.13013996
v 0.10090467 0.02646013 -0.19842318
v 0.06887683 0.05108848 -0.19816416
v 0.06950402 -0.00085075 -0.13013996
v 0.09290918 0.03319940 -0.19867677
v 0.06929283 0.04409925 -0.13015313
v 0.10345322 -0.00085075 -0.19803835
v 0.07809867 0.04450236 -0.19870147
v 0.07454647 0.04060166 -0.13016214
v 0.06778083 0.04550840 -0.14162055
v 0.06950402 -0.00085075 -0.19803835
v 0.07137767 0.04932375 -0.19841918
v 0.08567117 0.03298802 -0.13019691
v 0.06763126 0.04918926 -0.17959960
f 2 1 5
f 15 12 5
f 3 1 2
f 4 12 15
f 7 5 1
f 6 9 1
f 1 3 6
f 6 12 9
f 9 12 13
f 12 4 13
f 1 9 13
f 13 4 1
f 11 4 15
f 11 7 4
f 15 5 11
f 5 7 11
f 10 7 1
f 4 7 10
f 12 6 8
f 8 6 3
f 8 3 2
f 1 4 14
f 14 10 1
f 4 10 14
f 8 5 12
f 2 5 8

