# https://github.com/mikedh/trimesh
v -0.07008951 0.00727417 -0.25988578
v -0.06012549 -0.02051312 -0.26602056
v -0.09514956 0.00875893 -0.26495823
v -0.09669654 0.00598384 -0.26571024
v -0.08604109 -0.03980099 -0.25530055
v -0.06289607 -0.02395843 -0.26730288
v -0.06092455 -0.00934842 -0.26263437
v -0.09900212 -0.02633995 -0.25536457
v -0.09313115 0.00578149 -0.26532015
v -0.08061021 -0.04280322 -0.25691339
v -0.09532614 -0.02234694 -0.26365608
v -0.08281200 -0.03591994 -0.26236340
v -0.09474631 -0.01833523 -0.26529015
v -0.07684340 -0.03764247 -0.26428145
v -0.07686426 -0.03394957 -0.26577217
v -0.07982892 -0.03309715 -0.26537685
f 6 3 2
f 1 3 8
f 2 3 1
f 10 6 2
f 5 1 8
f 2 1 7
f 7 10 2
f 1 5 7
f 7 5 10
f 6 13 4
f 8 3 4
f 6 10 14
f 3 6 9
f 9 4 3
f 6 4 9
f 15 13 6
f 6 14 15
f 11 5 8
f 8 4 11
f 11 4 13
f 16 15 14
f 13 15 16
f 16 11 13
f 10 5 12
f 5 11 12
f 12 14 10
f 12 16 14
f 11 16 12

