# https://github.com/mikedh/trimesh
v 0.08070141 0.04048365 -0.18674947
v 0.09063948 0.03499327 -0.19833008
v 0.07753027 0.04745270 -0.21376574
v 0.06789896 0.05399509 -0.23169927
v 0.09129279 0.03628731 -0.23202296
v 0.06887683 0.05108848 -0.19816416
v 0.08511782 0.04001934 -0.20260154
v 0.08314519 0.03870830 -0.18705663
v 0.07013510 0.05199102 -0.23184650
v 0.08953066 0.03884171 -0.23209690
v 0.06771717 0.05307408 -0.20600380
v 0.07889503 0.04193070 -0.18711442
v 0.08882739 0.03649346 -0.19868314
v 0.07613925 0.04751343 -0.23206702
v 0.07796367 0.04768595 -0.22344443
v 0.07033465 0.05135704 -0.20627596
v 0.07606556 0.04562729 -0.19655531
v 0.08241157 0.04388669 -0.23194295
f 8 1 5
f 5 2 8
f 5 1 14
f 1 9 14
f 3 15 11
f 3 6 17
f 10 2 5
f 5 14 10
f 10 3 2
f 15 3 10
f 12 9 1
f 12 6 9
f 17 6 12
f 1 8 12
f 11 6 16
f 16 3 11
f 6 3 16
f 4 14 9
f 4 10 14
f 11 15 4
f 4 6 11
f 9 6 4
f 2 3 7
f 7 12 8
f 7 3 17
f 17 12 7
f 15 10 18
f 18 4 15
f 10 4 18
f 13 8 2
f 2 7 13
f 13 7 8

