# https://github.com/mikedh/trimesh
v 0.09303543 -0.04724569 0.12378631
v 0.08199959 -0.07644376 0.11268995
v 0.08441557 -0.08578867 0.07721717
v 0.05818763 -0.04234421 0.07732733
v 0.05818763 -0.04234421 0.11504865
v 0.08459255 -0.04234421 0.07732733
v 0.08281690 -0.08287539 0.09845909
v 0.05796033 -0.08443730 0.11442755
v 0.08459255 -0.06120487 0.07732733
v 0.06801278 -0.08295543 0.11318505
v 0.05818763 -0.06120487 0.11504865
v 0.05874687 -0.08371463 0.07748729
v 0.07837598 -0.07911152 0.11243151
v 0.08168332 -0.07933439 0.10859908
f 5 4 8
f 8 4 12
f 12 3 8
f 4 3 12
f 6 3 4
f 6 5 1
f 4 5 6
f 8 1 11
f 11 5 8
f 1 5 11
f 10 1 8
f 7 3 1
f 1 2 7
f 8 3 7
f 7 10 8
f 1 3 9
f 9 6 1
f 3 6 9
f 13 2 1
f 1 10 13
f 10 7 14
f 14 13 10
f 14 7 2
f 2 13 14

