# https://github.com/mikedh/trimesh
v -0.02602504 0.09022048 -0.23195255
v -0.02102101 0.08835722 -0.23300385
v -0.02498487 0.08894795 -0.25440251
v -0.06652821 0.07723275 -0.26601470
v -0.06629275 0.07459190 -0.23198754
v -0.02382972 0.08004871 -0.26485014
v -0.06597395 0.09150730 -0.25421886
v -0.02588177 0.08940560 -0.25362774
v -0.03980101 0.07744272 -0.26637021
v -0.06608299 0.09267462 -0.23199388
f 5 10 4
f 2 5 6
f 4 10 7
f 10 8 7
f 7 6 4
f 2 8 1
f 1 8 10
f 1 5 2
f 10 5 1
f 3 8 2
f 2 6 3
f 3 7 8
f 6 7 3
f 9 5 4
f 4 6 9
f 9 6 5

