# https://github.com/mikedh/trimesh
v 0.10253907 -0.06660286 -0.12894527
v 0.11012812 -0.07043794 -0.15773157
v 0.05818763 -0.06497701 -0.16031702
v 0.05829365 -0.09000180 -0.18685282
v 0.08618187 -0.08647169 -0.13112848
v 0.11203979 -0.07295649 -0.17404198
v 0.09941237 -0.08345288 -0.15047434
v 0.05818763 -0.06497701 -0.13013996
v 0.05818763 -0.06874914 -0.17540555
v 0.10311171 -0.07739065 -0.14671937
v 0.09361867 -0.09014387 -0.18259361
v 0.05876859 -0.08824316 -0.13010675
v 0.08456887 -0.09080995 -0.18673538
v 0.05772258 -0.08989110 -0.18614795
v 0.10504713 -0.07131199 -0.14222226
v 0.09544890 -0.07978681 -0.13206149
v 0.10700519 -0.07794691 -0.16116840
v 0.09725433 -0.08682461 -0.15751140
v 0.09207849 -0.09034784 -0.18297787
v 0.10783225 -0.07463840 -0.15732803
v 0.10357840 -0.07422942 -0.14270719
v 0.08965347 -0.08665407 -0.13884103
v 0.10648680 -0.07741822 -0.15785394
v 0.10850506 -0.07497738 -0.16085018
v 0.10130157 -0.08735871 -0.17575230
v 0.10038449 -0.08695610 -0.16870615
f 14 3 9
f 9 3 6
f 12 5 1
f 14 9 4
f 4 12 14
f 1 5 16
f 5 11 22
f 22 16 5
f 7 16 22
f 8 1 3
f 8 12 1
f 8 3 14
f 14 12 8
f 6 11 13
f 13 9 6
f 13 4 9
f 12 4 13
f 6 3 2
f 3 1 2
f 17 23 7
f 15 2 1
f 7 23 10
f 10 16 7
f 23 15 10
f 19 13 11
f 12 13 19
f 19 11 5
f 5 12 19
f 23 17 24
f 6 2 24
f 24 17 6
f 25 11 6
f 6 17 25
f 20 15 23
f 2 15 20
f 23 24 20
f 20 24 2
f 1 16 21
f 16 10 21
f 21 15 1
f 21 10 15
f 26 17 7
f 26 25 17
f 7 22 18
f 18 26 7
f 18 22 11
f 11 25 18
f 25 26 18

