# https://github.com/mikedh/trimesh
v 0.08180617 -0.00073544 0.14571790
v 0.08304821 -0.04895114 0.13199077
v 0.08920859 -0.00084902 0.13941558
v 0.05818763 -0.00085075 0.13390932
v 0.05601732 -0.05168905 0.14997729
v 0.08146778 -0.02971238 0.14121598
v 0.05818763 -0.00085075 0.14899785
v 0.05754026 -0.07516965 0.13278634
v 0.08100325 -0.01530625 0.14507402
v 0.05797960 -0.04594176 0.15250973
v 0.05660832 -0.07358170 0.13481473
v 0.06077524 -0.07423721 0.13185455
v 0.08132113 -0.04067531 0.13712547
v 0.07738482 -0.02928232 0.14450583
v 0.07904544 -0.05611179 0.13150087
v 0.05985965 -0.07268748 0.13386939
v 0.07761876 -0.04777245 0.13684380
v 0.07365139 -0.03665034 0.14449885
v 0.06284320 -0.06599607 0.13682462
v 0.07560179 -0.05997900 0.13188245
v 0.08143879 -0.04797430 0.13376353
v 0.07753782 -0.05498981 0.13322733
v 0.06657577 -0.06218623 0.13676122
v 0.07413312 -0.05882016 0.13363147
f 7 4 5
f 5 4 11
f 11 4 8
f 2 4 3
f 15 4 2
f 12 4 15
f 8 4 12
f 3 4 1
f 4 7 1
f 6 2 3
f 20 12 15
f 20 23 19
f 10 18 14
f 10 7 5
f 10 1 7
f 5 19 10
f 19 23 10
f 3 1 9
f 9 6 3
f 14 6 9
f 9 10 14
f 1 10 9
f 2 6 13
f 18 10 13
f 14 18 13
f 13 6 14
f 16 20 19
f 12 20 16
f 16 19 5
f 5 11 16
f 16 11 8
f 8 12 16
f 23 20 24
f 24 10 23
f 22 10 24
f 15 22 24
f 24 20 15
f 17 13 10
f 17 10 22
f 17 22 15
f 2 13 21
f 13 17 21
f 15 2 21
f 21 17 15

