# https://github.com/mikedh/trimesh
v -0.06630264 0.09234576 -0.19812344
v -0.06629275 0.06327550 -0.19803835
v -0.06593325 0.06392953 -0.26592110
v -0.07734466 0.07741250 -0.26554317
v -0.11337576 0.06604308 -0.24945255
v -0.06620436 0.09032670 -0.25680404
v -0.10024194 0.06327550 -0.19803835
v -0.09888927 0.06340426 -0.26172726
v -0.06621529 0.07749524 -0.26596033
v -0.09921792 0.08905457 -0.23561560
v -0.09870954 0.08959002 -0.19804799
v -0.09693401 0.08251250 -0.25819304
v -0.07713519 0.06755845 -0.26542766
v -0.10567180 0.06267247 -0.25879837
v -0.06620337 0.08442116 -0.26318034
v -0.09560514 0.08909377 -0.24665674
v -0.10476957 0.08323671 -0.24609977
v -0.09421697 0.08001607 -0.26113128
v -0.07353832 0.06396768 -0.26523175
v -0.10452405 0.07629210 -0.25515271
v -0.09121892 0.08536855 -0.25852088
v -0.10086508 0.08586727 -0.24956705
v -0.09768809 0.07334149 -0.26131872
v -0.10447269 0.06963016 -0.25822375
v -0.10405941 0.08262523 -0.24898639
v -0.08776980 0.08300030 -0.26185187
v -0.07701748 0.08887631 -0.25706803
v -0.09728817 0.08544893 -0.25462103
v -0.10005035 0.08270950 -0.25519731
f 3 1 2
f 6 1 3
f 3 2 14
f 5 14 7
f 7 14 2
f 1 6 16
f 16 10 1
f 1 10 11
f 11 2 1
f 11 7 2
f 5 7 11
f 15 6 3
f 26 15 4
f 27 16 6
f 6 15 27
f 27 15 26
f 13 4 3
f 9 15 3
f 3 4 9
f 9 4 15
f 21 27 26
f 16 27 21
f 5 11 17
f 17 11 10
f 19 13 3
f 26 4 18
f 4 23 18
f 24 23 14
f 24 14 5
f 24 18 23
f 4 13 8
f 8 23 4
f 14 23 8
f 13 19 8
f 3 14 8
f 8 19 3
f 16 21 28
f 20 24 5
f 22 28 29
f 16 28 22
f 10 16 22
f 22 17 10
f 18 24 12
f 24 20 12
f 12 20 29
f 29 28 12
f 12 28 21
f 12 21 26
f 26 18 12
f 25 22 29
f 17 22 25
f 29 20 25
f 5 17 25
f 25 20 5

