# https://github.com/mikedh/trimesh
v 0.02073058 0.00663282 0.26758563
v 0.03631022 -0.00428501 0.21539808
v 0.02765523 0.00591726 0.26131157
v 0.03639000 0.00987627 0.21538164
v 0.02411263 -0.02333595 0.21678444
v 0.03501405 0.00282074 0.22358868
v 0.02970649 0.00800282 0.24883707
v 0.03549864 0.01045592 0.21688453
v 0.03130739 -0.02301316 0.21170112
v 0.01917298 -0.01435498 0.26453840
v 0.02743237 -0.00041200 0.26102539
v 0.02483617 0.00631982 0.26602427
v 0.03479888 0.01032553 0.22053062
v 0.02797134 -0.02344946 0.21305401
v 0.01847690 -0.01750879 0.25780428
v 0.02720174 -0.00686085 0.25374564
v 0.02439770 -0.00403450 0.26574032
v 0.01885923 -0.01079527 0.26703992
v 0.01996579 -0.01912069 0.24689067
v 0.02057255 -0.01347373 0.26388355
v 0.02321817 -0.00954086 0.26380692
v 0.02095492 -0.00990597 0.26617290
v 0.02355475 -0.01229048 0.25731760
f 14 9 15
f 4 9 14
f 4 14 5
f 2 9 4
f 19 14 15
f 19 5 14
f 15 1 19
f 19 1 5
f 4 5 8
f 5 1 8
f 15 9 20
f 16 21 9
f 11 21 16
f 9 2 16
f 16 2 11
f 17 21 11
f 11 3 17
f 11 2 6
f 6 3 11
f 6 2 4
f 4 3 6
f 7 3 4
f 9 21 23
f 23 20 9
f 21 20 23
f 1 17 12
f 12 17 3
f 12 7 1
f 3 7 12
f 15 20 10
f 22 20 21
f 21 17 22
f 22 10 20
f 13 8 1
f 1 7 13
f 4 8 13
f 13 7 4
f 10 22 18
f 18 1 15
f 15 10 18
f 18 17 1
f 18 22 17

