# https://github.com/mikedh/trimesh
v 0.05304450 -0.05954813 0.14653721
v 0.06104364 -0.06416862 0.13897171
v 0.00537777 -0.06120487 0.13390932
v 0.00223334 -0.07659253 0.13046701
v 0.00540183 -0.07241577 0.15182010
v 0.05754026 -0.07516965 0.13278634
v 0.05719513 -0.06013238 0.14360636
v 0.00579404 -0.06942141 0.15570426
v 0.05345515 -0.07753065 0.13202219
v 0.05220074 -0.06911209 0.14050180
v 0.02406366 -0.08272168 0.13326023
v 0.05660832 -0.07358170 0.13481473
v 0.05582047 -0.06585714 0.14082044
v 0.03427927 -0.07246852 0.14539249
v 0.03879105 -0.08067385 0.13216263
v 0.04848241 -0.06551991 0.14485777
v 0.04527706 -0.07231386 0.14121917
v 0.02374812 -0.07382590 0.14715537
v 0.05292070 -0.07588734 0.13433767
v 0.02360182 -0.07950427 0.13882089
v 0.03445790 -0.07558432 0.14175789
v 0.04554847 -0.07550041 0.13793499
v 0.02731541 -0.07910579 0.13857881
v 0.03852652 -0.07911214 0.13507257
f 4 8 3
f 4 3 9
f 4 11 5
f 5 8 4
f 1 3 8
f 15 11 4
f 4 9 15
f 6 3 2
f 6 9 3
f 2 3 7
f 7 1 2
f 3 1 7
f 8 5 18
f 24 15 9
f 11 15 24
f 22 24 9
f 21 24 22
f 20 5 11
f 20 18 5
f 23 24 21
f 23 21 18
f 18 20 23
f 11 24 23
f 23 20 11
f 19 17 22
f 9 6 19
f 19 22 9
f 21 22 14
f 22 17 14
f 18 21 14
f 8 18 14
f 16 10 1
f 17 10 16
f 16 14 17
f 16 1 8
f 8 14 16
f 2 1 13
f 1 10 13
f 12 19 6
f 17 19 12
f 12 10 17
f 12 13 10
f 12 6 2
f 2 13 12

