# https://github.com/mikedh/trimesh
v 0.00556700 0.03149203 0.24806780
v 0.01985158 0.03206683 0.24186825
v 0.00538321 0.04030636 0.21279943
v -0.02182108 0.02989623 0.21498216
v -0.01894408 0.02322897 0.24637031
v 0.02010244 0.03622672 0.21212931
v 0.01550652 0.03349207 0.24248388
v 0.01563785 0.03085639 0.24468242
v -0.01139608 0.02888639 0.24611165
v 0.02045605 0.04058193 0.21059092
v -0.02473252 0.02550637 0.21685530
v 0.01950827 0.03171978 0.23779130
v -0.00817286 0.03186692 0.23850934
v -0.01723466 0.02495175 0.24570534
v 0.01864176 0.03362329 0.24099594
v -0.02248624 0.02372698 0.23143501
v -0.00888159 0.03705902 0.21498644
v -0.01473573 0.03206676 0.22357012
f 10 4 3
f 3 4 17
f 5 1 9
f 6 12 11
f 11 4 6
f 6 4 10
f 11 12 16
f 16 12 5
f 16 4 11
f 5 4 16
f 8 1 5
f 5 12 8
f 14 4 5
f 5 9 14
f 14 9 4
f 17 4 18
f 18 9 17
f 4 9 18
f 13 3 17
f 17 9 13
f 1 3 13
f 13 9 1
f 7 3 1
f 1 8 7
f 10 3 7
f 7 15 10
f 2 8 12
f 10 15 2
f 15 7 2
f 2 7 8
f 2 6 10
f 12 6 2

