# https://github.com/mikedh/trimesh
v 0.00660859 0.03678200 0.21881521
v 0.05010225 -0.02320177 0.20862846
v 0.04315538 0.04107911 0.20646800
v 0.00702223 0.05855891 0.18622077
v 0.00537777 -0.03479995 0.18671917
v 0.05189392 0.02791791 0.18632236
v 0.02065102 0.05618859 0.20567700
v 0.03555864 0.01647428 0.21401577
v 0.00491157 -0.03282765 0.21508930
v 0.04342057 0.03777257 0.20889741
v 0.04494597 -0.03324535 0.18689753
v 0.00542688 0.04350096 0.21101329
v 0.03926338 0.04435609 0.18672246
v 0.03261870 -0.01787717 0.21304128
v 0.04866127 -0.02260102 0.20994014
v 0.02301378 0.05300562 0.20885940
v 0.02048355 -0.03479151 0.21114628
v 0.01984614 0.05367397 0.20928466
v 0.02702823 0.05360130 0.20524721
v 0.04324053 0.04156553 0.20478295
v 0.03628389 -0.01107079 0.21284219
v 0.03667344 0.04474047 0.20871912
v 0.04362926 -0.03255721 0.20873433
v 0.02646904 0.05292842 0.20715689
v 0.03380805 0.04953211 0.20503002
v 0.04761787 -0.02892044 0.20744165
v 0.04665433 -0.02817819 0.20908187
v 0.03333668 0.04874063 0.20735076
f 5 4 6
f 11 5 6
f 6 4 13
f 2 11 6
f 6 13 20
f 25 20 13
f 12 18 4
f 1 18 12
f 9 1 12
f 12 5 9
f 4 5 12
f 16 18 1
f 14 1 9
f 10 2 6
f 28 25 19
f 19 13 4
f 19 25 13
f 11 2 26
f 26 23 11
f 5 11 17
f 11 23 17
f 9 5 17
f 17 23 9
f 6 20 3
f 3 10 6
f 3 25 28
f 20 25 3
f 8 10 1
f 24 16 28
f 28 19 24
f 27 26 2
f 23 26 27
f 22 3 28
f 10 3 22
f 28 16 22
f 22 16 1
f 1 10 22
f 2 10 15
f 10 8 15
f 15 27 2
f 15 14 9
f 9 23 15
f 23 27 15
f 7 24 19
f 4 18 7
f 7 19 4
f 18 16 7
f 16 24 7
f 14 15 21
f 21 15 8
f 1 14 21
f 21 8 1

