# https://github.com/mikedh/trimesh
v 0.10345322 -0.04234421 0.07732733
v 0.11667809 -0.06705038 0.04362465
v 0.10345322 -0.04234421 0.04337813
v 0.03178270 -0.04234421 0.04337813
v 0.03243929 -0.07970682 0.07753618
v 0.10143425 -0.08377857 0.04324176
v 0.03178270 -0.04234421 0.07732733
v 0.03192380 -0.07921718 0.04335973
v 0.10094013 -0.07975563 0.07637101
v 0.06250363 -0.08378024 0.04327407
v 0.10088486 -0.08302054 0.05798159
v 0.05874687 -0.08371463 0.07748729
v 0.03618100 -0.07989697 0.04327311
v 0.09393494 -0.08363124 0.07654081
v 0.09773100 -0.08308584 0.06911817
f 3 1 2
f 5 1 7
f 4 8 7
f 7 8 5
f 2 1 9
f 1 14 9
f 12 1 5
f 12 14 1
f 2 9 11
f 15 9 14
f 14 11 15
f 15 11 9
f 5 8 13
f 13 12 5
f 13 8 4
f 14 12 6
f 6 11 14
f 2 11 6
f 6 3 2
f 4 3 6
f 6 13 4
f 12 13 10
f 10 6 12
f 13 6 10
f 1 3 7
f 7 3 4

