# https://github.com/mikedh/trimesh
v 0.00147742 0.08525199 -0.24703693
v 0.00183801 0.00714247 -0.25996183
v 0.00126707 0.07028441 -0.26565650
v -0.02487361 0.07411951 -0.26680539
v -0.02857142 0.05195910 -0.24707607
v 0.00186134 0.04941127 -0.26525510
v -0.01800165 0.08639648 -0.25738109
v -0.00036342 0.00425181 -0.25910838
v -0.02866122 0.00654359 -0.25928198
v 0.00114239 0.08424792 -0.25412607
v -0.00262564 0.07339592 -0.26541022
v -0.02483583 0.08957693 -0.24707310
v 0.00182238 0.01869299 -0.26213203
v -0.02846151 0.05245946 -0.26451667
v -0.01042856 0.08506172 -0.25704759
v -0.00581466 0.08582038 -0.24700362
v -0.02498487 0.08894795 -0.25440251
v -0.02454920 0.05360736 -0.26515192
f 18 4 6
f 9 8 5
f 12 17 5
f 1 17 12
f 1 5 8
f 14 18 9
f 4 18 14
f 9 5 14
f 14 17 4
f 14 5 17
f 6 1 2
f 2 1 8
f 2 8 9
f 12 5 16
f 16 1 12
f 5 1 16
f 17 1 10
f 13 2 9
f 6 2 13
f 9 18 13
f 13 18 6
f 6 4 3
f 3 1 6
f 3 10 1
f 4 17 7
f 17 10 7
f 11 3 4
f 4 7 11
f 10 3 11
f 15 7 10
f 10 11 15
f 15 11 7

