# https://github.com/mikedh/trimesh
v 0.00531979 -0.03791037 0.21147133
v 0.00519198 -0.05126569 0.21007370
v 0.00681645 -0.05127742 0.17457150
v -0.02380614 -0.04797029 0.17269544
v -0.02258795 -0.03872282 0.21275911
v -0.00907150 -0.05313420 0.20487260
v -0.02756279 -0.04276941 0.17454247
v -0.02187493 -0.03984308 0.21305195
v 0.00482069 -0.05354418 0.20761398
v -0.02010579 -0.05098718 0.17176739
v -0.01908318 -0.03901873 0.21295762
v -0.01589357 -0.04957409 0.20931789
v -0.02254287 -0.04931539 0.20489862
v -0.00206603 -0.05349624 0.17933480
v -0.00556070 -0.05313261 0.20780924
v -0.02317931 -0.04687963 0.20888292
v 0.00514252 -0.05222807 0.17605521
v 0.00508996 -0.05342069 0.17937118
f 1 3 7
f 5 1 7
f 7 3 10
f 3 1 2
f 2 9 3
f 7 10 4
f 13 4 10
f 7 4 13
f 1 5 11
f 11 2 1
f 3 9 18
f 9 14 18
f 6 13 10
f 6 14 9
f 10 14 6
f 8 11 5
f 2 11 8
f 17 10 3
f 3 18 17
f 17 14 10
f 17 18 14
f 9 2 15
f 15 6 9
f 13 6 15
f 13 15 12
f 2 8 12
f 12 15 2
f 13 12 16
f 16 12 8
f 16 8 5
f 16 5 7
f 7 13 16

