# https://github.com/mikedh/trimesh
v 0.00532852 -0.05658948 0.17085225
v 0.00520978 -0.05832862 0.16897567
v 0.00537777 -0.05743274 0.11127652
v -0.02788596 -0.06444035 0.11101923
v -0.05730824 -0.05588735 0.14020228
v 0.00653055 -0.08110052 0.13241162
v -0.01651872 -0.05505756 0.16942571
v -0.05769624 -0.05533373 0.13512239
v 0.00640481 -0.07638948 0.11150230
v 0.00520413 -0.07643281 0.14640166
v -0.00895072 -0.06458917 0.16057469
v -0.01951920 -0.07554478 0.14079356
v -0.03813659 -0.05502858 0.15790149
v 0.00517007 -0.06842154 0.15696801
v -0.01592146 -0.05690304 0.16763717
v -0.04196395 -0.06427543 0.13759943
v 0.00528766 -0.08097793 0.13959052
v -0.00443340 -0.07946392 0.13637730
v -0.01923774 -0.06805866 0.11137110
v -0.03374680 -0.06808541 0.14587548
v -0.00181967 -0.06837863 0.15695537
v -0.05642767 -0.05660603 0.13626736
v -0.00530298 -0.07948380 0.14036576
v -0.02373951 -0.06625342 0.11136558
v -0.01918479 -0.07536606 0.13962188
v 0.00290485 -0.07541532 0.11156213
v -0.04075256 -0.06427024 0.14580047
v -0.01235705 -0.07542621 0.14602076
v -0.03033936 -0.06421574 0.15275403
v -0.05558256 -0.05722056 0.14034530
v -0.01961138 -0.06823793 0.15299339
v -0.03712149 -0.05711114 0.15648286
f 3 4 8
f 4 3 9
f 9 1 6
f 9 3 1
f 8 4 22
f 16 22 4
f 12 28 20
f 20 16 12
f 12 16 4
f 30 16 20
f 22 16 30
f 18 9 6
f 18 26 9
f 23 17 28
f 28 12 23
f 12 18 23
f 6 17 23
f 23 18 6
f 4 9 19
f 9 26 19
f 26 18 19
f 20 28 31
f 5 13 8
f 5 30 13
f 8 22 5
f 22 30 5
f 6 1 14
f 28 17 10
f 10 21 28
f 10 14 21
f 10 17 6
f 6 14 10
f 2 14 1
f 21 14 2
f 28 21 11
f 11 31 28
f 15 31 11
f 21 2 11
f 1 15 11
f 11 2 1
f 24 12 4
f 4 19 24
f 24 19 12
f 25 18 12
f 12 19 25
f 25 19 18
f 13 32 7
f 7 15 1
f 1 3 7
f 7 3 8
f 8 13 7
f 13 30 27
f 27 32 13
f 27 30 20
f 20 31 29
f 29 7 32
f 29 31 15
f 15 7 29
f 29 27 20
f 32 27 29

