# https://github.com/mikedh/trimesh
v -0.02479929 0.00669351 0.17540277
v -0.02756279 -0.04276941 0.17454247
v -0.02479929 -0.03857208 0.14522571
v -0.02479929 0.00669351 0.14522571
v -0.07008320 0.00767684 0.15488266
v -0.05329550 0.00659180 0.17660611
v -0.06237079 -0.04132168 0.14855824
v -0.05470486 -0.02183961 0.16782651
v -0.04142032 -0.03666483 0.17127373
v -0.05111987 -0.03563470 0.16369319
v -0.04758964 -0.02905067 0.17094843
v -0.05478320 -0.03579532 0.16002823
v -0.05193874 -0.01861803 0.17120647
f 1 2 3
f 7 3 2
f 6 1 5
f 6 2 1
f 5 1 4
f 1 3 4
f 4 7 5
f 3 7 4
f 2 6 11
f 9 7 2
f 2 11 9
f 5 7 8
f 8 6 5
f 7 9 10
f 10 9 11
f 13 11 6
f 6 8 13
f 13 8 11
f 11 8 12
f 12 10 11
f 12 8 7
f 7 10 12

