# https://github.com/mikedh/trimesh
v -0.04365995 -0.03102781 0.00188468
v -0.04225741 -0.05494408 0.00186327
v -0.04365995 -0.03102781 -0.13013996
v -0.06351732 -0.04766591 -0.16013206
v -0.06766325 -0.03969372 0.00164755
v -0.04342938 -0.05699193 -0.13016727
v -0.06105287 -0.04366254 0.00180967
v -0.06927085 -0.04197879 -0.12965276
v -0.05464680 -0.05311058 -0.16038052
v -0.06021759 -0.04981676 -0.16076077
v -0.04498197 -0.05333109 0.00185758
f 3 1 2
f 2 6 3
f 5 3 8
f 1 3 5
f 9 6 2
f 9 3 6
f 1 5 7
f 4 5 8
f 8 3 4
f 2 1 11
f 1 7 11
f 11 9 2
f 11 7 5
f 10 11 5
f 9 11 10
f 5 4 10
f 3 9 10
f 10 4 3

