# https://github.com/mikedh/trimesh
v -0.06252062 -0.01593928 0.00188468
v -0.06105287 -0.04366254 0.00180967
v -0.06222706 -0.04562260 -0.11507241
v -0.07410069 -0.03899403 -0.13012670
v -0.07437463 -0.03569399 0.00187777
v -0.06529148 -0.04445525 -0.13021401
v -0.06252062 -0.01593928 -0.06224158
v -0.07272482 -0.03669790 0.00193596
v -0.07241861 -0.04005802 -0.13023013
v -0.07383701 -0.01593928 0.00188468
v -0.07132829 -0.03774716 -0.00575188
v -0.06801070 -0.04278382 -0.13028823
v -0.07383701 -0.01593928 -0.06224158
f 2 1 8
f 10 13 5
f 5 8 10
f 10 8 1
f 5 13 4
f 6 3 2
f 5 12 6
f 9 12 5
f 5 4 9
f 2 8 11
f 11 6 2
f 11 8 5
f 5 6 11
f 7 6 12
f 12 9 7
f 7 4 13
f 7 9 4
f 3 6 7
f 7 1 2
f 2 3 7
f 13 10 7
f 7 10 1

