# https://github.com/mikedh/trimesh
v 0.02423843 -0.06874914 -0.19803835
v 0.02433281 -0.08709785 -0.19810791
v 0.01582931 -0.07040910 -0.26721112
v 0.00077501 -0.07053522 -0.26606538
v -0.00206010 -0.08088180 -0.19664005
v 0.01693822 -0.08643032 -0.25461471
v 0.02423843 -0.06874914 -0.23198754
v 0.00209190 -0.08448652 -0.25369991
v 0.02503414 -0.08930809 -0.23206236
v -0.00447488 -0.08291369 -0.21990426
v 0.02488381 -0.08779149 -0.20236393
v -0.00357578 -0.08095779 -0.20127291
v -0.00116048 -0.08412069 -0.22111263
v 0.00641884 -0.08343900 -0.19852937
v 0.01396200 -0.08661936 -0.20996963
v 0.00275402 -0.08297697 -0.20237280
v 0.02122708 -0.08714945 -0.20246290
v 0.00203674 -0.08226704 -0.19823781
v -0.00078150 -0.08289144 -0.20989083
f 7 1 9
f 9 3 7
f 5 2 1
f 9 1 11
f 1 2 11
f 11 15 9
f 4 8 10
f 1 7 4
f 4 7 3
f 6 3 9
f 9 8 6
f 6 4 3
f 8 4 6
f 9 15 13
f 10 8 13
f 13 8 9
f 2 5 14
f 17 11 2
f 15 11 17
f 2 14 17
f 17 14 15
f 12 5 1
f 1 4 12
f 12 4 10
f 16 13 15
f 15 14 16
f 13 16 19
f 5 12 19
f 10 13 19
f 19 12 10
f 18 14 5
f 18 16 14
f 5 19 18
f 18 19 16

