# https://github.com/mikedh/trimesh
v 0.08626748 -0.04322585 0.13203201
v 0.09974425 -0.06625277 0.10120246
v 0.10345322 -0.04234421 0.07732733
v 0.08459255 -0.04234421 0.07732733
v 0.08310470 -0.08378098 0.09515267
v 0.10007938 -0.04075006 0.11957076
v 0.08237777 -0.06330821 0.12394637
v 0.10094013 -0.07975563 0.07637101
v 0.09081373 -0.04164188 0.12873228
v 0.08568463 -0.07631758 0.10883632
v 0.08288702 -0.05623471 0.12816867
v 0.09185909 -0.06218542 0.11514833
v 0.08441557 -0.08578867 0.07721717
v 0.08290917 -0.07771139 0.10974380
v 0.09940729 -0.07348445 0.09373743
v 0.09291080 -0.07904839 0.09432798
v 0.08823861 -0.05136865 0.12609764
v 0.09919593 -0.05496491 0.11171084
v 0.09249548 -0.07574546 0.10152855
v 0.08478335 -0.06227854 0.12245401
v 0.09393494 -0.08363124 0.07654081
v 0.10038802 -0.07923047 0.07972841
v 0.08641151 -0.08258353 0.09482888
v 0.08525156 -0.05520488 0.12674009
v 0.09537715 -0.05122364 0.11893555
v 0.09535647 -0.06575828 0.10784259
v 0.09528184 -0.07283500 0.10084782
v 0.09366853 -0.08300825 0.08005561
v 0.09920769 -0.04402270 0.11877319
f 3 8 4
f 6 8 3
f 3 4 6
f 5 4 13
f 7 4 5
f 5 14 7
f 8 6 2
f 11 4 7
f 11 1 4
f 9 6 4
f 4 1 9
f 21 5 13
f 21 4 8
f 13 4 21
f 18 2 6
f 2 18 26
f 17 9 1
f 14 5 23
f 23 16 14
f 14 16 19
f 7 20 24
f 24 11 7
f 1 11 24
f 24 17 1
f 29 18 6
f 6 9 29
f 25 24 20
f 17 24 25
f 18 29 25
f 9 17 25
f 25 29 9
f 5 21 28
f 28 23 5
f 28 21 8
f 16 23 28
f 2 26 27
f 26 19 27
f 15 19 16
f 15 27 19
f 8 2 15
f 2 27 15
f 14 19 10
f 7 14 10
f 10 20 7
f 10 19 26
f 22 28 8
f 16 28 22
f 8 15 22
f 22 15 16
f 20 10 12
f 12 10 26
f 12 25 20
f 12 26 18
f 18 25 12

