# https://github.com/mikedh/trimesh
v 0.12100057 -0.00123909 -0.12283198
v 0.12899334 -0.02248377 -0.15392777
v 0.12974634 -0.00628920 -0.16075557
v 0.11671129 0.00973803 -0.16054140
v 0.11167523 -0.04819541 -0.12849025
v 0.11916907 -0.05168750 -0.15763876
v 0.11885571 0.00634966 -0.12908375
v 0.12883800 -0.00917355 -0.15005410
v 0.12113823 -0.01196202 -0.12296044
v 0.12970167 -0.02602212 -0.16106456
v 0.12106689 -0.04043398 -0.14662609
v 0.12181517 0.00096085 -0.13092510
v 0.12769609 -0.00207206 -0.16052478
v 0.12916619 -0.01569823 -0.15014100
v 0.12280076 -0.04484598 -0.16103675
v 0.11745925 -0.04409283 -0.13934481
v 0.12480747 -0.03296755 -0.15034315
v 0.12053957 0.00210900 -0.12667491
v 0.12918286 -0.00612287 -0.15724354
v 0.12126864 0.00071572 -0.12720159
v 0.12107402 0.00235222 -0.13036789
v 0.12140415 -0.00223516 -0.12343803
v 0.12552088 -0.01878626 -0.13913321
v 0.12579630 -0.03698684 -0.16116869
v 0.12142058 -0.04431229 -0.15379485
v 0.12111683 -0.02583979 -0.13195062
v 0.12899170 -0.02575344 -0.15764487
v 0.12495881 -0.02578045 -0.14305692
v 0.12156242 -0.01137786 -0.12399915
v 0.12513515 -0.03672881 -0.15753518
v 0.11746324 -0.03688850 -0.13189953
v 0.11451656 -0.04445560 -0.13164711
f 5 4 6
f 7 4 5
f 5 1 7
f 15 6 4
f 3 4 13
f 4 7 13
f 24 15 4
f 18 7 1
f 10 4 3
f 10 24 4
f 6 15 25
f 20 18 1
f 12 18 20
f 7 18 21
f 21 18 12
f 21 13 7
f 14 10 3
f 24 10 30
f 15 24 30
f 30 25 15
f 8 14 3
f 8 20 1
f 22 8 1
f 14 8 22
f 19 8 3
f 20 8 19
f 12 20 19
f 19 21 12
f 3 13 19
f 13 21 19
f 10 14 2
f 6 25 16
f 5 6 16
f 16 32 5
f 11 16 25
f 28 16 11
f 9 1 5
f 9 22 1
f 32 16 31
f 31 16 28
f 5 32 31
f 31 9 5
f 17 2 28
f 28 11 17
f 17 30 10
f 25 30 17
f 17 11 25
f 23 2 14
f 28 2 23
f 14 22 29
f 22 9 29
f 29 23 14
f 9 23 29
f 10 2 27
f 27 17 10
f 2 17 27
f 9 31 26
f 26 23 9
f 26 31 28
f 28 23 26

