# https://github.com/mikedh/trimesh
v 0.13067018 -0.02069158 -0.15919258
v 0.13381991 -0.01974794 -0.17537626
v 0.10722535 -0.01971142 -0.24707607
v 0.11370328 -0.04828262 -0.25816150
v 0.11916907 -0.05168750 -0.15763876
v 0.13273315 -0.01955696 -0.24686874
v 0.10722535 -0.01971142 -0.16031702
v 0.12985579 -0.02963782 -0.16850288
v 0.12545513 -0.04425646 -0.24226067
v 0.12808370 -0.03040135 -0.16066933
v 0.12405516 -0.04519705 -0.24640464
v 0.12534221 -0.04429189 -0.17586808
v 0.12902824 -0.03695320 -0.23908629
v 0.12280076 -0.04484598 -0.16103675
v 0.12593119 -0.04078140 -0.24618625
v 0.12902798 -0.03671197 -0.18325211
v 0.12579630 -0.03698684 -0.16116869
v 0.12513266 -0.04056795 -0.16479182
v 0.12896919 -0.03314125 -0.24563596
v 0.12866290 -0.03297067 -0.16870565
f 3 4 7
f 7 4 5
f 6 4 3
f 3 7 6
f 6 7 2
f 2 7 1
f 1 7 5
f 10 1 5
f 5 4 11
f 11 9 5
f 5 9 12
f 13 6 2
f 13 12 9
f 17 10 5
f 2 1 8
f 1 10 8
f 8 17 20
f 10 17 8
f 9 11 15
f 15 13 9
f 4 6 15
f 15 11 4
f 5 12 14
f 14 17 5
f 20 12 16
f 16 8 20
f 2 8 16
f 16 13 2
f 12 13 16
f 6 13 19
f 19 15 6
f 13 15 19
f 20 17 18
f 17 14 18
f 18 12 20
f 18 14 12

