# https://github.com/mikedh/trimesh
v 0.00536273 0.06658411 0.16371436
v 0.00528832 0.06806342 0.16187419
v -0.04245294 0.08117494 0.13457206
v -0.07601200 0.08313253 0.10976011
v 0.00898968 0.07757773 0.11050861
v -0.07174698 0.06521699 0.13114229
v -0.01271110 0.07394396 0.15294843
v 0.00527874 0.08240383 0.14279186
v -0.06353231 0.07516436 0.12999471
v -0.07970693 0.06561209 0.12441873
v -0.02740476 0.06466043 0.15817967
v 0.00528003 0.07450422 0.15372093
v -0.02034320 0.08521137 0.13503372
v -0.06386494 0.08131292 0.12321345
v -0.08558018 0.07017841 0.11504077
v -0.07408409 0.07478224 0.12225874
v -0.01666891 0.06508145 0.16239480
v -0.03459696 0.06459656 0.15412943
v -0.05315313 0.07787385 0.13374888
v -0.02384464 0.07760820 0.14552665
v -0.01658898 0.08136405 0.14217366
v 0.00116120 0.08562895 0.13677944
v -0.06889341 0.08597057 0.10999914
v -0.08016623 0.08044776 0.11013769
v -0.07083550 0.06808497 0.12993333
v -0.07768993 0.07501865 0.11882498
v -0.07447372 0.07794976 0.11894496
v -0.01605413 0.06679122 0.16062048
v -0.05633882 0.07150335 0.13692631
v -0.03469227 0.07792037 0.14148397
v -0.03125951 0.08134630 0.13819874
v 0.00423642 0.08340194 0.13260172
v -0.06818080 0.08514231 0.11292737
v -0.02170519 0.08522794 0.11159145
v -0.07865905 0.06848580 0.12320064
v -0.07822440 0.07784332 0.11553882
v -0.07530860 0.08190003 0.11263829
v -0.05998737 0.06808906 0.13713692
v -0.04274672 0.08489527 0.12788710
v -0.00688776 0.08218994 0.11141387
v -0.06083540 0.06519182 0.13845217
v -0.06457892 0.08475111 0.11661354
v 0.00449964 0.07909001 0.11139482
f 24 5 15
f 15 5 10
f 5 1 10
f 5 23 34
f 23 22 34
f 5 22 32
f 12 1 5
f 4 23 5
f 5 24 4
f 15 10 35
f 5 34 40
f 40 34 22
f 1 12 2
f 8 32 22
f 5 32 8
f 8 12 5
f 43 22 5
f 5 40 43
f 43 40 22
f 12 8 7
f 7 2 12
f 1 2 7
f 7 28 1
f 23 4 33
f 13 22 23
f 37 4 24
f 37 33 4
f 14 33 37
f 17 11 1
f 1 28 17
f 19 11 17
f 3 14 19
f 36 24 15
f 19 14 9
f 38 41 18
f 18 10 1
f 1 11 18
f 28 7 20
f 20 17 28
f 14 3 39
f 39 13 23
f 26 36 15
f 15 35 26
f 35 16 26
f 27 9 14
f 16 9 27
f 14 37 27
f 27 26 16
f 36 26 27
f 27 37 24
f 24 36 27
f 25 35 10
f 25 16 35
f 25 9 16
f 25 41 38
f 38 9 25
f 29 9 38
f 38 18 29
f 29 18 11
f 29 11 19
f 19 9 29
f 13 39 31
f 31 39 3
f 17 20 30
f 19 17 30
f 30 3 19
f 30 31 3
f 20 31 30
f 23 33 42
f 42 39 23
f 42 33 14
f 14 39 42
f 6 25 10
f 41 25 6
f 10 18 6
f 6 18 41
f 13 31 21
f 21 31 20
f 21 20 7
f 21 7 8
f 21 8 22
f 22 13 21

