# https://github.com/mikedh/trimesh
v -0.09778653 0.08855639 -0.17405891
v -0.09269768 0.05195910 -0.17540555
v -0.09269768 0.07459190 -0.19803835
v -0.11184570 0.07666403 -0.19799688
v -0.11995921 0.05587181 -0.17431945
v -0.12403745 0.05079383 -0.19810257
v -0.11021966 0.07591010 -0.17504321
v -0.09269768 0.05195910 -0.19803835
v -0.11911355 0.06154267 -0.19815832
v -0.12340378 0.05054636 -0.18329673
v -0.12263580 0.05391858 -0.19813072
v -0.11845132 0.06123011 -0.18335793
v -0.11415517 0.06831726 -0.17505483
f 3 1 2
f 8 3 2
f 8 10 6
f 2 10 8
f 1 3 4
f 4 7 1
f 5 10 2
f 2 1 5
f 1 7 5
f 9 4 3
f 3 8 9
f 10 5 12
f 12 9 10
f 4 9 12
f 6 10 11
f 10 9 11
f 11 8 6
f 11 9 8
f 7 4 13
f 4 12 13
f 13 5 7
f 13 12 5

