# https://github.com/mikedh/trimesh
v -0.08809350 -0.02953063 -0.06228602
v -0.09096860 -0.02793152 -0.06231030
v -0.08826344 -0.02986224 -0.09243882
v -0.10164365 -0.02199613 -0.10757191
v -0.10169012 -0.02184152 -0.06219959
v -0.09105934 -0.02821141 -0.10746865
v -0.09397036 -0.02651007 -0.07362875
v -0.09290824 -0.02684332 -0.06208329
v -0.09307708 -0.02717495 -0.09247806
v -0.09826891 -0.02385000 -0.06240371
v -0.09835579 -0.02399621 -0.10745407
v -0.09597350 -0.02537240 -0.10759939
f 5 1 4
f 7 3 1
f 1 3 6
f 6 4 1
f 12 4 6
f 5 7 10
f 3 7 9
f 9 6 3
f 12 6 9
f 5 4 9
f 9 7 5
f 8 10 7
f 8 1 5
f 5 10 8
f 11 4 12
f 12 9 11
f 11 9 4
f 2 7 1
f 1 8 2
f 2 8 7

