# https://github.com/mikedh/trimesh
v -0.10175313 0.03598992 0.11835883
v -0.09269768 0.01046564 0.11127652
v -0.09269768 0.03309844 0.05846666
v -0.12892096 0.03270568 0.05825551
v -0.11553482 0.01042038 0.10550483
v -0.11302689 0.01043285 0.10998936
v -0.12162126 0.03187286 0.08650157
v -0.09269768 0.01046564 0.05846666
v -0.12625925 0.03216640 0.07251316
v -0.11112228 0.02819666 0.10862297
v -0.12806859 0.01155628 0.05824518
v -0.12591995 0.02166229 0.07987535
v -0.11451823 0.03184882 0.10124607
v -0.11425018 0.02461070 0.10469174
v -0.10778621 0.01046564 0.05846666
v -0.12605940 0.02842349 0.07614475
v -0.12186708 0.01171186 0.09098843
v -0.12596464 0.01805323 0.07984699
v -0.10925476 0.03248916 0.10967831
v -0.12227428 0.02091414 0.09047160
v -0.12554834 0.01167109 0.07647136
f 3 11 4
f 4 1 3
f 3 1 2
f 4 11 18
f 6 5 2
f 2 1 6
f 8 3 2
f 11 3 8
f 2 5 8
f 11 5 21
f 21 18 11
f 4 18 12
f 15 5 11
f 11 8 15
f 15 8 5
f 17 21 5
f 18 21 17
f 9 1 4
f 20 12 18
f 18 17 20
f 20 17 5
f 1 13 19
f 5 6 14
f 14 20 5
f 13 20 14
f 7 20 13
f 1 9 7
f 7 13 1
f 10 19 13
f 13 14 10
f 10 14 6
f 10 6 1
f 1 19 10
f 12 20 16
f 20 7 16
f 16 7 9
f 4 12 16
f 16 9 4

