# https://github.com/mikedh/trimesh
v -0.01367631 0.08125352 0.06226819
v -0.01348289 0.05195910 0.06223880
v -0.01348289 0.05195910 0.02451747
v -0.03995139 0.08553732 0.02454552
v -0.03988782 0.05195910 0.06223880
v -0.01380225 0.08066056 0.02454461
v -0.01814296 0.08228222 0.06266985
v -0.03988782 0.05195910 0.02451747
v -0.01805487 0.08171602 0.02425256
v -0.03994723 0.08553807 0.06227556
f 4 7 9
f 2 7 5
f 1 7 2
f 1 9 7
f 10 7 4
f 4 5 10
f 10 5 7
f 4 9 8
f 8 5 4
f 3 8 9
f 3 1 2
f 9 1 6
f 6 3 9
f 1 3 6
f 5 8 3
f 2 5 3

