# https://github.com/mikedh/trimesh
v -0.10024194 0.03687057 -0.22821541
v -0.10024194 0.00669351 -0.22821541
v -0.10025004 0.00665948 -0.26573949
v -0.11450334 0.02824622 -0.26145542
v -0.12799496 0.04191030 -0.22866251
v -0.10019074 0.03682602 -0.26153841
v -0.12285200 -0.00104985 -0.22839604
v -0.11502112 0.00671959 -0.26465602
v -0.11450029 0.03620783 -0.25951907
v -0.10008840 0.03249584 -0.26196708
v -0.10754890 0.03244039 -0.26164499
f 5 7 1
f 8 7 5
f 5 1 6
f 6 1 10
f 3 6 10
f 7 8 3
f 5 6 9
f 2 1 7
f 7 3 2
f 10 1 2
f 2 3 10
f 4 8 5
f 5 9 4
f 11 9 6
f 11 4 9
f 8 4 11
f 11 3 8
f 6 3 11

