# https://github.com/mikedh/trimesh
v 0.10772372 0.01852045 -0.10387135
v 0.11850891 -0.03347931 -0.13152022
v 0.11806644 0.00783603 -0.13052569
v 0.09869214 0.02409079 -0.13012357
v 0.10433063 -0.04841426 -0.10277422
v 0.10782943 0.01748744 -0.12999688
v 0.11794157 -0.00771019 -0.10849204
v 0.09907799 0.02460194 -0.10371504
v 0.10969567 -0.05079534 -0.12642724
v 0.10115442 0.02233668 -0.13001353
v 0.11458409 0.00897351 -0.10412674
v 0.11560922 -0.01535113 -0.10434375
v 0.10158699 0.02287154 -0.10364540
v 0.11451656 -0.04445560 -0.13164711
v 0.11761375 0.00160439 -0.10831754
v 0.11407745 0.01128356 -0.11172939
v 0.10663476 -0.04420167 -0.10453858
v 0.11757960 -0.01520539 -0.11261317
v 0.11770498 0.00526669 -0.11592373
v 0.11782026 0.00768362 -0.12677592
f 4 5 8
f 3 2 4
f 9 5 4
f 5 9 14
f 4 2 14
f 14 9 4
f 4 8 13
f 13 1 4
f 13 8 5
f 5 1 13
f 6 3 4
f 6 1 3
f 2 3 7
f 4 1 10
f 10 6 4
f 1 6 10
f 17 14 2
f 5 14 17
f 5 17 12
f 12 17 2
f 15 7 3
f 15 12 7
f 2 7 18
f 18 12 2
f 7 12 18
f 3 1 16
f 12 15 11
f 11 1 5
f 5 12 11
f 11 16 1
f 19 15 3
f 19 11 15
f 3 16 20
f 16 11 20
f 20 19 3
f 11 19 20

