# https://github.com/mikedh/trimesh
v -0.05874848 0.01046564 0.08864372
v -0.05874848 -0.01593928 0.08864372
v -0.06252062 0.01046564 -0.06224158
v -0.09269768 0.01046564 -0.06224158
v -0.09616867 -0.02054286 0.08840698
v -0.05874848 0.01046564 0.00188468
v -0.09269768 0.01046564 0.08864372
v -0.09751745 -0.02425877 -0.06184551
v -0.06252062 -0.01593928 -0.06224158
v -0.05874848 -0.01593928 0.00188468
f 7 2 1
f 8 7 4
f 3 9 4
f 4 9 8
f 8 2 5
f 5 7 8
f 2 7 5
f 10 2 8
f 8 9 10
f 3 4 6
f 6 7 1
f 6 4 7
f 10 6 1
f 1 2 10
f 3 6 10
f 10 9 3

