# https://github.com/mikedh/trimesh
v -0.02393767 -0.06671751 0.12638359
v -0.02713159 -0.06536290 0.12639438
v -0.02465363 -0.06463690 0.08866444
v -0.03685331 -0.05884285 0.08857607
v -0.04062798 -0.05896152 0.12631931
v -0.02337562 -0.06542511 0.09261833
v -0.03914321 -0.05968876 0.12639703
v -0.02780763 -0.06328021 0.08872582
v -0.03461182 -0.06191495 0.12642965
v -0.02801173 -0.06498783 0.12629961
v -0.02737543 -0.06344759 0.08827735
v -0.03883937 -0.05923773 0.11136098
v -0.02646664 -0.06407331 0.09264208
v -0.03383386 -0.06043453 0.08889283
v -0.04040283 -0.05839902 0.11123503
f 5 1 4
f 4 1 6
f 7 1 5
f 5 9 7
f 7 9 1
f 6 1 10
f 5 4 15
f 3 4 6
f 1 9 2
f 2 10 1
f 9 10 2
f 12 10 9
f 12 8 10
f 14 8 12
f 12 9 5
f 5 15 12
f 12 4 14
f 12 15 4
f 6 10 13
f 10 8 13
f 11 3 6
f 6 13 11
f 11 13 8
f 4 3 11
f 14 4 11
f 11 8 14

