# https://github.com/mikedh/trimesh
v -0.03207030 0.00805728 0.21870490
v -0.02274378 -0.02500981 0.21407215
v -0.03181693 0.02149441 0.21225190
v -0.03992329 0.02177479 0.21102247
v -0.03992988 -0.01972129 0.21124283
v -0.03050291 0.01703364 0.21585702
v -0.02876174 -0.03102854 0.21170814
v -0.02472695 -0.03093760 0.21186919
v -0.02494256 -0.03120649 0.21183743
v -0.03298139 0.02203600 0.21153506
v -0.02845902 -0.03102738 0.21173259
v -0.03985965 0.02178781 0.21102135
f 5 1 4
f 6 1 2
f 6 4 1
f 5 9 7
f 7 1 5
f 2 1 7
f 2 9 8
f 8 9 10
f 10 9 12
f 4 6 12
f 5 4 12
f 12 9 5
f 3 6 2
f 2 8 3
f 3 8 10
f 10 12 3
f 3 12 6
f 11 9 2
f 2 7 11
f 11 7 9

