# https://github.com/mikedh/trimesh
v 0.07327616 -0.00085075 -0.13013996
v 0.07327616 -0.04611634 -0.13013996
v 0.07332357 -0.00830467 -0.26154438
v 0.00171390 -0.00060381 -0.25867912
v 0.00160564 -0.00085075 -0.13013996
v 0.01640176 -0.04683385 -0.26288152
v 0.06573232 -0.00084955 -0.26215545
v 0.07359634 -0.04656203 -0.26056366
v 0.00160564 -0.04611634 -0.22821541
v 0.07103432 -0.00393931 -0.26209045
v 0.00217663 -0.04432768 -0.26345352
v 0.02378477 -0.04710891 -0.26217930
v 0.00136279 -0.03139106 -0.26199393
v 0.00160564 -0.04611634 -0.13013996
v 0.00138394 -0.03513157 -0.26233724
f 7 4 1
f 13 4 11
f 4 7 11
f 8 1 2
f 1 4 5
f 5 4 13
f 13 14 5
f 3 1 8
f 15 14 13
f 13 11 15
f 12 2 14
f 8 2 12
f 10 11 7
f 10 3 8
f 10 7 1
f 1 3 10
f 14 15 9
f 9 15 11
f 6 9 11
f 8 12 6
f 6 12 14
f 14 9 6
f 6 10 8
f 11 10 6
f 14 2 5
f 5 2 1

