# https://github.com/mikedh/trimesh
v 0.03932696 -0.04611634 -0.13013996
v 0.04000801 -0.08439010 -0.13013000
v 0.03932696 -0.04611634 -0.19803835
v 0.00160564 -0.04611634 -0.19803835
v 0.00160564 -0.04611634 -0.13013996
v 0.03765849 -0.08897050 -0.19638473
v 0.03935373 -0.08743327 -0.18297283
v 0.00641884 -0.08343900 -0.19852937
v 0.02433281 -0.08709785 -0.19810791
v 0.00203674 -0.08226704 -0.19823781
v 0.01758241 -0.07982310 -0.13019662
v 0.00278360 -0.07608612 -0.13031941
f 2 1 5
f 3 1 2
f 2 6 7
f 7 3 2
f 6 3 7
f 4 3 8
f 2 5 11
f 5 12 11
f 12 8 11
f 9 6 2
f 2 11 9
f 9 11 8
f 9 3 6
f 9 8 3
f 4 8 10
f 10 8 12
f 10 5 4
f 10 12 5
f 3 5 1
f 4 5 3

