# https://github.com/mikedh/trimesh
v -0.03974540 -0.03845106 0.17135487
v -0.03780933 -0.04371120 0.16883466
v -0.03988782 -0.03857208 0.11127652
v -0.06302470 -0.04513081 0.11054083
v -0.05611139 -0.05491833 0.14276955
v -0.05632703 -0.03687206 0.15780563
v -0.03883937 -0.05923773 0.11136098
v -0.04485470 -0.03663261 0.16874302
v -0.05775901 -0.05431321 0.13371273
v -0.04030993 -0.06248202 0.13565701
v -0.04411241 -0.03905359 0.16770947
v -0.04763170 -0.06162018 0.13745141
v -0.03813659 -0.05502858 0.15790149
v -0.04112005 -0.05394586 0.15681490
v -0.05530163 -0.03983373 0.15676136
v -0.04177820 -0.05767427 0.11142811
v -0.04045508 -0.04280864 0.16754327
v -0.03818076 -0.05125008 0.16162096
f 7 3 2
f 4 3 7
f 7 16 4
f 2 3 1
f 1 3 8
f 6 3 4
f 8 3 6
f 13 7 2
f 10 7 13
f 2 1 11
f 11 1 8
f 10 13 12
f 12 13 5
f 12 7 10
f 16 7 12
f 4 16 12
f 5 13 14
f 15 6 5
f 5 11 15
f 8 6 15
f 15 11 8
f 4 12 9
f 9 12 5
f 9 6 4
f 5 6 9
f 18 13 2
f 2 14 18
f 18 14 13
f 17 11 5
f 5 14 17
f 2 11 17
f 17 14 2

