# https://github.com/mikedh/trimesh
v 0.11259708 0.01659217 -0.23206254
v 0.12067672 0.00387168 -0.23190113
v 0.11223330 0.00829977 -0.26190578
v 0.05046604 0.04389690 -0.26634569
v 0.05064336 -0.00085075 -0.23198754
v 0.06599685 0.05572480 -0.25345558
v 0.10736003 0.02158197 -0.25351587
v 0.06595184 0.05596288 -0.23136701
v 0.11425838 -0.00116811 -0.26461051
v 0.07133217 0.04546551 -0.26221607
v 0.11056095 0.01477544 -0.25845603
v 0.08864448 0.04032292 -0.23598601
v 0.05186722 0.06306485 -0.25496649
v 0.05065554 -0.00038326 -0.26178203
v 0.08679782 0.02754052 -0.26490696
v 0.08829602 0.04038073 -0.25294511
v 0.08241157 0.04388669 -0.23194295
v 0.10821957 0.02109125 -0.23211880
v 0.05216218 0.06354339 -0.23264063
v 0.06482925 0.04278456 -0.26535751
v 0.07396390 0.04755276 -0.25870522
v 0.11057584 -0.00115929 -0.26580854
v 0.10539835 0.00897374 -0.26500862
v 0.10015974 0.02211775 -0.26164181
v 0.09210945 0.03315031 -0.25878809
v 0.07219002 0.03913091 -0.26500165
v 0.05147966 0.01914684 -0.26487934
v 0.10954623 0.00180532 -0.26558760
v 0.10379521 0.01860017 -0.26166722
v 0.07829755 0.04116902 -0.26164064
v 0.07808300 0.00062092 -0.26478065
f 2 8 5
f 5 9 2
f 4 5 19
f 19 5 8
f 14 5 4
f 6 19 8
f 8 12 6
f 9 5 22
f 5 14 22
f 14 31 22
f 22 31 4
f 17 12 8
f 4 19 13
f 19 6 13
f 13 6 21
f 27 14 4
f 4 31 27
f 27 31 14
f 20 22 4
f 4 13 20
f 21 6 16
f 16 6 12
f 2 9 3
f 9 23 3
f 3 23 29
f 26 30 15
f 29 23 15
f 15 20 26
f 26 20 10
f 10 30 26
f 21 30 10
f 10 13 21
f 10 20 13
f 25 30 21
f 21 16 25
f 1 8 2
f 7 25 16
f 7 16 12
f 7 1 2
f 29 15 24
f 24 15 30
f 24 25 29
f 30 25 24
f 28 15 23
f 9 22 28
f 28 23 9
f 22 20 28
f 20 15 28
f 11 3 29
f 29 25 11
f 25 7 11
f 2 3 11
f 11 7 2
f 18 7 12
f 1 7 18
f 12 17 18
f 18 17 8
f 8 1 18

