# https://github.com/mikedh/trimesh
v 0.03555483 -0.04611634 -0.05846944
v 0.03569733 -0.08326355 -0.05848157
v 0.03555483 -0.04611634 -0.13013996
v 0.00160564 -0.04611634 -0.13013996
v 0.00015265 -0.07383559 -0.05845538
v 0.03561047 -0.08352179 -0.13014360
v 0.00160564 -0.04611634 -0.05846944
v 0.01758241 -0.07982310 -0.13019662
v -0.00039730 -0.07508646 -0.12989280
v 0.01355305 -0.07768280 -0.05849115
v 0.02151838 -0.07975651 -0.05853563
f 3 1 2
f 2 6 3
f 2 1 5
f 8 6 2
f 8 3 6
f 10 5 9
f 2 5 10
f 9 8 10
f 7 5 1
f 9 5 7
f 4 8 9
f 3 8 4
f 9 7 4
f 11 8 2
f 2 10 11
f 11 10 8
f 4 7 1
f 1 3 4

