# https://github.com/mikedh/trimesh
v 0.07530872 -0.09024803 -0.24722357
v 0.08637802 -0.08623681 -0.25992665
v 0.08449803 -0.07965589 -0.26479941
v 0.05818445 -0.07993517 -0.26558398
v 0.05835729 -0.09091272 -0.25634252
v 0.05817176 -0.08567949 -0.26273071
v 0.08448939 -0.08914848 -0.25429615
v 0.05521761 -0.09161967 -0.24718296
v 0.08382242 -0.08471780 -0.26211755
v 0.06886926 -0.09058546 -0.25643409
v 0.08412738 -0.08733002 -0.25936128
v 0.05880821 -0.09256746 -0.24693432
v 0.07208215 -0.09049896 -0.25422591
v 0.07235693 -0.09085729 -0.24698203
f 1 4 8
f 1 3 4
f 2 3 7
f 3 1 7
f 4 3 6
f 8 4 6
f 6 5 8
f 8 5 12
f 2 7 11
f 14 7 1
f 14 12 7
f 14 1 8
f 8 12 14
f 10 12 5
f 10 11 7
f 5 6 10
f 6 11 10
f 9 6 3
f 9 11 6
f 9 3 2
f 2 11 9
f 7 12 13
f 13 10 7
f 12 10 13

