# https://github.com/mikedh/trimesh
v 0.09938362 0.02520252 0.10375751
v 0.09968108 -0.00085075 0.10373225
v 0.09968108 -0.00085075 0.06223880
v 0.06778484 0.04553643 0.06238128
v 0.06950402 -0.00085075 0.10373225
v 0.09842304 0.02393002 0.06231060
v 0.07422846 0.04405800 0.10407655
v 0.06950402 -0.00085075 0.06223880
v 0.06906591 0.04751836 0.10378184
v 0.08157632 0.03631118 0.06232320
v 0.07029808 0.04387601 0.06249047
f 2 7 5
f 4 5 9
f 9 5 7
f 8 5 4
f 4 9 11
f 1 7 2
f 1 6 7
f 2 3 1
f 3 6 1
f 3 8 10
f 10 6 3
f 10 8 4
f 4 11 10
f 7 6 10
f 10 9 7
f 10 11 9
f 2 5 8
f 8 3 2

