# https://github.com/mikedh/trimesh
v 0.10322161 -0.00084872 0.12615546
v 0.12631803 -0.03386525 0.07626193
v 0.12442745 -0.00171541 0.07714854
v 0.10345322 -0.00085075 0.07732733
v 0.10149327 -0.07479317 0.08767670
v 0.11887572 -0.05576074 0.07270826
v 0.11113845 -0.00092799 0.11619267
v 0.10161862 -0.02299382 0.12462726
v 0.12672954 -0.00607686 0.07680050
v 0.10599966 -0.07434646 0.07822385
v 0.11007685 -0.04382827 0.10439299
v 0.10491997 -0.00083052 0.12427885
v 0.10083945 -0.05963647 0.10576039
v 0.12161723 -0.04958129 0.07336961
v 0.12165051 -0.00879310 0.09794911
v 0.11377614 -0.05875581 0.08300899
v 0.10246176 -0.07546920 0.08444150
v 0.10881991 -0.07114085 0.07651520
v 0.11046028 -0.01525682 0.11565280
v 0.10092451 -0.06708528 0.09840496
v 0.10161726 -0.03418539 0.12097397
v 0.11726025 -0.04063951 0.09369388
v 0.12532764 -0.02263534 0.08667827
v 0.12128913 -0.00262546 0.09481315
v 0.11808956 -0.05529595 0.07596348
v 0.10415190 -0.07392183 0.08345906
v 0.10323184 -0.02254388 0.12291243
v 0.11776419 -0.01519144 0.10470088
v 0.10638150 -0.06585996 0.09004412
v 0.10125804 -0.04879343 0.11339408
v 0.11001372 -0.02969698 0.11183364
v 0.12181999 -0.04454666 0.07959108
v 0.12535157 -0.00936124 0.08727619
v 0.12123534 -0.03349021 0.09016455
v 0.11785267 -0.00552857 0.10541449
v 0.12082608 -0.05089575 0.07416372
v 0.11156912 -0.06682587 0.07620920
v 0.12155534 -0.01527456 0.09765264
v 0.10247862 -0.05851823 0.10428883
v 0.10320340 -0.07321481 0.08665931
v 0.11068059 -0.06629193 0.07967092
v 0.10649668 -0.04030694 0.11195374
v 0.10645068 -0.02258973 0.11913612
v 0.11366999 -0.03336487 0.10457022
v 0.11746442 -0.05139150 0.08295648
v 0.12526419 -0.00618353 0.08389149
v 0.12505771 -0.02980441 0.08316254
v 0.11797544 -0.05714493 0.07337460
v 0.12135232 -0.02621460 0.09400511
v 0.10247450 -0.06582941 0.09716785
v 0.10295409 -0.04775779 0.11182929
v 0.10648540 -0.03327865 0.11530950
v 0.11765571 -0.02625802 0.10113419
v 0.12537794 -0.03365816 0.07950442
v 0.10319740 -0.03355233 0.11933012
f 5 4 17
f 55 21 42
f 7 3 4
f 35 7 28
f 6 3 9
f 9 14 6
f 4 3 6
f 6 18 4
f 30 42 21
f 2 14 9
f 46 33 9
f 12 4 1
f 12 7 4
f 35 28 38
f 17 4 10
f 4 18 10
f 11 44 42
f 22 44 11
f 33 46 24
f 3 7 24
f 24 7 35
f 9 3 24
f 24 46 9
f 27 12 1
f 49 38 53
f 53 38 28
f 53 34 49
f 53 44 22
f 22 34 53
f 35 38 15
f 15 24 35
f 33 24 15
f 9 33 23
f 23 2 9
f 33 15 23
f 23 15 38
f 23 38 49
f 49 34 23
f 42 30 51
f 51 11 42
f 51 30 13
f 36 6 14
f 22 11 16
f 16 45 22
f 14 2 32
f 22 45 32
f 32 34 22
f 32 36 14
f 45 36 32
f 31 53 28
f 44 53 31
f 42 44 31
f 8 27 1
f 21 27 8
f 1 4 8
f 8 4 13
f 13 30 8
f 8 30 21
f 2 23 47
f 47 23 34
f 26 10 18
f 17 10 26
f 26 5 17
f 26 40 5
f 19 31 28
f 19 28 7
f 7 12 19
f 12 27 19
f 55 42 52
f 42 31 52
f 34 32 54
f 54 47 34
f 54 32 2
f 2 47 54
f 29 50 40
f 29 16 11
f 18 37 41
f 41 37 16
f 16 29 41
f 41 26 18
f 40 26 41
f 41 29 40
f 16 37 48
f 18 6 48
f 48 37 18
f 5 40 20
f 40 50 20
f 13 4 20
f 4 5 20
f 43 19 27
f 31 19 43
f 43 52 31
f 55 52 43
f 43 21 55
f 43 27 21
f 39 29 11
f 50 29 39
f 39 51 13
f 11 51 39
f 13 20 39
f 39 20 50
f 16 48 25
f 25 36 45
f 45 16 25
f 6 36 25
f 25 48 6

