# https://github.com/mikedh/trimesh
v 0.11631586 0.00835946 0.07700043
v 0.12903814 -0.02284075 0.07591453
v 0.12915689 -0.00722572 0.05443873
v 0.12426292 -0.00171189 -0.00540977
v 0.11948478 -0.04765008 -0.00266979
v 0.11642144 0.00870293 0.00230773
v 0.12526043 -0.00324769 0.07683172
v 0.11939116 -0.04801436 0.08206817
v 0.13304300 -0.02639378 0.02864098
v 0.12915540 -0.00715329 0.01718760
v 0.12909365 -0.00986524 0.06922236
v 0.12915548 -0.01629819 0.07628848
v 0.12566076 -0.04595830 0.06217099
v 0.12924694 -0.02251255 0.00322388
v 0.13330311 -0.01715772 0.04694072
v 0.12881583 -0.03702949 0.01769025
v 0.12388344 -0.04155483 0.07663541
v 0.12551301 -0.00479964 -0.00553815
v 0.12927905 -0.01258970 0.00281075
v 0.13333316 -0.02014491 0.05058851
v 0.12530132 -0.04094583 0.00681793
v 0.13318364 -0.02654632 0.04688781
v 0.12871910 -0.02977887 0.00713021
v 0.12886411 -0.03700856 0.06150343
v 0.12541882 -0.03722680 0.07600782
v 0.12445457 -0.04546122 0.06934732
v 0.12596741 -0.00581674 -0.00485777
v 0.12910640 -0.00955003 0.00640581
v 0.13306913 -0.01664463 0.02846719
v 0.13342575 -0.02290841 0.05061974
v 0.12619098 -0.04475343 0.06165405
v 0.12536120 -0.03721383 0.00321797
v 0.12497008 -0.04447645 0.06872084
v 0.12499764 -0.00314660 -0.00499355
v 0.12373265 -0.04152352 0.00266657
f 3 6 1
f 5 8 1
f 1 6 5
f 8 5 13
f 7 3 1
f 1 8 7
f 8 12 7
f 11 7 12
f 3 7 11
f 20 12 30
f 20 11 12
f 21 13 5
f 21 16 13
f 21 5 35
f 21 23 16
f 30 24 22
f 2 12 8
f 30 12 2
f 2 24 30
f 6 3 10
f 14 23 32
f 35 5 32
f 5 14 32
f 32 21 35
f 23 21 32
f 31 22 24
f 13 16 31
f 16 22 31
f 16 23 9
f 9 22 16
f 9 23 14
f 30 22 9
f 24 2 25
f 25 2 8
f 8 17 25
f 28 10 29
f 30 9 29
f 28 29 19
f 19 9 14
f 19 29 9
f 4 5 6
f 4 18 5
f 6 10 4
f 33 31 24
f 24 25 33
f 33 25 17
f 13 31 33
f 15 10 3
f 15 29 10
f 3 11 15
f 11 20 15
f 15 20 30
f 30 29 15
f 27 18 28
f 28 19 27
f 27 19 14
f 27 14 5
f 5 18 27
f 34 10 28
f 34 4 10
f 28 18 34
f 18 4 34
f 8 13 26
f 13 33 26
f 26 17 8
f 26 33 17

