# https://github.com/mikedh/trimesh
v -0.06217269 0.08745940 0.11080234
v -0.06252062 0.01046564 0.11127652
v -0.06252062 0.01046564 0.05846666
v -0.08881977 0.08783768 0.05847190
v -0.09676025 0.05421325 0.11444749
v -0.06259923 0.08745632 0.05852838
v -0.08596988 0.08130458 0.10157220
v -0.09269768 0.01046564 0.05846666
v -0.07901774 0.08180058 0.10903246
v -0.08658744 0.08492961 0.09112661
v -0.09269768 0.01046564 0.11127652
v -0.09269768 0.05195910 0.05846666
v -0.08615415 0.07605231 0.10895754
v -0.07198762 0.08512270 0.10935307
v -0.07933833 0.08480149 0.10203380
f 2 1 5
f 6 4 1
f 11 2 5
f 5 8 11
f 5 4 12
f 12 8 5
f 5 1 9
f 1 4 10
f 10 4 5
f 5 7 10
f 4 6 3
f 3 12 4
f 8 12 3
f 1 2 3
f 3 6 1
f 13 7 5
f 5 9 13
f 13 9 7
f 14 9 1
f 1 10 15
f 15 14 1
f 15 10 7
f 7 9 15
f 9 14 15
f 3 11 8
f 2 11 3

