# https://github.com/mikedh/trimesh
v 0.00524511 0.05797954 0.17645614
v 0.00537777 0.00669351 0.17540277
v 0.00537777 0.00669351 0.14522571
v -0.02333615 0.07296999 0.15085803
v -0.05197530 0.00672833 0.17483174
v 0.00646057 0.07585548 0.15174908
v -0.04804340 0.02786302 0.17741804
v -0.05120422 0.00669351 0.14522571
v -0.01614566 0.05564738 0.17736363
v -0.05776057 0.04560901 0.15242584
v -0.03000178 0.04857371 0.17731680
v -0.03451877 0.05728975 0.16183613
v -0.04395851 0.03438233 0.17696098
f 6 2 3
f 8 3 2
f 4 9 6
f 4 8 10
f 6 3 4
f 3 8 4
f 10 8 5
f 5 8 2
f 1 2 6
f 6 9 1
f 1 9 2
f 12 4 10
f 2 9 7
f 7 5 2
f 10 5 7
f 11 7 9
f 9 4 11
f 4 12 11
f 11 12 10
f 10 7 13
f 13 11 10
f 7 11 13

