# https://github.com/mikedh/trimesh
v -0.05055083 0.02527617 0.17068240
v -0.05473686 0.00666080 0.17128155
v -0.05120422 0.00669351 0.11127652
v -0.08558018 0.07017841 0.11504077
v -0.07810032 0.03556514 0.14084426
v -0.05120422 0.06704763 0.11127652
v -0.05517041 0.02400114 0.16768955
v -0.08138128 0.00669351 0.11127652
v -0.04882045 0.04956336 0.15757441
v -0.07798722 0.02092680 0.14483498
v -0.05566323 0.00730265 0.17058585
v -0.07803236 0.05352842 0.13318809
v -0.07896783 0.00640859 0.14607435
v -0.04938542 0.03201939 0.16892796
v -0.05043515 0.06606189 0.14378079
v -0.05851471 0.00980052 0.16776098
v -0.07785499 0.04604463 0.13698260
v -0.07426363 0.06431694 0.12981723
v -0.05869471 0.00641630 0.16807155
v -0.04903008 0.03904414 0.16528295
v -0.05141130 0.03109228 0.16781876
v -0.07830194 0.06453421 0.12637068
v -0.06352889 0.06443791 0.13721574
f 9 3 6
f 8 13 4
f 8 3 13
f 4 6 8
f 8 6 3
f 15 6 4
f 9 6 15
f 9 15 23
f 23 15 4
f 4 18 23
f 7 5 10
f 4 13 10
f 10 5 4
f 3 1 2
f 22 18 4
f 4 12 22
f 22 12 18
f 4 5 17
f 17 12 4
f 17 5 7
f 18 12 20
f 9 23 20
f 20 23 18
f 20 3 9
f 11 1 7
f 11 2 1
f 21 20 12
f 21 17 7
f 12 17 21
f 7 1 21
f 7 10 16
f 16 11 7
f 16 10 13
f 14 21 1
f 20 21 14
f 14 1 3
f 3 20 14
f 19 16 13
f 11 16 19
f 2 11 19
f 13 3 19
f 3 2 19

