# https://github.com/mikedh/trimesh
v -0.10238831 -0.02085990 -0.05100269
v -0.09990232 -0.02289732 -0.06226949
v -0.11331143 -0.00758245 -0.06216930
v -0.11532691 -0.00839293 -0.10750742
v -0.10701241 -0.01840959 -0.10766634
v -0.09996324 -0.02302928 -0.10749429
v -0.10852792 -0.01632421 -0.05096582
v -0.11222193 -0.01340035 -0.10770410
v -0.10259932 -0.02141262 -0.10746670
v -0.11154359 -0.01215929 -0.05092482
v -0.10468260 -0.01939897 -0.05123012
v -0.10808598 -0.01671846 -0.05087058
f 4 3 6
f 6 3 2
f 10 3 4
f 8 10 4
f 4 6 8
f 8 6 5
f 2 5 9
f 9 6 2
f 5 6 9
f 1 10 12
f 2 3 1
f 3 10 1
f 12 10 7
f 10 8 7
f 7 5 12
f 7 8 5
f 2 1 11
f 11 1 12
f 11 5 2
f 12 5 11

