# https://github.com/mikedh/trimesh
v 0.00160564 -0.03479995 -0.16031702
v 0.00160564 -0.05743274 -0.16031702
v 0.00160564 -0.05743274 -0.19803835
v -0.06252062 -0.03479995 -0.19803835
v -0.06861467 -0.04427430 -0.15918614
v 0.00160564 -0.03479995 -0.19803835
v -0.04640859 -0.06286990 -0.19728488
v -0.04434327 -0.05877644 -0.16018662
v -0.06432523 -0.05277826 -0.19760987
v -0.06181806 -0.04877746 -0.16044317
f 5 1 4
f 2 1 5
f 2 7 3
f 5 4 9
f 3 7 9
f 9 4 3
f 6 4 1
f 3 4 6
f 8 2 5
f 7 2 8
f 8 9 7
f 5 9 10
f 10 8 5
f 9 8 10
f 6 2 3
f 1 2 6

