# https://github.com/mikedh/trimesh
v 0.07606556 0.04562729 -0.19655531
v 0.10345322 -0.00085075 -0.19803835
v 0.09986924 0.02908676 -0.20994831
v 0.07613925 0.04751343 -0.23206702
v 0.06950402 -0.00085075 -0.23198754
v 0.10090467 0.02646013 -0.19842318
v 0.06950402 -0.00085075 -0.19803835
v 0.10345322 -0.00085075 -0.23198754
v 0.09290918 0.03319940 -0.19867677
v 0.10098908 0.02612821 -0.23212470
v 0.09283932 0.03422849 -0.23205568
v 0.09978473 0.02927151 -0.21637994
f 2 1 7
f 7 4 5
f 7 1 4
f 6 1 2
f 1 6 9
f 2 8 10
f 10 6 2
f 10 8 5
f 5 4 10
f 11 10 4
f 4 12 11
f 11 12 10
f 6 10 3
f 10 12 3
f 3 9 6
f 1 9 3
f 4 1 3
f 3 12 4
f 7 8 2
f 5 8 7

