# https://github.com/mikedh/trimesh
v -0.07937557 0.02500922 0.14282340
v -0.08268339 -0.02222586 0.13921831
v -0.08138128 0.00669351 0.11127652
v -0.08615415 0.07605231 0.10895754
v -0.11253272 0.01752792 0.10949452
v -0.07922227 0.07920026 0.11280409
v -0.10357982 -0.00043599 0.12305400
v -0.09596411 0.04229625 0.12239050
v -0.08837427 -0.02802480 0.11081121
v -0.07895431 0.07234265 0.11994016
v -0.08016623 0.08044776 0.11013769
v -0.08074682 0.00665063 0.14451093
v -0.10460763 0.04668762 0.10904078
v -0.10000305 0.01368849 0.12638924
v -0.08287928 0.07913892 0.10918351
v -0.10848811 -0.00670823 0.11017255
v -0.07920309 0.03953158 0.13854952
v -0.09218318 0.06064838 0.11533186
v -0.08917985 -0.00811550 0.13743698
v -0.10693842 0.03540217 0.11174180
v -0.10430146 -0.01369819 0.11009853
v -0.08874273 0.03181184 0.13347248
v -0.09274617 0.01378469 0.13366411
v -0.10365206 0.01001917 0.12280677
v -0.08164386 0.07828451 0.11159712
v -0.11233267 0.00337798 0.10969450
v -0.09212590 -0.01737629 0.13077685
v -0.08127642 0.07118148 0.11871686
v -0.08153786 0.06077036 0.12603717
v -0.09936607 0.05324025 0.11175965
v -0.10854678 0.03585723 0.10927302
v -0.10312889 0.03910441 0.11524371
v -0.09960382 0.03175898 0.12260504
v -0.08871801 0.04259608 0.12953536
v -0.08166183 0.03887396 0.13692159
v -0.08917844 0.01007896 0.13722850
v -0.08177103 0.02459122 0.14098357
v -0.11080741 0.00364059 0.11255761
v -0.10713706 -0.00298067 0.11663542
v -0.09234656 -0.01110833 0.13369826
v -0.09593738 -0.02014532 0.12068895
v -0.08477402 0.07504060 0.11157480
v -0.08872994 0.04972849 0.12589401
v -0.07919207 0.06164091 0.12749040
v -0.10307447 0.04593967 0.11169989
v -0.09221922 0.04969396 0.12236256
v -0.10085897 0.05404034 0.10904392
v -0.10704699 0.02460008 0.11564972
v -0.11092793 0.01737022 0.11197903
v -0.10747540 -0.00635234 0.11326126
v -0.08472143 -0.02134537 0.13750804
v -0.09759089 -0.02058052 0.11110167
v -0.09222292 -0.02060702 0.12756979
v -0.10346687 -0.01316146 0.11358854
f 9 15 3
f 9 3 2
f 11 3 15
f 19 2 12
f 44 17 10
f 34 17 44
f 1 3 10
f 10 17 1
f 12 2 1
f 1 2 3
f 5 13 26
f 6 11 15
f 10 3 6
f 3 11 6
f 10 42 28
f 4 15 9
f 5 49 48
f 14 33 48
f 50 26 16
f 16 26 21
f 21 26 13
f 21 4 9
f 13 4 21
f 25 6 15
f 15 4 25
f 25 4 42
f 25 42 10
f 10 6 25
f 2 51 53
f 9 2 53
f 53 41 9
f 53 51 27
f 27 50 53
f 34 44 43
f 30 13 45
f 46 43 18
f 30 46 18
f 18 28 42
f 42 4 18
f 8 22 34
f 33 22 8
f 34 43 8
f 8 43 46
f 8 32 33
f 8 45 32
f 8 46 30
f 30 45 8
f 23 33 14
f 23 22 33
f 23 7 19
f 35 1 17
f 35 22 1
f 35 17 34
f 34 22 35
f 47 13 30
f 47 4 13
f 30 18 47
f 47 18 4
f 32 45 31
f 31 45 13
f 31 13 5
f 5 48 31
f 19 7 40
f 27 51 40
f 2 19 40
f 40 51 2
f 39 50 27
f 27 40 39
f 39 40 7
f 26 50 39
f 14 48 24
f 24 48 49
f 24 23 14
f 7 23 24
f 9 41 52
f 52 21 9
f 41 21 52
f 54 21 41
f 41 53 54
f 54 53 50
f 54 50 16
f 16 21 54
f 29 43 44
f 29 18 43
f 28 18 29
f 29 44 10
f 10 28 29
f 1 22 37
f 22 23 37
f 12 1 37
f 32 31 20
f 20 31 48
f 33 32 20
f 20 48 33
f 26 39 38
f 38 39 7
f 38 49 5
f 5 26 38
f 38 24 49
f 7 24 38
f 12 37 36
f 36 37 23
f 36 19 12
f 36 23 19

