# https://github.com/mikedh/trimesh
v 0.08811976 -0.02044631 0.13812884
v 0.08314844 -0.07474570 0.11371480
v 0.08459255 -0.01971142 0.11504865
v 0.05818763 -0.01971142 0.11504865
v 0.06104364 -0.06416862 0.13897171
v 0.07529696 -0.08021802 0.11316991
v 0.05818763 -0.01971142 0.13390932
v 0.08134618 -0.05515236 0.13016238
v 0.05818763 -0.06120487 0.11504865
v 0.07453148 -0.07905330 0.11612746
v 0.07103324 -0.06678448 0.13087113
v 0.07238595 -0.08119900 0.11396070
v 0.08088667 -0.06218306 0.12608807
v 0.08196942 -0.07352533 0.11618423
v 0.07162951 -0.08001362 0.11674651
v 0.07363410 -0.06582579 0.12955770
f 7 5 1
f 7 3 4
f 1 3 7
f 12 5 9
f 9 7 4
f 5 7 9
f 1 5 8
f 11 8 5
f 2 3 1
f 1 8 2
f 2 8 13
f 6 9 4
f 12 9 6
f 4 3 6
f 3 2 6
f 13 8 16
f 8 11 16
f 10 6 2
f 12 6 10
f 11 10 14
f 14 10 2
f 14 16 11
f 14 2 13
f 13 16 14
f 15 5 12
f 12 10 15
f 15 11 5
f 15 10 11

