# https://github.com/mikedh/trimesh
v 0.12555700 -0.00136601 -0.23200268
v 0.13425790 -0.02183410 -0.23258597
v 0.11090271 0.00197728 -0.26506336
v 0.07170880 -0.00301008 -0.26248023
v 0.07327616 -0.01971142 -0.23198754
v 0.10691105 -0.02101920 -0.26429517
v 0.07327616 -0.00085075 -0.23198754
v 0.12543790 -0.00150944 -0.24705904
v 0.13170325 -0.02127346 -0.24891032
v 0.07280426 -0.02024896 -0.26017997
f 4 3 6
f 7 3 4
f 4 5 7
f 2 6 9
f 9 6 3
f 2 5 10
f 10 6 2
f 10 5 4
f 4 6 10
f 3 7 1
f 1 5 2
f 1 7 5
f 8 9 3
f 3 1 8
f 2 9 8
f 8 1 2

