# https://github.com/mikedh/trimesh
v 0.11078924 0.01506806 -0.03947358
v 0.11779718 -0.00458791 -0.03944104
v 0.11254205 0.01265355 -0.10379135
v 0.09639242 0.02631069 -0.10375537
v 0.09590895 -0.00462289 -0.03960878
v 0.10772372 0.01852045 -0.10387135
v 0.11474429 0.00886116 -0.03932263
v 0.09624680 0.02619415 -0.03958749
v 0.11694889 -0.00517480 -0.10253065
v 0.11073136 0.01537686 -0.10405406
v 0.09590895 -0.00462289 -0.10373503
v 0.10420755 0.02118969 -0.05108376
v 0.10418079 0.02117888 -0.09984448
v 0.10764839 0.01818746 -0.03967950
v 0.10158699 0.02287154 -0.10364540
v 0.10144244 0.02268770 -0.03971203
f 9 2 5
f 11 9 5
f 5 8 11
f 11 8 4
f 5 2 7
f 7 8 5
f 2 9 7
f 9 3 7
f 4 8 12
f 9 11 10
f 10 3 9
f 10 11 4
f 4 6 10
f 4 12 13
f 13 12 6
f 16 12 8
f 1 10 6
f 1 7 3
f 3 10 1
f 8 7 1
f 15 6 4
f 4 13 15
f 15 13 6
f 6 12 14
f 14 1 6
f 12 16 14
f 14 16 8
f 8 1 14

