# https://github.com/mikedh/trimesh
v 0.00160564 -0.01216715 -0.23198754
v 0.00160564 -0.03857208 -0.23198754
v 0.00143392 -0.03890880 -0.26269816
v -0.06336444 -0.01717046 -0.26576631
v -0.06503687 -0.05560213 -0.23203844
v 0.00139958 -0.01260907 -0.25934485
v -0.06252062 -0.01216715 -0.23198754
v -0.04537088 -0.06474715 -0.25524912
v 0.00126631 -0.02783400 -0.26165945
v -0.02857142 -0.05366061 -0.23198754
v -0.06291329 -0.01276830 -0.26424907
v -0.03254767 -0.01263748 -0.26181281
v -0.06116333 -0.05130255 -0.26266265
v -0.02921466 -0.03970159 -0.26540400
v -0.06072052 -0.05820985 -0.25380084
v -0.06177907 -0.04488027 -0.26563267
v -0.02839307 -0.05338514 -0.26644526
v -0.06046695 -0.05745995 -0.25644084
v -0.04301552 -0.05977436 -0.26322452
v -0.05799107 -0.04853694 -0.26519290
v -0.05289919 -0.05725700 -0.26169173
v -0.04711331 -0.05269291 -0.26535911
f 5 8 10
f 8 2 10
f 10 7 5
f 8 17 3
f 3 2 8
f 1 2 3
f 3 6 1
f 11 7 12
f 12 6 11
f 12 7 1
f 1 6 12
f 15 8 5
f 15 18 8
f 6 3 9
f 17 16 4
f 4 16 5
f 11 6 4
f 6 9 4
f 5 7 4
f 4 7 11
f 19 17 8
f 17 4 14
f 14 4 9
f 14 3 17
f 14 9 3
f 22 16 17
f 17 19 22
f 5 16 13
f 13 15 5
f 18 15 13
f 16 22 20
f 20 22 19
f 20 13 16
f 19 13 20
f 18 13 21
f 21 13 19
f 8 18 21
f 21 19 8
f 1 7 10
f 10 2 1

