# https://github.com/mikedh/trimesh
v -0.06525560 0.08850963 -0.09179882
v -0.06682642 -0.04220493 -0.09220531
v -0.06099387 0.08948000 -0.13029352
v -0.10118944 0.06908144 -0.13138578
v -0.11493442 0.00957750 -0.09304464
v -0.06590577 -0.04406385 -0.12989563
v -0.08873265 0.08322366 -0.12838761
v -0.11440286 -0.00701714 -0.09284442
v -0.09219840 0.06431023 -0.09317010
v -0.06549796 -0.04369889 -0.11489466
v -0.07241861 -0.04005802 -0.13023013
v -0.09831806 0.07338706 -0.13098289
v -0.12340552 0.01719057 -0.13134881
v -0.10756341 0.03547112 -0.09307995
v -0.08446952 0.07506111 -0.09339688
v -0.08664381 -0.03078312 -0.09248820
v -0.12220495 0.00970929 -0.12407415
v -0.11908102 0.03177228 -0.13152046
v -0.11084569 0.02794663 -0.09694661
v -0.10310717 0.04565420 -0.09324178
v -0.10519083 -0.01964459 -0.10744615
v -0.11647851 -0.01014467 -0.13040587
v -0.12271855 0.00071244 -0.13089775
v -0.10487980 -0.01930149 -0.13004620
v -0.11464375 -0.00972745 -0.10798530
v -0.07512017 -0.03836129 -0.13026513
v -0.12184951 0.00380464 -0.12364126
v -0.12206673 0.00074990 -0.12721849
f 1 8 2
f 3 1 2
f 3 6 11
f 11 4 3
f 11 18 4
f 13 18 11
f 7 1 3
f 4 18 20
f 10 6 3
f 3 2 10
f 10 2 6
f 21 11 6
f 8 28 23
f 14 18 13
f 14 20 18
f 1 7 15
f 13 23 17
f 25 21 8
f 22 21 25
f 8 23 25
f 25 23 22
f 16 2 8
f 8 21 16
f 6 2 16
f 16 21 6
f 24 21 22
f 22 23 26
f 26 24 22
f 13 11 26
f 26 23 13
f 11 21 26
f 21 24 26
f 5 8 1
f 1 14 5
f 5 17 8
f 13 17 5
f 1 15 9
f 9 14 1
f 20 14 9
f 4 20 9
f 27 28 8
f 8 17 27
f 27 23 28
f 27 17 23
f 19 14 13
f 13 5 19
f 19 5 14
f 4 9 12
f 12 9 15
f 12 15 7
f 3 4 12
f 12 7 3

