# https://github.com/mikedh/trimesh
v 0.08446452 -0.01967734 0.14129568
v 0.10757955 -0.02052258 0.11818578
v 0.10031539 -0.01909799 0.12700559
v 0.08459255 -0.01971142 0.11504865
v 0.08378483 -0.05313995 0.12920983
v 0.08896798 -0.01905118 0.13766277
v 0.08221549 -0.04468809 0.13473736
v 0.10328954 -0.04226288 0.11491428
v 0.08257310 -0.03378904 0.13879349
v 0.08226190 -0.05224602 0.13101394
v 0.08602552 -0.05228529 0.12771321
v 0.09925733 -0.03663175 0.12265096
v 0.09217999 -0.02610177 0.13329970
v 0.08459281 -0.05122928 0.12957880
v 0.09929197 -0.02614487 0.12619551
v 0.09303543 -0.04724569 0.12378631
v 0.08861255 -0.02239298 0.13731235
v 0.09225889 -0.03673601 0.12971776
v 0.08458894 -0.04396388 0.13317236
v 0.10007938 -0.04075006 0.11957076
v 0.08508182 -0.03315659 0.13712929
v 0.09727409 -0.04493251 0.12041759
v 0.09561598 -0.04414573 0.12267128
f 7 4 10
f 10 4 5
f 2 4 3
f 8 4 2
f 7 10 19
f 19 21 7
f 18 21 19
f 7 21 9
f 9 21 1
f 9 4 7
f 1 4 9
f 13 21 18
f 14 10 5
f 14 19 10
f 18 19 14
f 14 16 18
f 6 13 3
f 6 4 1
f 6 3 4
f 15 13 18
f 3 13 15
f 2 3 15
f 1 21 17
f 21 13 17
f 17 6 1
f 13 6 17
f 18 16 12
f 12 15 18
f 12 8 2
f 2 15 12
f 11 14 5
f 16 14 11
f 8 16 11
f 5 4 11
f 4 8 11
f 8 12 20
f 23 12 16
f 23 20 12
f 22 23 16
f 20 23 22
f 22 16 8
f 8 20 22

