# https://github.com/mikedh/trimesh
v -0.09269768 0.01046564 0.08864372
v -0.09250252 -0.02321172 0.08866019
v -0.09202677 -0.02615099 -0.02834045
v -0.11816447 0.01257111 -0.03095471
v -0.12016338 0.00705412 0.09244077
v -0.09269768 0.01046564 -0.02829238
v -0.09097664 -0.02452309 0.02437076
v -0.10603586 -0.01710792 -0.02846231
v -0.10169306 -0.02003123 -0.02851771
v -0.10566526 -0.01324190 0.08875366
v -0.09473350 -0.02449166 -0.02841079
v -0.09736272 -0.01966485 0.08884011
f 1 4 5
f 6 3 4
f 4 1 6
f 7 3 6
f 6 1 7
f 8 10 5
f 5 4 8
f 7 1 2
f 2 3 7
f 2 1 5
f 9 2 8
f 9 8 4
f 10 8 12
f 8 2 12
f 5 10 12
f 12 2 5
f 4 3 11
f 11 9 4
f 3 2 11
f 2 9 11

