# https://github.com/mikedh/trimesh
v 0.04604836 0.05759065 -0.12971850
v 0.03844366 0.06147742 -0.13021096
v 0.02423843 0.04441484 -0.15654489
v 0.02387662 0.06988056 -0.15662492
v 0.03773162 0.06372723 -0.15679857
v 0.02423843 0.04441484 -0.13013996
v 0.02735368 0.06658788 -0.12983822
v 0.03932696 0.04441484 -0.15654489
v 0.03028979 0.06724243 -0.15693590
v 0.02338915 0.06891482 -0.14165030
v 0.03539538 0.06293882 -0.13015198
f 10 3 6
f 4 3 10
f 4 9 3
f 3 9 8
f 1 6 8
f 8 6 3
f 10 6 7
f 7 6 1
f 7 4 10
f 9 4 7
f 1 8 5
f 5 8 9
f 9 7 11
f 11 5 9
f 11 7 1
f 1 5 2
f 2 11 1
f 5 11 2

