# https://github.com/mikedh/trimesh
v -0.09795677 0.07894946 -0.13921246
v -0.09230550 0.08534959 -0.14161667
v -0.10395983 0.08588680 -0.17969300
v -0.10468766 0.08160099 -0.24924548
v -0.09269768 0.07459190 -0.19803835
v -0.09223246 0.09097752 -0.19807818
v -0.11109828 0.07812920 -0.19804305
v -0.09970787 0.08214729 -0.15045306
v -0.09176302 0.08967338 -0.16441285
v -0.09924335 0.08778247 -0.24645813
v -0.10448971 0.07489539 -0.14882643
v -0.10886762 0.07687074 -0.24644551
v -0.09682288 0.08216627 -0.14295156
v -0.10106548 0.08528365 -0.16493506
v -0.09870954 0.08959002 -0.19804799
v -0.10716581 0.08255071 -0.23874219
v -0.10133104 0.07528219 -0.14101681
v -0.09480864 0.08869869 -0.16456808
v -0.10781075 0.08332684 -0.19813334
v -0.10397293 0.08546081 -0.24247516
v -0.10742269 0.07944228 -0.24583069
v -0.09841375 0.08879569 -0.17954255
v -0.11106576 0.07819137 -0.19796631
v -0.10173955 0.08622665 -0.24613490
f 12 4 5
f 2 5 9
f 16 12 7
f 5 4 10
f 7 12 11
f 5 17 11
f 11 12 5
f 9 15 22
f 1 17 5
f 5 2 1
f 1 11 17
f 18 2 9
f 14 2 18
f 9 22 18
f 4 12 21
f 12 16 21
f 6 15 9
f 6 10 15
f 9 5 6
f 5 10 6
f 7 11 23
f 23 16 7
f 23 19 16
f 16 19 20
f 15 10 20
f 20 19 15
f 4 21 20
f 20 21 16
f 19 23 3
f 14 18 3
f 3 18 22
f 15 19 3
f 3 22 15
f 3 11 14
f 3 23 11
f 8 2 14
f 14 11 8
f 11 1 8
f 24 10 4
f 4 20 24
f 24 20 10
f 13 1 2
f 2 8 13
f 13 8 1

