# https://github.com/mikedh/trimesh
v -0.10768870 0.08349359 -0.19784959
v -0.10024194 0.04064271 -0.19803835
v -0.09993441 0.06324780 -0.26138663
v -0.10468766 0.08160099 -0.24924548
v -0.12993051 0.03667622 -0.20935619
v -0.12695491 0.04384496 -0.19797400
v -0.12559317 0.04622114 -0.23865715
v -0.11051054 0.07568961 -0.24222232
v -0.12255875 0.04249817 -0.25173083
v -0.11187822 0.07660186 -0.19807362
v -0.12600242 0.04642862 -0.20942485
v -0.10538807 0.07350781 -0.25581953
v -0.10019074 0.03682602 -0.26153841
v -0.12696748 0.03548986 -0.24933078
v -0.12889943 0.03926759 -0.20933690
v -0.12263580 0.05391858 -0.19813072
v -0.11051149 0.07207378 -0.24915196
v -0.11728345 0.03574722 -0.25863066
v -0.10024194 0.03687057 -0.22821541
v -0.12403745 0.05079383 -0.19810257
v -0.11437975 0.06133699 -0.25153284
v -0.10706291 0.07608979 -0.25188537
v -0.11797328 0.05736209 -0.24848821
v -0.10567180 0.06267247 -0.25879837
v -0.11971676 0.04285991 -0.25468006
v -0.10705088 0.07267471 -0.25456160
v -0.10570474 0.07704356 -0.25308366
v -0.12559383 0.04243160 -0.24549240
v -0.12160028 0.05349879 -0.24214555
v -0.12584113 0.03880531 -0.24887602
f 3 1 2
f 2 13 3
f 5 2 6
f 6 2 1
f 19 2 5
f 13 2 19
f 4 1 3
f 14 19 5
f 10 6 1
f 5 6 15
f 6 11 15
f 12 4 3
f 11 10 7
f 7 15 11
f 7 14 5
f 5 15 7
f 8 4 17
f 8 7 10
f 1 4 8
f 8 10 1
f 16 10 11
f 17 4 22
f 3 13 18
f 13 19 18
f 19 14 18
f 20 11 6
f 20 16 11
f 6 10 20
f 10 16 20
f 4 12 27
f 27 22 4
f 24 12 3
f 3 18 24
f 24 18 12
f 25 18 14
f 12 18 25
f 14 7 28
f 17 22 21
f 21 23 17
f 14 28 30
f 30 28 23
f 29 28 7
f 23 28 29
f 7 8 29
f 29 8 17
f 17 23 29
f 26 21 22
f 26 27 12
f 22 27 26
f 12 25 26
f 9 26 25
f 21 26 9
f 9 25 14
f 14 30 9
f 23 21 9
f 9 30 23

