# https://github.com/mikedh/trimesh
v 0.07327616 -0.06874914 -0.17540555
v 0.07255725 -0.09014533 -0.17480891
v 0.07327616 -0.06874914 -0.24707607
v 0.05818763 -0.06874914 -0.24707607
v 0.05721273 -0.08878122 -0.17468105
v 0.05880821 -0.09256746 -0.24693432
v 0.07330165 -0.09083290 -0.18675838
v 0.05818763 -0.06874914 -0.17540555
v 0.07235693 -0.09085729 -0.24698203
v 0.05844769 -0.09079374 -0.19477986
v 0.07328213 -0.09136278 -0.19448312
f 3 1 7
f 2 1 5
f 7 1 2
f 5 1 8
f 5 6 10
f 10 2 5
f 3 9 4
f 4 9 6
f 4 6 5
f 5 8 4
f 11 3 7
f 11 9 3
f 6 9 11
f 11 10 6
f 7 2 11
f 2 10 11
f 4 8 1
f 1 3 4

