# https://github.com/mikedh/trimesh
v 0.06864995 0.03442558 0.15185020
v 0.08928262 0.03094923 0.12878140
v 0.06980375 0.05277552 0.13537593
v 0.08648496 0.03430058 0.08879836
v 0.09082585 0.03123350 0.08878922
v 0.06469992 0.05038418 0.10384905
v 0.07645662 0.04138362 0.13803542
v 0.07480041 0.03203152 0.14673998
v 0.08829618 0.03300099 0.08865133
v 0.08762825 0.03386432 0.12792283
v 0.06315462 0.05368829 0.14295499
v 0.07105019 0.05161110 0.12882651
v 0.07635166 0.04487947 0.13462773
v 0.08515174 0.03101888 0.13545178
v 0.07280744 0.03808392 0.14524760
v 0.06430173 0.04706660 0.14766746
v 0.06501642 0.05352684 0.12840604
v 0.06531277 0.05227966 0.14176335
v 0.08376231 0.03387356 0.13472171
v 0.06655224 0.04587459 0.14625199
f 11 6 16
f 16 6 1
f 1 6 4
f 10 2 5
f 17 6 11
f 11 3 17
f 8 1 5
f 5 1 9
f 1 4 9
f 12 4 6
f 6 17 12
f 12 17 3
f 12 9 4
f 5 9 12
f 12 10 5
f 3 10 12
f 3 7 13
f 2 10 13
f 13 10 3
f 5 2 14
f 14 8 5
f 20 16 1
f 11 16 20
f 18 3 11
f 18 7 3
f 11 20 18
f 18 20 7
f 8 14 15
f 15 14 7
f 7 20 15
f 1 8 15
f 15 20 1
f 19 13 7
f 7 14 19
f 2 13 19
f 19 14 2

