# https://github.com/mikedh/trimesh
v 0.00160564 -0.05743274 -0.16031702
v 0.00229505 -0.07767193 -0.16055813
v 0.00194822 -0.08270382 -0.20194116
v -0.02682241 -0.07210885 -0.19867062
v -0.02925739 -0.06644962 -0.16392561
v -0.01062535 -0.07880784 -0.20146755
v 0.00160564 -0.05743274 -0.19803835
v -0.02229061 -0.06899239 -0.15880640
v -0.00468145 -0.07567182 -0.16072810
v -0.03236046 -0.06627532 -0.17442860
v -0.00843880 -0.07962359 -0.20237455
v 0.00262208 -0.08031377 -0.18338384
v -0.03378054 -0.06887741 -0.19650177
v -0.02666229 -0.07173994 -0.19475030
v -0.01538040 -0.07192747 -0.16090363
f 7 1 12
f 10 7 13
f 1 7 10
f 3 7 12
f 1 8 2
f 12 1 2
f 2 3 12
f 5 8 1
f 1 10 5
f 13 8 5
f 5 10 13
f 6 15 8
f 14 8 13
f 14 6 8
f 7 3 11
f 4 14 13
f 6 14 4
f 4 11 6
f 13 7 4
f 7 11 4
f 6 11 9
f 15 6 9
f 3 2 9
f 9 11 3
f 8 15 9
f 9 2 8

