# https://github.com/mikedh/trimesh
v -0.00971076 -0.04988848 0.00188468
v -0.00894731 -0.07023496 0.00187992
v -0.00971076 -0.04988848 -0.13013996
v -0.03236046 -0.06627532 -0.17442860
v -0.03368394 -0.05963870 0.00213434
v -0.00952937 -0.07201026 -0.13015549
v -0.02306561 -0.06468300 0.00183088
v -0.03420459 -0.06162430 -0.12944956
v -0.01937971 -0.07176976 -0.17463388
v -0.02752789 -0.06267389 0.00189229
v -0.01215850 -0.06903791 0.00189992
v -0.02970622 -0.06750844 -0.17506612
v -0.01687272 -0.07170266 -0.16420618
v -0.01561389 -0.06788361 -0.00205692
f 2 1 5
f 9 6 2
f 4 5 8
f 12 9 7
f 6 9 13
f 3 9 12
f 12 4 3
f 3 13 9
f 3 4 8
f 6 13 3
f 8 5 3
f 3 5 1
f 3 1 2
f 2 6 3
f 2 5 11
f 5 7 11
f 5 4 10
f 10 7 5
f 10 4 12
f 12 7 10
f 14 7 9
f 14 11 7
f 14 9 2
f 2 11 14

