# https://github.com/mikedh/trimesh
v 0.03978158 0.06037302 0.00185160
v 0.03932696 0.04064271 0.00188468
v 0.03932696 0.04064271 -0.04338091
v 0.02289869 0.06758891 -0.04332570
v 0.02319620 0.06839778 0.00195290
v 0.02423843 0.04064271 -0.04338091
v 0.03946536 0.05978331 -0.04338646
v 0.03368056 0.06359142 0.00201004
v 0.02423843 0.04064271 0.00188468
v 0.03339096 0.06286756 -0.04328377
v 0.02602938 0.06705362 0.00199271
v 0.02595557 0.06631868 -0.04329364
f 1 2 3
f 8 2 1
f 9 5 4
f 2 8 9
f 1 3 7
f 7 8 1
f 6 9 4
f 4 7 6
f 6 7 3
f 11 8 5
f 5 9 11
f 11 9 8
f 8 7 10
f 5 8 12
f 8 10 12
f 4 5 12
f 12 7 4
f 12 10 7
f 2 9 6
f 6 3 2

