# https://github.com/mikedh/trimesh
v 0.08262283 0.02120543 0.14303609
v 0.10322161 -0.00084872 0.12615546
v 0.09510909 0.02592203 0.12441370
v 0.08634997 0.03556748 0.10359742
v 0.08266958 -0.01919969 0.14285423
v 0.09752922 0.02678249 0.10391492
v 0.08335106 0.03230118 0.13673880
v 0.09914307 0.01624343 0.12715122
v 0.10134628 -0.00090368 0.12821945
v 0.08459255 -0.00085075 0.10373225
v 0.09195006 0.03011740 0.12448452
v 0.08480976 0.02740981 0.13849583
v 0.09120387 0.02637563 0.13104070
v 0.10064008 0.01647967 0.12485057
v 0.09462747 -0.01942367 0.13262794
v 0.08477005 0.02072976 0.14122977
v 0.09968108 -0.00085075 0.10373225
v 0.08298113 0.02846810 0.13999673
v 0.09347765 0.03005754 0.10393341
v 0.09529544 0.01959370 0.13053808
v 0.08515174 0.03101888 0.13545178
v 0.08826671 0.03039999 0.13141601
v 0.09297950 -0.01908943 0.13424688
v 0.08811976 -0.02044631 0.13812884
v 0.08489664 -0.01898884 0.14107697
f 4 17 10
f 15 17 2
f 2 9 15
f 24 10 15
f 15 10 17
f 5 9 1
f 1 10 5
f 5 10 24
f 8 9 2
f 4 10 7
f 6 17 4
f 2 17 6
f 24 15 23
f 23 15 9
f 4 7 11
f 3 6 11
f 18 10 1
f 18 7 10
f 14 6 3
f 3 13 14
f 14 8 2
f 2 6 14
f 9 5 25
f 25 23 9
f 25 5 24
f 24 23 25
f 19 6 4
f 4 11 19
f 19 11 6
f 16 18 1
f 1 9 16
f 22 11 7
f 3 11 22
f 22 13 3
f 8 14 20
f 20 14 13
f 9 8 20
f 20 16 9
f 12 20 13
f 18 16 12
f 16 20 12
f 21 22 7
f 13 22 21
f 21 12 13
f 7 18 21
f 18 12 21

