# https://github.com/mikedh/trimesh
v -0.09710764 0.08621847 0.03985394
v -0.09269768 0.05195910 0.03960600
v -0.09269768 0.05195910 0.00188468
v -0.09839857 0.08116808 -0.00060849
v -0.12349446 0.05059465 0.03581502
v -0.12284596 0.05194592 0.03960571
v -0.11997386 0.05062414 0.00642784
v -0.11065314 0.07638288 0.03965501
v -0.11818524 0.05150887 0.00221668
v -0.10401877 0.08214231 0.02451680
v -0.11856713 0.06132258 0.03955415
v -0.11086850 0.06815055 0.00688842
v -0.11815275 0.06088378 0.02148994
v -0.11544342 0.05759871 0.00309066
v -0.10737717 0.07862928 0.02131349
v -0.12338236 0.05054934 0.02480115
v -0.11796402 0.05698452 0.01065765
v -0.10739002 0.07189070 0.00327912
v -0.10208666 0.08013000 0.00626810
v -0.10767485 0.07887895 0.02504518
v -0.11075882 0.07171890 0.01437534
v -0.12209830 0.05365718 0.03579709
v -0.12200636 0.05356376 0.02494668
v -0.11865675 0.05360648 0.00693215
v -0.10297226 0.07750996 0.00227577
v -0.10369207 0.07868601 0.00707170
v -0.10453962 0.07593367 0.00312374
f 3 1 2
f 3 4 1
f 5 2 6
f 2 1 6
f 4 3 9
f 8 6 1
f 1 4 10
f 10 8 1
f 6 8 11
f 5 6 22
f 6 11 22
f 19 10 4
f 13 11 8
f 10 19 15
f 15 19 26
f 25 27 26
f 25 19 4
f 26 19 25
f 23 22 11
f 11 13 23
f 8 10 20
f 10 15 20
f 20 13 8
f 21 17 13
f 13 20 21
f 21 20 15
f 26 27 21
f 21 15 26
f 5 22 16
f 22 23 16
f 16 2 5
f 13 17 16
f 16 23 13
f 24 14 9
f 17 14 24
f 18 21 27
f 27 25 18
f 18 25 4
f 4 9 18
f 9 14 18
f 12 14 17
f 17 21 12
f 12 18 14
f 21 18 12
f 7 16 17
f 17 24 7
f 7 24 9
f 7 9 3
f 7 3 2
f 2 16 7

