# https://github.com/mikedh/trimesh
v -0.09018030 0.07549927 0.10460897
v -0.08741708 0.07984830 0.10257560
v -0.10556552 0.07649823 0.07286389
v -0.09839857 0.08116808 -0.00060849
v -0.09124526 0.08611899 0.00239351
v -0.10463369 0.07505574 0.00164820
v -0.10020435 0.07834497 0.08310480
v -0.09839788 0.08508560 0.05814202
v -0.10098232 0.07245130 0.09075647
v -0.09248240 0.07843930 0.09728329
v -0.09810795 0.08501147 0.01734774
v -0.10072480 0.08156302 0.07266742
v -0.08759176 0.08627696 0.08424418
v -0.09394979 0.07273769 0.10203542
v -0.10708991 0.07412879 0.07332895
v -0.08933297 0.07888380 0.10136078
v -0.09962091 0.07482194 0.09013285
v -0.08881977 0.08783768 0.05847190
v -0.09388396 0.08511296 0.00301040
v -0.10033031 0.08193665 0.00673566
v -0.09396760 0.08481162 0.07639220
v -0.09315977 0.08132780 0.09055517
v -0.09257648 0.07530278 0.10120385
v -0.10558781 0.07292456 0.08022233
v -0.09185259 0.08727702 0.05886547
v -0.10126916 0.07982301 0.00283329
v -0.08745417 0.08323355 0.09528959
v -0.09037861 0.08503727 0.08366053
v -0.09671830 0.08141191 0.08326079
v -0.10393831 0.07544566 0.07956421
v -0.08998992 0.08186900 0.09449134
f 4 5 6
f 2 5 13
f 13 5 18
f 21 13 8
f 1 5 2
f 14 6 1
f 1 6 5
f 9 6 14
f 3 6 15
f 4 6 26
f 18 5 25
f 25 13 18
f 25 8 13
f 16 1 2
f 14 1 23
f 23 9 14
f 17 9 23
f 24 9 17
f 24 3 15
f 15 6 24
f 6 9 24
f 2 13 27
f 28 13 21
f 21 29 28
f 28 27 13
f 8 3 12
f 21 8 12
f 12 29 21
f 11 25 5
f 8 25 11
f 11 3 8
f 17 23 10
f 1 16 10
f 10 23 1
f 10 16 2
f 3 24 30
f 19 5 4
f 19 11 5
f 17 10 7
f 7 24 17
f 7 30 24
f 3 30 7
f 7 12 3
f 29 12 7
f 2 27 31
f 4 26 20
f 20 19 4
f 11 19 20
f 20 26 6
f 6 3 20
f 3 11 20
f 29 7 22
f 22 7 10
f 22 31 27
f 22 10 2
f 2 31 22
f 22 28 29
f 27 28 22

