# https://github.com/mikedh/trimesh
v 0.03555483 -0.04234421 0.14899785
v 0.03704350 -0.06401477 0.15206405
v 0.03555483 -0.04234421 0.07732733
v 0.00537777 -0.04234421 0.07732733
v 0.00537777 -0.04234421 0.14899785
v 0.03436867 -0.07998386 0.07695002
v 0.03597392 -0.08123678 0.09259199
v 0.00528766 -0.08097793 0.13959052
v 0.00520413 -0.07643281 0.14640166
v 0.00588067 -0.07440819 0.07742600
v 0.02414074 -0.08378468 0.12960146
v 0.03618957 -0.08404043 0.11965199
v 0.02360182 -0.07950427 0.13882089
v 0.01378025 -0.07625084 0.07755310
v 0.01621172 -0.07580683 0.14599068
v 0.03516827 -0.08096410 0.13268899
v 0.02454821 -0.07835955 0.07743065
v 0.02374812 -0.07382590 0.14715537
v 0.03470740 -0.08315380 0.12805795
f 9 2 5
f 2 1 5
f 5 4 9
f 10 4 6
f 6 4 3
f 3 1 2
f 18 2 9
f 16 12 2
f 19 12 16
f 2 18 16
f 18 13 16
f 7 3 2
f 2 12 7
f 6 3 7
f 7 12 6
f 9 4 8
f 4 10 8
f 15 18 9
f 15 13 18
f 9 8 15
f 15 8 13
f 14 10 6
f 14 8 10
f 6 12 11
f 8 14 11
f 11 12 19
f 13 8 11
f 19 16 11
f 11 16 13
f 17 14 6
f 6 11 17
f 17 11 14
f 4 5 3
f 3 5 1

