# https://github.com/mikedh/trimesh
v -0.03334904 0.00771535 0.21515749
v -0.02351232 -0.04743296 0.20776013
v -0.02479929 0.00669351 0.17540277
v -0.05193874 -0.01861803 0.17120647
v -0.05091364 -0.01111543 0.20997384
v -0.02380614 -0.04797029 0.17269544
v -0.05329550 0.00659180 0.17660611
v -0.02472695 -0.03093760 0.21186919
v -0.04300237 -0.03164408 0.20753822
v -0.03420549 -0.04373747 0.17115648
v -0.05471569 0.00601396 0.20723130
v -0.04361757 -0.02877273 0.20938196
v -0.05044317 -0.01777427 0.20772593
v -0.02722122 -0.04737095 0.17185580
v -0.04142032 -0.03666483 0.17127373
v -0.03296916 -0.04254747 0.20670015
v -0.04752586 0.00671786 0.21143443
v -0.05468581 0.00306454 0.18715478
v -0.02839781 -0.01957579 0.21282165
v -0.02971498 -0.04249536 0.20973266
v -0.04871883 -0.02590607 0.17135169
v -0.05475249 -0.00407668 0.20454687
v -0.04771520 -0.02182825 0.20915445
v -0.02672307 -0.04629607 0.20696798
v -0.05242457 -0.00428274 0.20967411
v -0.05476335 0.00637170 0.18718733
v -0.02420238 -0.04497371 0.20977265
v -0.05445034 -0.00037133 0.20711422
f 2 6 3
f 1 3 7
f 2 3 8
f 8 3 1
f 2 8 27
f 1 5 12
f 17 5 1
f 26 11 17
f 17 7 26
f 1 7 17
f 19 8 1
f 1 12 19
f 20 27 8
f 8 19 20
f 20 19 12
f 2 27 20
f 5 17 25
f 25 17 11
f 25 28 5
f 11 28 25
f 14 6 2
f 14 3 6
f 14 10 3
f 15 10 16
f 23 12 5
f 5 13 23
f 15 16 9
f 12 23 9
f 9 23 13
f 9 20 12
f 9 16 20
f 5 28 22
f 22 13 5
f 22 11 26
f 22 28 11
f 2 20 24
f 20 16 24
f 24 14 2
f 10 14 24
f 24 16 10
f 13 22 4
f 4 7 3
f 3 10 4
f 4 10 15
f 21 9 13
f 13 4 21
f 15 9 21
f 21 4 15
f 18 22 26
f 18 4 22
f 26 7 18
f 7 4 18

