# https://github.com/mikedh/trimesh
v -0.11637834 0.02578855 0.10052195
v -0.11619246 0.00265582 0.10028299
v -0.11719531 0.00216450 0.09680716
v -0.11961556 0.02498612 0.09457611
v -0.11838647 0.00786105 0.09837290
v -0.11789047 0.02612675 0.09756055
v -0.11817490 0.02469122 0.09753403
v -0.11798902 0.00340592 0.09589511
v -0.11691074 0.00359664 0.09913915
v -0.11950489 0.00757012 0.09499628
f 3 1 2
f 2 1 5
f 6 3 4
f 1 3 6
f 4 5 7
f 7 5 1
f 7 6 4
f 1 6 7
f 8 3 2
f 4 3 8
f 2 5 9
f 9 8 2
f 10 5 4
f 4 8 10
f 10 9 5
f 8 9 10

