# https://github.com/mikedh/trimesh
v -0.12799988 0.03543112 0.05972077
v -0.12521203 0.00640389 0.05885041
v -0.12155044 0.03395286 -0.00668572
v -0.12892096 0.03270568 0.05825551
v -0.13013118 0.01874810 0.05796477
v -0.12964335 0.03173827 0.02134620
v -0.12806859 0.01155628 0.05824518
v -0.12999782 0.02869958 0.05775310
v -0.12965450 0.03197655 0.05422657
v -0.12495064 0.00933483 -0.00706984
v -0.13017900 0.01877658 0.01359222
v -0.12983770 0.01507305 0.01735056
v -0.12557528 0.02821915 -0.00039392
v -0.12587964 0.01123493 -0.00461321
v -0.12975930 0.01530764 0.05430381
v -0.12984698 0.02481297 0.01398977
v -0.12572258 0.03174781 0.00317708
v -0.12591377 0.02092308 -0.00416073
v -0.12304203 0.03205768 -0.00433384
f 1 2 3
f 3 2 10
f 6 1 3
f 3 10 18
f 12 10 2
f 12 5 11
f 2 1 7
f 1 5 7
f 7 12 2
f 8 5 1
f 8 6 11
f 11 5 8
f 11 18 14
f 14 18 10
f 14 12 11
f 10 12 14
f 17 6 3
f 5 12 15
f 15 7 5
f 12 7 15
f 1 6 9
f 6 8 9
f 4 8 1
f 1 9 4
f 4 9 8
f 19 17 3
f 19 13 17
f 3 18 19
f 18 13 19
f 16 18 11
f 16 13 18
f 11 6 16
f 6 17 16
f 17 13 16

