# https://github.com/mikedh/trimesh
v 0.09752922 0.02678249 0.10391492
v 0.09938362 0.02520252 0.10375751
v 0.09820608 0.02371235 0.04335949
v 0.09411255 0.02687831 0.04344358
v 0.08760418 0.03205971 0.06231619
v 0.08883642 0.03371813 0.10373512
v 0.09118718 0.02940927 0.06195155
v 0.09269711 0.03068322 0.10351679
v 0.09590779 0.02555272 0.04337812
v 0.09347765 0.03005754 0.10393341
v 0.09636571 0.02518643 0.04333622
f 5 2 6
f 5 6 4
f 4 3 5
f 7 2 5
f 5 3 7
f 7 3 2
f 9 4 6
f 6 8 9
f 10 6 2
f 10 8 6
f 3 4 11
f 4 9 11
f 11 8 3
f 11 9 8
f 1 10 2
f 8 10 1
f 2 3 1
f 3 8 1

