# https://github.com/mikedh/trimesh
v 0.10345322 -0.04234421 0.04337813
v 0.10143425 -0.08377857 0.04324176
v 0.10345322 -0.04234421 0.00188468
v 0.02801057 -0.04234421 0.00188468
v 0.02801057 -0.04234421 0.04337813
v 0.07723637 -0.08751608 0.00167898
v 0.02826355 -0.07859759 0.04333540
v 0.10108819 -0.08048128 0.00266176
v 0.04763321 -0.08352696 0.00164365
v 0.06250363 -0.08378024 0.04327407
v 0.08419378 -0.08747346 0.00195172
v 0.02877569 -0.07998343 0.00172996
v 0.08419848 -0.08753433 0.00571899
v 0.03618100 -0.07989697 0.04327311
v 0.10066649 -0.08298096 0.01389693
v 0.07724608 -0.08731641 0.00544049
v 0.09703049 -0.08325846 0.00272420
f 3 9 4
f 4 7 5
f 5 7 1
f 4 9 12
f 12 7 4
f 9 7 12
f 1 7 2
f 2 3 1
f 11 2 13
f 10 2 7
f 13 2 10
f 10 16 13
f 9 3 6
f 3 11 6
f 6 10 9
f 16 10 6
f 13 16 6
f 6 11 13
f 3 2 8
f 8 11 3
f 14 7 9
f 9 10 14
f 14 10 7
f 2 11 15
f 15 8 2
f 11 8 17
f 17 15 11
f 8 15 17
f 1 3 5
f 5 3 4

