# https://github.com/mikedh/trimesh
v -0.03844165 -0.06177691 -0.15978066
v -0.03542209 -0.06338131 -0.16046979
v -0.06181806 -0.04877746 -0.16044317
v -0.06268468 -0.05016914 -0.17535914
v -0.04216296 -0.06183960 -0.17577603
v -0.03600145 -0.06473660 -0.17543441
v -0.04771108 -0.05683291 -0.15960690
v -0.06107407 -0.05118598 -0.17581480
v -0.05661867 -0.05384112 -0.17589552
v -0.06021759 -0.04981676 -0.16076077
v -0.04795661 -0.05850289 -0.17437544
v -0.05596805 -0.05276469 -0.16457318
f 4 3 6
f 6 3 2
f 2 5 6
f 1 5 2
f 7 5 1
f 2 3 1
f 3 7 1
f 10 7 3
f 10 12 7
f 10 3 4
f 4 6 8
f 8 10 4
f 7 12 9
f 9 6 5
f 9 8 6
f 12 10 9
f 10 8 9
f 11 5 7
f 7 9 11
f 11 9 5

