# https://github.com/mikedh/trimesh
v 0.03178270 -0.04234421 0.07732733
v 0.03185594 -0.07960472 0.07735063
v 0.02801057 -0.04234421 0.00188468
v 0.00537777 -0.04234421 0.00188468
v 0.00537777 -0.04234421 0.07732733
v 0.02805637 -0.07983480 0.00187541
v 0.03192380 -0.07921718 0.04335973
v 0.01378025 -0.07625084 0.07755310
v 0.01021625 -0.07582629 0.00178114
v 0.03178270 -0.04234421 0.04337813
v 0.02086045 -0.07836978 0.00185070
v 0.00588067 -0.07440819 0.07742600
v 0.00581524 -0.07470110 0.00184073
f 5 8 1
f 4 13 5
f 7 1 2
f 1 8 2
f 10 1 7
f 7 3 10
f 6 3 7
f 7 2 6
f 6 2 8
f 8 5 12
f 12 5 13
f 11 6 8
f 8 12 11
f 9 12 13
f 9 11 12
f 4 3 9
f 9 13 4
f 3 6 9
f 6 11 9
f 4 5 10
f 10 3 4
f 10 5 1

