# https://github.com/mikedh/trimesh
v 0.10969567 -0.05079534 -0.12642724
v 0.12217858 -0.04606402 -0.16034666
v 0.11559273 -0.04489512 -0.13501409
v 0.09968108 -0.04611634 -0.16031702
v 0.10491202 -0.08015344 -0.15887721
v 0.11920662 -0.04492845 -0.14609260
v 0.11362252 -0.04564132 -0.13056861
v 0.09813253 -0.07535074 -0.13077768
v 0.11083896 -0.07061113 -0.16108099
v 0.11448923 -0.04793950 -0.13548612
v 0.09761477 -0.07865910 -0.13476341
v 0.10850506 -0.07497738 -0.16085018
v 0.11810678 -0.05544001 -0.16114920
v 0.10618482 -0.06984942 -0.14314857
v 0.11812629 -0.04797341 -0.14658440
v 0.09940286 -0.07981721 -0.14156703
v 0.10609166 -0.06237636 -0.13208535
v 0.10091960 -0.07829358 -0.14245632
v 0.10640617 -0.07375090 -0.15043355
v 0.11364366 -0.05508917 -0.14308455
v 0.11759343 -0.05135001 -0.15031625
v 0.10978969 -0.05502953 -0.13201701
v 0.09946703 -0.07388016 -0.13183826
v 0.09907700 -0.07708687 -0.13571508
v 0.11025539 -0.07016157 -0.15766208
v 0.11751624 -0.05516030 -0.15749388
f 8 4 11
f 1 4 8
f 1 8 17
f 16 18 11
f 5 18 16
f 11 4 16
f 16 4 5
f 19 18 5
f 14 18 19
f 24 18 14
f 24 8 11
f 11 18 24
f 14 17 23
f 23 17 8
f 23 24 14
f 8 24 23
f 20 17 14
f 14 19 20
f 7 4 1
f 7 3 4
f 6 15 2
f 6 3 15
f 2 4 6
f 4 3 6
f 15 20 21
f 21 20 19
f 2 15 21
f 1 17 22
f 17 20 22
f 12 19 5
f 5 4 12
f 4 9 12
f 25 21 19
f 19 12 25
f 25 12 9
f 2 21 26
f 26 25 9
f 21 25 26
f 10 22 20
f 15 3 10
f 10 20 15
f 3 7 10
f 10 7 1
f 1 22 10
f 2 26 13
f 13 26 9
f 13 4 2
f 13 9 4

