# https://github.com/mikedh/trimesh
v 0.10306435 -0.04592997 -0.05844634
v 0.10007580 -0.05182826 -0.05818607
v 0.10002982 -0.06946717 -0.12684055
v 0.03555483 -0.04611634 -0.13013996
v 0.03555483 -0.04611634 -0.05846944
v 0.09213682 -0.04611634 -0.13013996
v 0.03555483 -0.06497701 -0.05846944
v 0.10433063 -0.04841426 -0.10277422
v 0.03555483 -0.06497701 -0.13013996
v 0.09331786 -0.06340418 -0.05826067
v 0.09601186 -0.05897760 -0.05817380
v 0.10333625 -0.04605993 -0.08865909
f 8 3 6
f 5 7 11
f 3 7 9
f 4 6 9
f 9 6 3
f 3 11 10
f 10 7 3
f 11 7 10
f 1 3 8
f 4 5 1
f 1 6 4
f 2 5 11
f 2 1 5
f 2 11 3
f 3 1 2
f 8 6 12
f 12 1 8
f 6 1 12
f 7 5 9
f 9 5 4

