# https://github.com/mikedh/trimesh
v -0.07665951 -0.02458704 0.14434448
v -0.07214785 -0.04478727 0.13320217
v -0.07364353 -0.03828060 0.11130471
v -0.09548541 -0.02217676 0.10384670
v -0.09426431 -0.02177316 0.12161740
v -0.08699521 -0.02830613 0.10401113
v -0.07233533 -0.03757715 0.14029129
v -0.08268339 -0.02222586 0.13921831
v -0.09264919 -0.02385238 0.12146127
v -0.07439662 -0.04208768 0.12758276
v -0.09051937 -0.02573710 0.10352472
v -0.07208370 -0.03970287 0.11530414
v -0.08491549 -0.02474509 0.13465414
v -0.08611925 -0.02172660 0.13556289
v -0.08163015 -0.02506288 0.13874499
v -0.07379108 -0.04330745 0.13205831
v -0.07212173 -0.04348921 0.12769974
v -0.09377395 -0.02348611 0.10407648
v -0.08414828 -0.03135866 0.12847898
v -0.07419452 -0.03620418 0.13905433
v -0.07708825 -0.03915429 0.13157878
v -0.07740411 -0.03216492 0.13837528
f 12 1 7
f 9 5 4
f 3 1 12
f 3 6 1
f 4 1 11
f 1 6 11
f 8 1 4
f 5 9 16
f 4 2 16
f 16 9 4
f 6 3 10
f 10 11 6
f 19 13 5
f 2 7 20
f 15 7 1
f 1 8 15
f 2 10 17
f 17 10 3
f 17 3 12
f 12 7 17
f 17 7 2
f 4 11 18
f 11 10 18
f 18 2 4
f 18 10 2
f 5 16 21
f 21 19 5
f 21 16 2
f 13 19 21
f 2 20 21
f 14 15 8
f 13 15 14
f 5 13 14
f 4 5 14
f 14 8 4
f 22 15 13
f 13 21 22
f 22 21 20
f 22 20 7
f 7 15 22

