# https://github.com/mikedh/trimesh
v 0.10960813 0.01662572 -0.10379289
v 0.12646304 -0.00248866 -0.14950258
v 0.11119360 0.01813560 -0.25328520
v 0.11425838 -0.00116811 -0.26461051
v 0.10345322 -0.00085075 -0.13013996
v 0.12779355 -0.00308563 -0.21284171
v 0.11449233 0.01469920 -0.21286965
v 0.12278298 -0.00182682 -0.13087983
v 0.10120707 0.02691409 -0.21987962
v 0.12284402 -0.00262746 -0.25940582
v 0.12503679 0.00046281 -0.14962904
v 0.11254205 0.01265355 -0.10379135
v 0.10293686 0.02105933 -0.13011156
v 0.10917043 0.01980953 -0.25372676
v 0.10345322 -0.00085075 -0.23198754
v 0.10356290 0.02522993 -0.20618989
v 0.12197680 -0.00015205 -0.25865365
v 0.11073136 0.01537686 -0.10405406
v 0.12181517 0.00096085 -0.13092510
v 0.11970115 -0.00238849 -0.26215204
v 0.11295026 0.00525730 -0.26292305
v 0.10281071 0.02472030 -0.23202330
v 0.10144688 0.02708054 -0.20591489
v 0.11131284 0.01444340 -0.10371012
v 0.11868494 0.00064338 -0.26162171
v 0.11558141 0.00433208 -0.26177556
f 15 5 9
f 5 8 12
f 9 5 23
f 5 13 23
f 23 14 9
f 23 16 3
f 3 14 23
f 3 16 7
f 6 3 7
f 7 11 6
f 26 14 3
f 22 15 9
f 9 14 22
f 22 14 15
f 11 12 2
f 6 11 2
f 2 5 6
f 2 8 5
f 11 7 18
f 24 12 18
f 18 12 11
f 17 26 3
f 17 3 6
f 6 10 17
f 20 15 4
f 20 10 6
f 6 5 20
f 5 15 20
f 14 26 21
f 4 15 21
f 15 14 21
f 19 12 8
f 8 2 19
f 19 2 12
f 1 7 16
f 1 18 7
f 16 23 1
f 1 23 13
f 1 13 5
f 24 18 1
f 1 12 24
f 5 12 1
f 25 17 10
f 26 17 25
f 10 20 25
f 25 21 26
f 25 20 4
f 4 21 25

