# https://github.com/mikedh/trimesh
v -0.06661812 -0.02619496 0.15329596
v -0.03988782 -0.03857208 0.14522571
v -0.03988782 -0.02348355 0.11127652
v -0.08063212 -0.03341628 0.11033011
v -0.06237079 -0.04132168 0.14855824
v -0.03988782 -0.03857208 0.11127652
v -0.07665951 -0.02458704 0.14434448
v -0.03988782 -0.02348355 0.14522571
v -0.07364353 -0.03828060 0.11130471
v -0.07233533 -0.03757715 0.14029129
f 4 3 6
f 2 1 5
f 5 6 2
f 7 3 4
f 7 5 1
f 8 1 2
f 3 7 8
f 8 7 1
f 4 6 9
f 6 5 9
f 10 7 4
f 5 7 10
f 4 9 10
f 10 9 5
f 8 6 3
f 2 6 8

