# https://github.com/mikedh/trimesh
v -0.12276856 0.05361580 -0.19795393
v -0.12403745 0.05079383 -0.19810257
v -0.13457415 0.02441265 -0.20932165
v -0.12290862 0.05371607 -0.20930191
v -0.12423488 0.05084566 -0.20938823
v -0.13459687 0.02441670 -0.19811891
v -0.12600242 0.04642862 -0.20942485
v -0.13275367 0.02941984 -0.19797762
v -0.12695491 0.04384496 -0.19797400
v -0.12703709 0.04387080 -0.20928751
v -0.13343312 0.02780917 -0.20927100
v -0.12593136 0.04635686 -0.19807512
v -0.13347764 0.02757107 -0.19806592
v -0.13278649 0.02949773 -0.20932538
f 3 1 6
f 1 3 4
f 4 3 7
f 7 3 14
f 5 4 7
f 1 4 5
f 11 3 6
f 11 14 3
f 9 5 8
f 6 1 8
f 1 9 8
f 1 5 2
f 14 8 10
f 10 8 5
f 7 14 10
f 10 5 7
f 14 11 13
f 13 8 14
f 13 11 6
f 6 8 13
f 12 5 9
f 12 2 5
f 12 9 1
f 1 2 12

