# https://github.com/mikedh/trimesh
v -0.05874848 -0.01593928 0.08864372
v -0.05867464 -0.04600055 0.08865233
v -0.05826904 -0.04533253 0.00187072
v -0.07383701 -0.01593928 0.00188468
v -0.07383701 -0.01593928 0.08864372
v -0.07272482 -0.03669790 0.00193596
v -0.05874848 -0.01593928 0.00188468
v -0.07101195 -0.03800164 0.08895402
v -0.06373249 -0.04201461 0.00174399
v -0.06398500 -0.04256896 0.08889720
f 3 1 2
f 7 1 3
f 3 2 6
f 5 8 1
f 4 6 5
f 5 6 8
f 1 8 10
f 10 2 1
f 8 6 10
f 10 6 2
f 9 6 4
f 3 6 9
f 4 7 9
f 9 7 3
f 1 7 5
f 5 7 4

