# https://github.com/mikedh/trimesh
v 0.06864995 0.03442558 0.15185020
v 0.08180617 -0.00073544 0.14571790
v 0.08634997 0.03556748 0.10359742
v 0.07348828 0.04445582 0.10278522
v 0.06573189 -0.00085075 0.10373225
v 0.08042872 0.03091111 0.14136565
v 0.07310040 -0.00165542 0.15505621
v 0.08459255 -0.00085075 0.10373225
v 0.08073222 0.02083960 0.14484725
v 0.07685511 0.03117228 0.14510038
f 1 4 5
f 5 7 1
f 5 4 8
f 8 4 3
f 8 7 5
f 2 8 3
f 7 8 2
f 9 1 7
f 9 10 1
f 7 2 9
f 9 2 3
f 6 9 3
f 10 9 6
f 3 4 6
f 4 1 6
f 1 10 6

