# https://github.com/mikedh/trimesh
v -0.01368952 0.08496978 -0.18682210
v 0.00385561 0.08178082 -0.19720571
v -0.01815831 0.08901555 -0.21356219
v -0.02610668 0.09004119 -0.24688685
v -0.03988782 0.07459190 -0.23198754
v 0.00076998 0.08540308 -0.24682097
v 0.00027121 0.08510257 -0.21743950
v -0.03988782 0.07459190 -0.19803835
v -0.01804816 0.08920079 -0.22339030
v 0.00623471 0.08282419 -0.24719209
v 0.00075420 0.08285097 -0.19844028
v -0.04020656 0.09074285 -0.19834364
v -0.02010271 0.08789487 -0.24745786
v -0.01730068 0.08566097 -0.18675126
v -0.03969731 0.09068702 -0.23204832
v -0.02186837 0.08894377 -0.20616398
v -0.01447311 0.08518283 -0.18720190
v -0.02927222 0.08933029 -0.19858136
v -0.01796496 0.08583414 -0.18717781
f 12 5 8
f 8 14 12
f 15 5 12
f 12 4 15
f 15 4 5
f 10 5 13
f 5 4 13
f 6 7 10
f 10 13 6
f 6 13 4
f 10 7 2
f 2 5 10
f 2 8 5
f 12 14 19
f 7 3 1
f 14 8 1
f 8 2 1
f 12 19 18
f 18 19 14
f 7 6 9
f 9 3 7
f 9 6 4
f 9 4 12
f 12 3 9
f 11 2 7
f 7 1 11
f 11 1 2
f 14 1 17
f 17 1 3
f 16 3 12
f 12 18 16
f 16 17 3
f 16 18 14
f 14 17 16

