# https://github.com/mikedh/trimesh
v -0.04997259 0.01770416 0.21017379
v -0.04729580 -0.00461624 0.21124326
v -0.05426122 0.02705087 0.16722761
v -0.05646562 0.02622266 0.16546547
v -0.05471569 0.00601396 0.20723130
v -0.05566323 0.00730265 0.17058585
v -0.04927124 0.02472016 0.20836914
v -0.05242457 -0.00428274 0.20967411
v -0.05893518 0.00698035 0.16776912
v -0.05102048 0.01680949 0.20941882
v -0.05040623 0.02363325 0.20704592
v -0.04731720 0.00666368 0.21142207
v -0.05423890 0.00970389 0.20695559
v -0.05333800 -0.00447409 0.20849614
v -0.04752586 0.00671786 0.21143443
v -0.04756770 -0.00462950 0.21122351
f 6 2 9
f 6 3 2
f 2 3 12
f 12 15 2
f 4 6 9
f 3 6 4
f 7 12 3
f 3 4 7
f 2 15 16
f 15 8 16
f 14 5 9
f 14 8 5
f 14 16 8
f 9 2 14
f 2 16 14
f 1 8 15
f 15 12 1
f 12 7 1
f 11 7 4
f 13 11 4
f 9 5 13
f 13 4 9
f 7 11 10
f 11 13 10
f 10 1 7
f 10 13 5
f 5 8 10
f 8 1 10

