# https://github.com/mikedh/trimesh
v 0.01363596 -0.07739496 -0.03588241
v 0.01081330 -0.07663728 -0.03570148
v 0.00278360 -0.07608612 -0.13031941
v -0.00039730 -0.07508646 -0.12989280
v 0.00289506 -0.07525803 -0.10742970
v 0.00015685 -0.07356914 -0.03571442
v 0.01323274 -0.07883880 -0.13017737
v 0.00668580 -0.07557666 -0.03968171
v 0.01048543 -0.07812859 -0.12990240
v 0.00223537 -0.07419835 -0.03588978
f 4 6 5
f 5 7 4
f 5 6 1
f 1 7 5
f 3 6 4
f 4 7 3
f 9 7 1
f 1 3 9
f 9 3 7
f 1 6 2
f 2 3 1
f 2 8 3
f 6 3 10
f 3 8 10
f 10 2 6
f 8 2 10

