# https://github.com/mikedh/trimesh
v 0.12388344 -0.04155483 0.07663541
v 0.12734097 -0.04148120 0.06178374
v 0.12602891 -0.04097691 0.01024287
v 0.10345322 -0.04234421 0.00188468
v 0.10160516 -0.08097443 0.06913149
v 0.10345322 -0.04234421 0.07732733
v 0.10995674 -0.07318109 0.06846730
v 0.10253584 -0.07923325 0.00220723
v 0.10407880 -0.07300399 0.08515911
v 0.10137930 -0.08108399 0.00627804
v 0.11752507 -0.05861201 0.07223637
v 0.11078021 -0.07645744 0.02867256
v 0.12373265 -0.04152352 0.00266657
v 0.10153854 -0.07798919 0.08027599
v 0.12110941 -0.05133209 0.07232813
v 0.11004078 -0.06967958 0.07567526
v 0.12531746 -0.04785962 0.02117328
v 0.11409012 -0.06994538 0.05790039
v 0.10382913 -0.07932828 0.00667413
v 0.10722913 -0.07994329 0.05034622
v 0.10246176 -0.07546920 0.08444150
v 0.10380460 -0.07965280 0.06863859
v 0.12161427 -0.04791667 0.07613609
v 0.11741567 -0.05861195 0.00707589
v 0.11772655 -0.06242279 0.06149920
v 0.10771793 -0.07958413 0.02871056
v 0.11083864 -0.07623592 0.05037391
v 0.10371296 -0.07625658 0.07958885
v 0.12511160 -0.04764714 0.06143223
v 0.10558569 -0.07148418 0.08418150
v 0.12109962 -0.05123525 0.00692817
v 0.11380416 -0.06966610 0.01786003
v 0.11010687 -0.06959156 0.00340654
v 0.10647545 -0.07305219 0.07950740
v 0.12159182 -0.04777348 0.00331249
v 0.12490887 -0.04428635 0.01053299
v 0.12141363 -0.05518564 0.01765095
v 0.11009260 -0.07308860 0.01059965
v 0.10415190 -0.07392183 0.08345906
v 0.10650914 -0.07647863 0.00694182
v 0.10437031 -0.07747529 0.00288854
f 1 6 9
f 3 13 4
f 4 6 3
f 6 1 3
f 3 1 2
f 2 17 3
f 20 5 10
f 22 20 27
f 5 20 22
f 29 17 2
f 2 1 29
f 4 13 8
f 13 33 8
f 10 4 8
f 23 29 1
f 5 22 14
f 10 5 14
f 14 4 10
f 14 6 4
f 7 22 27
f 10 8 19
f 33 40 41
f 41 8 33
f 40 19 41
f 41 19 8
f 11 29 15
f 15 23 11
f 29 23 15
f 36 3 17
f 13 3 36
f 18 7 27
f 17 29 18
f 16 7 11
f 9 6 21
f 6 14 21
f 28 14 22
f 22 7 28
f 28 21 14
f 38 40 33
f 37 36 17
f 31 36 37
f 13 36 35
f 35 36 31
f 35 33 13
f 11 7 25
f 7 18 25
f 25 29 11
f 25 18 29
f 11 23 30
f 30 16 11
f 30 1 9
f 30 23 1
f 7 16 34
f 34 28 7
f 16 30 34
f 34 30 9
f 21 28 34
f 32 38 24
f 31 37 24
f 24 37 32
f 24 38 33
f 33 35 24
f 24 35 31
f 12 38 32
f 32 37 12
f 12 37 17
f 27 20 12
f 12 19 40
f 40 38 12
f 12 18 27
f 17 18 12
f 9 21 39
f 39 34 9
f 21 34 39
f 10 19 26
f 19 12 26
f 26 20 10
f 26 12 20

