# https://github.com/mikedh/trimesh
v -0.02010271 0.08789487 -0.24745786
v -0.02479929 0.05195910 -0.24707607
v -0.02458822 0.05691824 -0.26632192
v -0.06618280 0.07431793 -0.26642680
v -0.06629275 0.07459190 -0.24707607
v -0.06666907 0.03270020 -0.25820227
v -0.02487361 0.07411951 -0.26680539
v -0.02473178 0.05240403 -0.26470665
v -0.06593325 0.06392953 -0.26592110
v -0.07010673 0.05212369 -0.26173306
v -0.02935607 0.03072959 -0.26083925
v -0.06994410 0.04367156 -0.25947871
v -0.02852324 0.03324390 -0.26131948
v -0.07012725 0.04479867 -0.25965570
f 1 7 4
f 3 4 7
f 3 7 1
f 5 2 1
f 5 10 14
f 1 4 5
f 4 10 5
f 11 2 6
f 2 5 6
f 1 2 8
f 8 3 1
f 12 5 14
f 12 6 5
f 14 10 12
f 10 6 12
f 9 10 4
f 9 6 10
f 11 6 9
f 9 3 11
f 4 3 9
f 11 3 13
f 3 8 13
f 13 2 11
f 13 8 2

