# https://github.com/mikedh/trimesh
v 0.05097005 0.06407448 -0.23212769
v 0.05064336 -0.00085075 -0.23198754
v 0.05137321 0.02265480 -0.26564263
v 0.00126707 0.07028441 -0.26565650
v 0.00160564 0.06704763 -0.23198754
v 0.00171390 -0.00060381 -0.25867912
v 0.05070634 0.06347934 -0.25464790
v 0.03756874 0.07157201 -0.23167215
v 0.05064462 -0.00080239 -0.26173484
v 0.00186134 0.04941127 -0.26525510
v 0.00160564 -0.00085075 -0.23198754
v 0.05046604 0.04389690 -0.26634569
v 0.00462341 0.08373080 -0.24715171
v 0.03230585 0.00374035 -0.26158481
v 0.00181959 0.01505340 -0.26146766
v 0.00116346 0.07689367 -0.26336307
v 0.02455938 0.07679739 -0.23224154
v 0.03661272 0.07084225 -0.25424428
v 0.00957948 0.01127379 -0.26138385
v 0.03534108 0.05504937 -0.26535987
v 0.02275471 0.07412628 -0.25876187
v 0.02350041 0.07601679 -0.25395996
v 0.00488460 0.06984249 -0.26539731
v 0.02294818 0.07131087 -0.26151313
v 0.01173993 0.07509212 -0.26192067
f 3 2 9
f 11 2 8
f 16 6 11
f 11 9 2
f 6 9 11
f 12 7 3
f 3 10 12
f 8 2 1
f 1 7 8
f 1 2 3
f 3 7 1
f 15 10 3
f 16 11 5
f 5 11 8
f 4 12 10
f 10 15 4
f 4 6 16
f 4 15 6
f 8 7 18
f 7 21 18
f 18 21 22
f 19 15 3
f 6 15 19
f 16 5 13
f 13 21 16
f 22 21 13
f 23 20 12
f 12 4 23
f 23 4 16
f 16 21 25
f 7 12 24
f 24 21 7
f 12 20 24
f 24 25 21
f 16 25 24
f 24 23 16
f 20 23 24
f 14 9 6
f 6 19 14
f 3 9 14
f 14 19 3
f 17 5 8
f 17 13 5
f 22 13 17
f 8 18 17
f 17 18 22

