# https://github.com/mikedh/trimesh
v -0.06380329 -0.04240906 0.14610401
v -0.05730824 -0.05588735 0.14020228
v -0.05698495 -0.04708454 0.08883682
v -0.06476671 -0.04202468 0.08839702
v -0.07071535 -0.04578121 0.13085204
v -0.06211227 -0.04374276 0.08827426
v -0.06986747 -0.04656465 0.13476379
v -0.07233533 -0.03757715 0.14029129
v -0.06025246 -0.05286791 0.13312907
v -0.05968269 -0.05417401 0.13958534
v -0.07364353 -0.03828060 0.11130471
v -0.06979694 -0.04306436 0.13839951
f 1 2 3
f 8 12 1
f 11 5 8
f 4 5 11
f 11 8 4
f 4 8 1
f 3 2 9
f 2 5 9
f 12 8 7
f 7 8 5
f 5 4 6
f 3 9 6
f 6 9 5
f 6 1 3
f 6 4 1
f 10 5 2
f 10 7 5
f 12 7 10
f 2 1 10
f 1 12 10

