# https://github.com/mikedh/trimesh
v 0.05818763 -0.06874914 -0.16031702
v 0.05639503 -0.08789975 -0.15990338
v 0.05818763 -0.06874914 -0.24707607
v 0.03932696 -0.06874914 -0.24707607
v 0.03932696 -0.06874914 -0.16031702
v 0.05521761 -0.09161967 -0.24718296
v 0.05753713 -0.09097194 -0.19675358
v 0.03810827 -0.08488639 -0.15983301
v 0.03982427 -0.09049709 -0.24761138
v 0.03813847 -0.08909572 -0.19686044
f 2 1 8
f 8 1 5
f 5 4 8
f 6 9 3
f 9 4 3
f 10 2 8
f 8 4 10
f 10 4 9
f 6 3 7
f 2 10 7
f 7 3 1
f 1 2 7
f 7 9 6
f 7 10 9
f 4 5 3
f 3 5 1

