# https://github.com/mikedh/trimesh
v -0.06252062 0.01046564 -0.06224158
v -0.06975978 -0.03982746 -0.06188650
v -0.06252062 -0.02725568 -0.09241864
v -0.11469439 0.01033011 -0.09251417
v -0.11333638 0.01015493 -0.06215557
v -0.10176225 -0.02212131 -0.09241130
v -0.06252062 0.01046564 -0.09241864
v -0.08987239 -0.02895790 -0.09243219
v -0.11331143 -0.00758245 -0.06216930
v -0.11543996 0.00620301 -0.09294792
v -0.10169012 -0.02184152 -0.06219959
v -0.11541360 -0.00354134 -0.09275285
v -0.08969408 -0.02863859 -0.06220052
v -0.11411064 -0.00785975 -0.09252531
v -0.11501361 0.00239726 -0.08525352
f 1 2 3
f 5 2 1
f 7 3 10
f 1 3 7
f 4 5 1
f 1 7 4
f 10 5 4
f 4 7 10
f 8 3 2
f 10 3 8
f 6 8 11
f 11 14 6
f 6 14 12
f 10 8 12
f 12 8 6
f 2 5 9
f 9 11 2
f 14 11 9
f 9 12 14
f 13 8 2
f 2 11 13
f 13 11 8
f 15 5 10
f 10 12 15
f 15 9 5
f 12 9 15

