# https://github.com/mikedh/trimesh
v -0.00063331 -0.07289788 0.00205019
v -0.00202265 -0.07248888 0.00206707
v -0.00080204 -0.07301592 -0.00935910
v -0.02071918 -0.06584218 -0.00944943
v -0.02076384 -0.06566226 0.00199356
v -0.01416378 -0.06849244 -0.00964110
v -0.00183873 -0.07270514 -0.00932784
v -0.01803644 -0.06682084 0.00190297
v -0.01804291 -0.06693383 -0.00946877
v -0.01387489 -0.06838505 0.00183673
f 5 1 4
f 1 3 4
f 4 3 6
f 6 3 7
f 6 10 8
f 5 4 8
f 2 10 6
f 6 7 2
f 2 8 10
f 2 3 1
f 2 7 3
f 2 1 5
f 5 8 2
f 9 4 6
f 6 8 9
f 9 8 4

