# https://github.com/mikedh/trimesh
v 0.01984614 0.05367397 0.20928466
v 0.04106982 0.04263354 0.20712511
v 0.02929618 0.05807899 0.16627018
v 0.00537777 0.04441484 0.16408638
v 0.00542688 0.04350096 0.21101329
v 0.04253531 0.04387302 0.17052274
v 0.00579754 0.06148650 0.16954879
v 0.02944660 0.05176377 0.20656562
v 0.02043945 0.04438790 0.21054142
v 0.03687476 0.05385426 0.16600650
v 0.00840708 0.05925074 0.20447736
v 0.00469951 0.05957016 0.19463256
v 0.03988333 0.04423112 0.20679562
v 0.00546598 0.05667300 0.20957950
v 0.04159957 0.04640885 0.16944525
v 0.02230280 0.05517020 0.20676087
v 0.00536164 0.05932485 0.17136298
v 0.00503148 0.05954339 0.20495144
v 0.03631618 0.04785012 0.20448626
v 0.01203340 0.05619299 0.20918181
f 4 5 12
f 2 4 6
f 5 4 2
f 7 3 4
f 13 2 10
f 4 3 10
f 9 14 5
f 5 2 9
f 17 4 12
f 12 7 17
f 17 7 4
f 15 2 6
f 15 10 2
f 6 4 15
f 4 10 15
f 8 10 3
f 3 16 8
f 11 16 3
f 3 7 11
f 13 10 19
f 19 8 13
f 10 8 19
f 1 2 13
f 13 8 1
f 1 9 2
f 14 9 1
f 1 8 16
f 12 5 18
f 5 14 18
f 18 7 12
f 18 11 7
f 14 1 20
f 20 1 16
f 16 11 20
f 20 18 14
f 11 18 20

