# https://github.com/mikedh/trimesh
v -0.06252062 -0.01971142 -0.13013996
v -0.06590577 -0.04406385 -0.12989563
v -0.06252062 -0.01971142 -0.14522849
v -0.09866929 -0.02320697 -0.14513045
v -0.09871491 -0.02324689 -0.13025528
v -0.06617117 -0.04465340 -0.14500210
v -0.09534336 -0.02537930 -0.13010939
v -0.07960803 -0.03596463 -0.14537950
v -0.07942424 -0.03560819 -0.13019294
v -0.09527057 -0.02534978 -0.14528195
v -0.08641587 -0.03125472 -0.14535336
f 1 2 3
f 3 2 6
f 7 1 5
f 7 2 1
f 5 6 9
f 6 2 9
f 9 7 5
f 2 7 9
f 5 1 4
f 1 3 4
f 8 3 6
f 8 6 5
f 5 4 8
f 10 4 3
f 10 8 4
f 3 8 11
f 11 10 3
f 8 10 11

