# https://github.com/mikedh/trimesh
v 0.00477917 0.02903331 0.26134440
v 0.00533375 0.00662972 0.26280024
v 0.00537777 0.00669351 0.24707329
v -0.01894408 0.02322897 0.24637031
v -0.02108058 0.00707377 0.26611684
v 0.00531497 0.03175399 0.24679344
v -0.01511880 0.02281829 0.26117818
v -0.02616188 0.00774660 0.24890424
v -0.01139608 0.02888639 0.24611165
v -0.00442538 0.02834718 0.26106600
v -0.01889308 0.01982558 0.25780213
v -0.01391605 0.02475547 0.25728963
v -0.01129710 0.02548572 0.26101050
v -0.01708844 0.02194326 0.25730527
v -0.02041039 0.02128226 0.24690927
v -0.01077019 0.02831700 0.24987692
f 8 3 5
f 3 6 2
f 2 5 3
f 4 3 8
f 9 6 3
f 3 4 9
f 15 4 8
f 1 2 6
f 5 2 1
f 12 9 4
f 4 7 12
f 4 15 11
f 5 7 11
f 8 5 11
f 11 15 8
f 5 1 10
f 9 16 10
f 6 9 10
f 10 1 6
f 14 7 4
f 4 11 14
f 14 11 7
f 13 12 7
f 13 7 5
f 5 10 13
f 13 10 16
f 9 12 13
f 13 16 9

