# https://github.com/mikedh/trimesh
v -0.03252684 0.08453481 0.02455863
v -0.03234356 0.05195910 0.02451747
v -0.03234356 0.05195910 -0.09996290
v -0.06248103 0.08927510 -0.09998283
v -0.06252062 0.05195910 0.02451747
v -0.03256973 0.08484977 -0.09995178
v -0.04036290 0.08562414 0.02476113
v -0.06252062 0.05195910 -0.09996290
v -0.03689246 0.08571585 -0.09990743
v -0.06267405 0.08739147 0.02446805
v -0.03725973 0.08542239 0.02052081
f 10 7 4
f 5 7 10
f 2 7 5
f 11 4 7
f 10 4 8
f 8 5 10
f 9 6 4
f 4 11 9
f 1 7 2
f 1 11 7
f 6 9 1
f 1 9 11
f 4 6 3
f 3 8 4
f 3 1 2
f 6 1 3
f 5 8 3
f 2 5 3

