# https://github.com/mikedh/trimesh
v -0.09456006 0.05542257 0.11629697
v -0.08741222 0.07338043 0.11001022
v -0.09583092 0.07134630 0.10076213
v -0.10829593 0.06883583 0.07983503
v -0.09269768 0.03309844 0.08487159
v -0.09368302 0.08349369 0.08313555
v -0.11055943 0.04967630 0.09727567
v -0.09579727 0.06401456 0.10817086
v -0.09054081 0.06554926 0.11326817
v -0.08860076 0.07802944 0.10348582
v -0.08892554 0.05195910 0.08109946
v -0.10664366 0.06415503 0.08997739
v -0.10925476 0.03248916 0.10967831
v -0.12210530 0.03290880 0.08457613
v -0.08963142 0.07590940 0.10493865
v -0.10673125 0.05318999 0.10093513
v -0.09175173 0.06261836 0.11426778
v -0.08945907 0.07216433 0.10872290
v -0.10558781 0.07292456 0.08022233
v -0.08749195 0.07693970 0.10630490
v -0.11742871 0.05120789 0.08053162
v -0.10175313 0.03598992 0.11835883
v -0.11794588 0.03905825 0.09035777
v -0.11957536 0.03222524 0.09089471
v -0.09076073 0.07656822 0.10243194
v -0.10691513 0.04285247 0.10818753
v -0.09367741 0.06153730 0.11279734
v -0.10352027 0.07163422 0.08667821
v -0.11036378 0.06052537 0.08646937
v -0.11617433 0.05425082 0.07997576
v -0.11946234 0.04331787 0.08344672
v -0.11192895 0.03225616 0.10542905
v -0.11047628 0.03895971 0.10461975
v -0.10743927 0.06816538 0.08303470
v -0.11407416 0.04988155 0.09026479
v -0.11825281 0.04285415 0.08667997
v -0.11407907 0.05322844 0.08655790
f 2 5 11
f 22 5 1
f 21 5 14
f 21 11 5
f 14 5 24
f 5 32 24
f 9 5 2
f 9 1 5
f 6 11 19
f 13 33 32
f 13 5 22
f 13 32 5
f 7 33 26
f 22 1 26
f 26 13 22
f 33 13 26
f 1 9 17
f 17 9 8
f 20 11 6
f 6 10 20
f 2 11 20
f 25 19 28
f 25 10 6
f 6 19 25
f 12 35 7
f 29 35 12
f 11 21 30
f 31 21 14
f 31 35 21
f 36 35 31
f 7 26 16
f 16 12 7
f 1 8 16
f 16 26 1
f 27 8 1
f 1 17 27
f 27 17 8
f 2 20 15
f 15 20 10
f 10 25 15
f 23 35 36
f 23 33 7
f 7 35 23
f 23 24 32
f 32 33 23
f 14 24 23
f 23 31 14
f 36 31 23
f 3 25 28
f 28 12 3
f 8 15 3
f 3 15 25
f 3 16 8
f 12 16 3
f 29 12 34
f 28 19 34
f 34 12 28
f 37 35 29
f 29 30 37
f 21 35 37
f 37 30 21
f 2 15 18
f 18 15 8
f 18 9 2
f 8 9 18
f 4 30 29
f 29 34 4
f 4 34 19
f 4 19 11
f 11 30 4

