# https://github.com/mikedh/trimesh
v -0.07383701 -0.01593928 0.08864372
v -0.07271721 -0.03687346 0.08877373
v -0.07366243 -0.03826780 -0.09242782
v -0.08987239 -0.02895790 -0.09243219
v -0.09616867 -0.02054286 0.08840698
v -0.07383701 -0.01593928 -0.06224158
v -0.09071978 -0.02450073 0.08881057
v -0.08664381 -0.03078312 -0.09248820
v -0.09751745 -0.02425877 -0.06184551
v -0.08220106 -0.03049430 0.08892211
v -0.07929581 -0.03500971 -0.09249214
v -0.07532039 -0.03516445 0.08890240
f 3 2 9
f 9 5 6
f 6 5 1
f 6 1 2
f 2 3 6
f 1 5 7
f 7 5 9
f 4 3 9
f 9 6 4
f 1 7 10
f 10 7 9
f 8 4 6
f 2 1 12
f 1 10 12
f 9 2 12
f 12 10 9
f 11 6 3
f 11 8 6
f 3 4 11
f 4 8 11

