# https://github.com/mikedh/trimesh
v -0.02684247 0.08363483 -0.12992636
v -0.07760915 0.07459190 -0.16031702
v -0.06630264 0.09234576 -0.19812344
v -0.02927222 0.08933029 -0.19858136
v -0.08313971 0.08652491 -0.12773486
v -0.05932518 0.08925373 -0.13008196
v -0.06629275 0.07459190 -0.19803835
v -0.07769758 0.09071243 -0.16030099
v -0.03692273 0.08551601 -0.13015844
v -0.02595165 0.08844662 -0.19631839
v -0.07653701 0.08945354 -0.13063969
f 5 2 1
f 10 1 7
f 7 1 2
f 5 1 6
f 4 1 10
f 3 6 4
f 10 7 4
f 4 7 3
f 5 6 11
f 11 6 3
f 9 6 1
f 1 4 9
f 9 4 6
f 5 11 8
f 8 11 3
f 8 2 5
f 8 7 2
f 3 7 8

