# https://github.com/mikedh/trimesh
v 0.11856518 0.00480683 -0.02403399
v 0.11912163 -0.02260311 -0.02321446
v 0.11782874 -0.00117451 -0.03872464
v 0.11439187 -0.00606701 -0.05978041
v 0.10170120 -0.05650267 -0.03540701
v 0.11485679 -0.00413640 -0.05802781
v 0.10345322 -0.00462289 -0.02452025
v 0.10583404 -0.03945340 -0.05861075
v 0.11759127 -0.00763001 -0.03863681
v 0.11774499 0.00452288 -0.03145864
v 0.10811974 -0.05210551 -0.02331281
v 0.11463832 -0.03727431 -0.02292531
v 0.11034865 -0.02598106 -0.05816831
v 0.10188673 -0.04914398 -0.05448481
v 0.11776293 0.00630154 -0.02441923
v 0.10339910 -0.05740354 -0.02827473
v 0.10676373 -0.03700485 -0.05821817
v 0.11699740 0.00594523 -0.03188815
v 0.10580676 -0.05487416 -0.02543578
f 18 7 15
f 13 4 2
f 13 8 4
f 5 7 14
f 8 11 14
f 14 7 4
f 4 8 14
f 2 3 1
f 15 7 1
f 1 18 15
f 9 3 2
f 7 11 12
f 2 1 12
f 12 1 7
f 12 11 8
f 12 13 2
f 4 7 6
f 7 18 6
f 3 9 6
f 2 4 6
f 6 9 2
f 5 14 16
f 16 7 5
f 8 13 17
f 17 12 8
f 13 12 17
f 3 6 10
f 10 6 18
f 10 1 3
f 18 1 10
f 19 14 11
f 19 16 14
f 19 11 7
f 7 16 19

