# https://github.com/mikedh/trimesh
v -0.06252062 0.00669351 -0.13013996
v -0.06252062 -0.01971142 -0.13013996
v -0.06012549 -0.02051312 -0.26602056
v -0.09514956 0.00875893 -0.26495823
v -0.09871491 -0.02324689 -0.13025528
v -0.06263787 0.00724852 -0.26006006
v -0.09646981 0.00669351 -0.13013996
v -0.06252062 -0.02348355 -0.16786129
v -0.09900212 -0.02633995 -0.25536457
v -0.09751181 -0.02497553 -0.16774522
f 4 3 9
f 7 4 9
f 7 1 4
f 3 1 2
f 1 7 2
f 3 4 6
f 6 1 3
f 4 1 6
f 9 3 8
f 3 2 8
f 5 7 9
f 5 2 7
f 5 8 2
f 9 8 10
f 10 5 9
f 8 5 10

