# https://github.com/mikedh/trimesh
v 0.03159475 0.06664544 -0.15657237
v 0.04219516 0.06530430 -0.18697569
v 0.01140414 0.08130810 -0.21367043
v 0.00160402 0.07835857 -0.26215738
v 0.00160564 0.06704763 -0.24707607
v 0.03105480 0.07263480 -0.25708760
v 0.03340384 0.07363070 -0.22115185
v 0.03476517 0.06539720 -0.16042979
v 0.00146906 0.07793261 -0.15657553
v 0.00087358 0.08320958 -0.25660743
v 0.01881304 0.07243580 -0.26188487
v 0.04179634 0.06880051 -0.23153238
v 0.03722067 0.06983328 -0.20229049
v 0.02242039 0.07733941 -0.21361432
v 0.00517273 0.07660197 -0.15576483
v 0.01139112 0.07802780 -0.25907000
v 0.03282773 0.07405997 -0.24318509
v 0.00062806 0.08239802 -0.19472770
v 0.00107077 0.08037442 -0.26040588
v 0.02624301 0.07182588 -0.25978022
v 0.04305319 0.06695450 -0.20182071
v 0.02972868 0.07358602 -0.20615309
v 0.01180309 0.07451762 -0.15672518
v 0.00740131 0.08124917 -0.25630796
v 0.04076643 0.06981337 -0.21738101
v 0.01067384 0.08134961 -0.23111613
v 0.00398538 0.08145943 -0.19478149
v 0.00055715 0.07854297 -0.16061992
v 0.01232195 0.07651926 -0.26031149
v 0.02256868 0.07039118 -0.15676276
v 0.01497080 0.07744418 -0.19111062
v 0.02995502 0.07340854 -0.25624008
v 0.03989774 0.07022588 -0.23081852
v 0.00767508 0.08120096 -0.20239997
v 0.03028979 0.06724243 -0.15693590
f 28 10 5
f 19 5 10
f 4 5 19
f 18 10 28
f 18 3 10
f 11 5 4
f 2 8 5
f 3 18 27
f 12 25 21
f 6 17 12
f 21 2 12
f 12 2 5
f 10 3 26
f 3 17 26
f 10 26 24
f 24 26 17
f 7 17 3
f 25 17 7
f 5 11 20
f 20 12 5
f 6 12 20
f 28 5 9
f 5 15 9
f 9 18 28
f 9 27 18
f 33 17 25
f 25 12 33
f 33 12 17
f 3 9 23
f 23 9 15
f 21 25 13
f 25 7 13
f 13 7 22
f 32 17 6
f 6 24 32
f 32 24 17
f 14 7 3
f 22 7 14
f 29 20 11
f 4 19 29
f 29 11 4
f 6 20 29
f 3 27 34
f 34 9 3
f 27 9 34
f 3 23 31
f 31 14 3
f 23 14 31
f 6 29 16
f 16 29 19
f 16 24 6
f 16 19 10
f 10 24 16
f 30 35 22
f 22 14 30
f 30 14 23
f 30 23 15
f 1 13 22
f 22 35 1
f 21 13 1
f 1 2 21
f 8 2 1
f 5 8 1
f 1 15 5
f 1 30 15
f 35 30 1

