# https://github.com/mikedh/trimesh
v 0.04119194 -0.03334804 0.21013837
v 0.04443338 -0.03297431 0.20776707
v 0.00537777 -0.03479995 0.18294704
v 0.03826730 -0.04866460 0.16646608
v 0.02260773 -0.04941521 0.20694165
v 0.04462739 -0.03614017 0.17098044
v 0.00534259 -0.03465111 0.21298775
v 0.03310193 -0.04227951 0.20890404
v 0.00524266 -0.05358962 0.18312546
v 0.04460245 -0.03294739 0.17932728
v 0.04218338 -0.04505873 0.16665524
v 0.04025656 -0.03580686 0.20911921
v 0.00519198 -0.05126569 0.21007370
v 0.03601546 -0.04192988 0.20659334
v 0.02096006 -0.05495713 0.16919040
v 0.01568654 -0.05030656 0.20920937
v 0.00482069 -0.05354418 0.20761398
v 0.02593139 -0.04623751 0.20923660
v 0.04314026 -0.03520357 0.20688759
v 0.02794383 -0.05351678 0.16771944
v 0.00849606 -0.05296130 0.20774002
v 0.01221491 -0.05310988 0.20520112
f 17 7 3
f 1 2 7
f 9 15 17
f 17 3 9
f 9 3 15
f 7 2 10
f 10 3 7
f 10 2 6
f 6 3 10
f 13 7 17
f 17 15 22
f 18 1 7
f 7 13 18
f 6 2 11
f 11 3 6
f 15 3 11
f 11 4 15
f 15 4 20
f 20 4 5
f 20 22 15
f 5 22 20
f 5 4 14
f 14 18 5
f 4 11 14
f 17 22 21
f 21 13 17
f 19 11 2
f 19 14 11
f 1 18 8
f 18 14 8
f 16 18 13
f 13 21 16
f 5 18 16
f 16 22 5
f 16 21 22
f 1 8 12
f 2 1 12
f 12 19 2
f 14 19 12
f 12 8 14

