# https://github.com/mikedh/trimesh
v 0.12665402 -0.00044079 -0.16028304
v 0.13279008 -0.02238999 -0.17226152
v 0.13268311 -0.01049031 -0.24276081
v 0.12543790 -0.00150944 -0.24705904
v 0.12755206 -0.03154540 -0.16002595
v 0.13015525 -0.00513830 -0.21304553
v 0.12974634 -0.00628920 -0.16075557
v 0.13256537 -0.02691574 -0.23572232
v 0.13046058 -0.00704521 -0.24663451
v 0.12861534 -0.02925730 -0.16131270
v 0.13272922 -0.00992769 -0.17582673
v 0.13333537 -0.01305578 -0.17218009
v 0.12982593 -0.03244367 -0.17496929
v 0.13170325 -0.02127346 -0.24891032
v 0.12735513 -0.00339462 -0.24701031
v 0.12912681 -0.00362853 -0.16802587
v 0.13302488 -0.02258317 -0.24239953
v 0.13290758 -0.02564217 -0.17962394
v 0.13084926 -0.02997498 -0.17572996
v 0.13291990 -0.01305385 -0.24617364
v 0.12769609 -0.00207206 -0.16052478
v 0.13274912 -0.02323242 -0.24307198
v 0.13295559 -0.02576007 -0.23547527
v 0.13300476 -0.01919447 -0.24596354
f 14 5 4
f 4 5 1
f 7 1 5
f 2 18 12
f 5 14 8
f 12 3 11
f 11 7 12
f 15 14 4
f 15 9 14
f 10 7 5
f 12 7 10
f 10 2 12
f 5 8 13
f 13 8 18
f 13 10 5
f 7 11 16
f 18 2 19
f 19 13 18
f 2 10 19
f 10 13 19
f 22 8 14
f 14 24 22
f 14 9 20
f 20 24 14
f 20 9 3
f 20 3 12
f 12 24 20
f 18 8 23
f 12 18 23
f 8 22 23
f 1 7 21
f 21 16 1
f 7 16 21
f 1 16 6
f 9 15 6
f 3 9 6
f 4 1 6
f 6 15 4
f 6 11 3
f 6 16 11
f 17 22 24
f 17 23 22
f 17 24 12
f 12 23 17

