# https://github.com/mikedh/trimesh
v 0.03916443 0.03670009 0.21031218
v 0.05259568 0.02480465 0.20763285
v 0.03963803 0.04482439 0.20573733
v 0.04514434 0.04277500 0.16946795
v 0.03932310 0.02553951 0.21058378
v 0.04648617 0.03747379 0.20455470
v 0.04460824 0.03519993 0.20942148
v 0.05216452 0.02460886 0.17636143
v 0.03937160 0.04446494 0.17172845
v 0.04953051 0.03608797 0.17011091
v 0.04324053 0.04156553 0.20478295
v 0.05048653 0.03046162 0.20683345
v 0.04665959 0.02540439 0.21032451
v 0.05006515 0.02675730 0.17363018
v 0.05025908 0.03285644 0.17102644
f 2 5 8
f 1 5 13
f 13 5 2
f 2 8 10
f 14 8 5
f 7 3 1
f 1 13 7
f 7 13 2
f 9 3 4
f 4 14 9
f 9 14 5
f 9 5 1
f 1 3 9
f 6 10 4
f 15 10 8
f 8 14 15
f 4 10 15
f 15 14 4
f 4 3 11
f 11 6 4
f 3 7 11
f 2 10 12
f 10 6 12
f 12 7 2
f 12 11 7
f 6 11 12

