# https://github.com/mikedh/trimesh
v 0.09124629 -0.06817546 -0.05080611
v 0.09208912 -0.08376544 -0.13393447
v 0.03555483 -0.06497701 -0.13013996
v 0.03555483 -0.06497701 -0.05846944
v 0.10002982 -0.06946717 -0.12684055
v 0.08956495 -0.07071360 -0.05039697
v 0.09309717 -0.06312057 -0.08144550
v 0.03625477 -0.08363575 -0.13018566
v 0.09046320 -0.08507537 -0.13469714
v 0.09227422 -0.06506461 -0.05848267
v 0.09565655 -0.06481108 -0.10380122
v 0.05161118 -0.08722803 -0.05860465
v 0.08079648 -0.08039331 -0.05808518
v 0.03657887 -0.08348393 -0.05855661
v 0.05512140 -0.08756816 -0.13009960
v 0.08824831 -0.07243948 -0.05090128
v 0.06829098 -0.08744061 -0.05843842
v 0.05151895 -0.08701229 -0.12251301
v 0.08784225 -0.08638733 -0.13418554
v 0.08325253 -0.08772640 -0.13075184
f 3 5 9
f 3 9 8
f 2 9 5
f 11 5 3
f 3 7 11
f 11 7 5
f 4 7 3
f 4 14 6
f 3 8 4
f 4 8 14
f 5 7 10
f 7 4 10
f 19 8 9
f 19 17 20
f 9 17 19
f 14 8 12
f 13 17 9
f 9 2 13
f 5 10 1
f 1 2 5
f 6 2 1
f 1 4 6
f 1 10 4
f 16 12 17
f 17 13 16
f 6 14 16
f 14 12 16
f 16 2 6
f 16 13 2
f 15 19 20
f 8 19 15
f 20 17 15
f 17 12 15
f 18 12 8
f 8 15 18
f 18 15 12

