# https://github.com/mikedh/trimesh
v 0.11474056 -0.00461905 -0.05846596
v 0.11128174 -0.02255843 -0.05800656
v 0.11084214 -0.02247620 -0.08130424
v 0.06573189 -0.00462289 -0.08110224
v 0.06573189 -0.00462289 -0.05846944
v 0.11427697 -0.00454961 -0.08114238
v 0.06573189 -0.04611634 -0.05846944
v 0.10060022 -0.05070800 -0.05917954
v 0.06573189 -0.04611634 -0.08110224
v 0.10869310 -0.03032377 -0.08125266
v 0.10904449 -0.03046474 -0.05833642
v 0.10052063 -0.05025101 -0.08067697
f 6 3 4
f 1 3 6
f 4 5 6
f 6 5 1
f 4 3 9
f 8 9 12
f 12 11 8
f 8 11 7
f 7 9 8
f 10 9 3
f 10 12 9
f 11 12 10
f 5 7 2
f 2 7 11
f 1 5 2
f 2 3 1
f 2 10 3
f 11 10 2
f 4 9 7
f 7 5 4

