# https://github.com/mikedh/trimesh
v 0.03610566 0.04511036 0.17285656
v 0.06403053 0.04316573 0.15120304
v 0.01553510 0.08112031 0.14267365
v 0.00426998 0.07860433 0.10395041
v 0.00537777 0.04441484 0.10373225
v 0.06814515 0.04809776 0.10345913
v 0.04430109 0.06997984 0.14231512
v 0.00537777 0.04441484 0.16408638
v 0.04411211 0.04556693 0.16817522
v 0.02267105 0.05937026 0.16804958
v 0.06621127 0.05665879 0.13578983
v 0.01875215 0.07370493 0.10400475
v 0.04514434 0.04277500 0.16946795
v 0.00527874 0.08240383 0.14279186
v 0.02982560 0.06631952 0.15649323
v 0.03677179 0.05210748 0.16780135
v 0.00546702 0.05690866 0.17296809
v 0.06841140 0.05405334 0.13078379
v 0.05189515 0.06642893 0.13861921
v 0.05481264 0.06288674 0.14210688
v 0.01507242 0.08195802 0.13664892
v 0.06169425 0.04879608 0.14901402
v 0.01235007 0.07398295 0.15325436
v 0.03713237 0.07361540 0.14262054
v 0.03691360 0.06268829 0.15660813
v 0.00423642 0.08340194 0.13260172
v 0.06777376 0.05426187 0.13650839
v 0.06263118 0.05912076 0.13484827
v 0.06297730 0.05152740 0.10404401
v 0.05123905 0.06305584 0.14527049
v 0.05136212 0.06646375 0.14006727
v 0.00758982 0.07758791 0.10406394
v 0.03726392 0.07392177 0.13876891
v 0.06166974 0.05944694 0.13849345
v 0.02273768 0.06265710 0.16424804
v 0.00523488 0.06131641 0.16977124
v 0.06684938 0.05542675 0.13170819
v 0.00528003 0.07450422 0.15372093
f 13 8 5
f 6 5 4
f 4 12 6
f 4 8 26
f 5 8 4
f 6 12 29
f 12 33 29
f 38 23 14
f 38 14 26
f 14 23 3
f 2 6 18
f 2 5 6
f 2 13 5
f 18 6 37
f 19 29 33
f 21 33 12
f 21 4 26
f 26 14 21
f 14 3 21
f 24 33 21
f 21 3 24
f 35 3 23
f 1 10 17
f 17 8 1
f 8 13 1
f 23 38 36
f 36 35 23
f 10 35 36
f 17 10 36
f 36 38 26
f 26 8 36
f 36 8 17
f 13 2 22
f 18 37 11
f 12 4 32
f 32 21 12
f 4 21 32
f 24 25 7
f 20 31 7
f 7 31 19
f 7 33 24
f 7 19 33
f 16 25 10
f 10 1 16
f 10 25 15
f 15 35 10
f 15 25 24
f 24 3 15
f 3 35 15
f 28 11 37
f 19 11 28
f 29 19 28
f 6 29 28
f 28 37 6
f 19 31 34
f 34 11 19
f 34 31 20
f 20 22 34
f 27 22 2
f 27 2 18
f 18 11 27
f 27 34 22
f 11 34 27
f 25 16 30
f 20 7 30
f 30 7 25
f 30 22 20
f 9 1 13
f 9 16 1
f 9 30 16
f 13 22 9
f 22 30 9

