# https://github.com/mikedh/trimesh
v -0.10090771 0.05033913 -0.04658963
v -0.09646981 0.01046564 -0.04715305
v -0.09878112 0.05330096 -0.09208552
v -0.11385574 0.02506102 -0.10782634
v -0.11439147 0.01247813 -0.04872033
v -0.09646981 0.01046564 -0.09241864
v -0.10063809 0.05014612 -0.09297249
v -0.09902472 0.05346553 -0.04768594
v -0.10902449 0.03213546 -0.04667422
v -0.11522486 0.01044314 -0.09620663
v -0.11282262 0.02723838 -0.10641715
v -0.11125474 0.02545714 -0.04710445
v -0.11488232 0.02166686 -0.10760997
v -0.11401101 0.01025921 -0.05456581
f 6 14 10
f 2 14 6
f 3 8 2
f 2 6 3
f 10 14 5
f 5 14 2
f 4 3 6
f 8 3 1
f 1 3 7
f 1 4 9
f 2 8 1
f 1 9 2
f 9 4 12
f 2 9 12
f 12 5 2
f 11 1 7
f 4 1 11
f 7 3 11
f 3 4 11
f 5 12 13
f 13 12 4
f 10 5 13
f 13 6 10
f 13 4 6

