# https://github.com/mikedh/trimesh
v 0.12345937 0.00102388 0.00204103
v 0.12657321 -0.00439018 0.00181410
v 0.11474429 0.00886116 -0.03932263
v 0.07242625 0.04138248 -0.03953141
v 0.06950402 -0.00462289 0.00188468
v 0.10764839 0.01818746 -0.03967950
v 0.07230849 0.04146178 0.00170477
v 0.11779718 -0.00458791 -0.03944104
v 0.11078924 0.01506806 -0.03947358
v 0.06950402 -0.00462289 -0.03960878
v 0.08571846 0.03284882 -0.03962915
v 0.09688391 0.02490754 0.00158742
v 0.12254336 -0.00482116 -0.01982924
v 0.11856827 0.00663690 0.00168923
v 0.12178503 -0.00212569 -0.01989943
v 0.11795849 0.00749485 -0.01283249
v 0.11479376 0.01029647 0.00170300
v 0.11131974 0.01395097 -0.00968094
f 5 2 1
f 1 7 5
f 7 6 11
f 11 4 7
f 12 6 7
f 7 1 12
f 3 8 6
f 3 1 2
f 5 7 10
f 7 4 10
f 4 11 10
f 6 8 10
f 10 11 6
f 17 12 1
f 8 3 13
f 13 2 5
f 5 10 13
f 13 10 8
f 9 3 6
f 1 3 9
f 6 12 18
f 12 17 18
f 15 3 2
f 2 13 15
f 15 13 3
f 1 9 16
f 16 9 6
f 14 17 1
f 1 16 14
f 14 18 17
f 6 18 14
f 14 16 6

