# https://github.com/mikedh/trimesh
v 0.07285424 -0.06084731 0.13331812
v 0.07620497 -0.08384542 0.10293718
v 0.07327616 -0.06120487 0.09996012
v 0.05818763 -0.06120487 0.09996012
v 0.03681322 -0.07789830 0.13761998
v 0.05659424 -0.08490834 0.09907692
v 0.07034832 -0.06945635 0.12952930
v 0.03555483 -0.06120487 0.13390932
v 0.03379325 -0.08258006 0.11428733
v 0.03555483 -0.06120487 0.11504865
f 9 2 5
f 2 1 7
f 7 5 2
f 1 5 7
f 6 2 9
f 9 4 6
f 3 1 2
f 3 4 1
f 2 6 3
f 3 6 4
f 10 4 9
f 1 4 10
f 9 5 8
f 8 10 9
f 8 5 1
f 1 10 8

