# https://github.com/mikedh/trimesh
v 0.12711365 -0.00563706 0.00231707
v 0.12632744 -0.03373354 0.00293149
v 0.12163390 -0.00494674 -0.02335550
v 0.10345322 -0.00462289 -0.02452025
v 0.09968108 -0.04611634 0.00188468
v 0.10345322 -0.00462289 0.00188468
v 0.12548712 -0.02248281 -0.00780246
v 0.09714909 -0.07094328 -0.02357058
v 0.10734504 -0.07373722 0.00312864
v 0.12527522 -0.00603659 -0.00846041
v 0.10772289 -0.04987124 -0.02715790
v 0.10108819 -0.08048128 0.00266176
v 0.11738085 -0.02944599 -0.02256514
v 0.11370600 -0.05871237 -0.00387524
v 0.09852429 -0.08219597 0.00226477
v 0.09751771 -0.07795237 -0.01213430
v 0.12145664 -0.01158887 -0.02309877
v 0.12515467 -0.02979214 -0.00393423
v 0.10636196 -0.06584870 -0.01089349
v 0.12266491 -0.04492329 0.00302132
v 0.10251924 -0.07673062 -0.00366797
v 0.09757007 -0.08092526 -0.00475935
v 0.10658716 -0.07316809 -0.00002101
v 0.09880729 -0.06933160 -0.02231173
v 0.12537896 -0.03344706 -0.00055943
v 0.11751573 -0.04770530 -0.00745890
v 0.09900785 -0.07680072 -0.01094571
v 0.09945274 -0.07982738 -0.00389072
v 0.12120269 -0.03328295 -0.01090638
v 0.11744807 -0.05130987 -0.00358938
v 0.11359581 -0.04046256 -0.02253302
v 0.12165883 -0.04448185 -0.00029142
v 0.11742094 -0.04412392 -0.01088160
f 6 4 8
f 3 6 1
f 4 6 3
f 5 6 8
f 15 6 5
f 10 3 1
f 22 5 8
f 15 5 22
f 11 24 8
f 11 3 17
f 8 4 11
f 4 3 11
f 1 6 2
f 6 9 2
f 2 9 20
f 12 6 15
f 12 9 6
f 9 12 21
f 20 9 14
f 17 3 7
f 3 10 7
f 7 10 1
f 1 2 7
f 16 22 8
f 20 14 30
f 24 11 19
f 11 14 19
f 18 7 2
f 8 21 27
f 27 16 8
f 21 16 27
f 22 16 28
f 28 16 21
f 28 21 12
f 15 22 28
f 28 12 15
f 23 14 9
f 23 19 14
f 9 21 23
f 24 19 23
f 8 24 23
f 23 21 8
f 20 30 32
f 17 7 13
f 7 18 13
f 13 11 17
f 29 32 33
f 29 13 18
f 26 32 30
f 33 32 26
f 11 33 26
f 26 14 11
f 26 30 14
f 31 33 11
f 11 13 31
f 31 29 33
f 13 29 31
f 25 29 18
f 32 29 25
f 25 18 2
f 25 2 20
f 20 32 25

