# https://github.com/mikedh/trimesh
v 0.04435906 -0.03256143 0.17730589
v 0.06946493 -0.03478067 0.14895375
v 0.06765679 -0.03390980 0.15097469
v 0.00537777 -0.03479995 0.14899785
v 0.00532330 -0.07515378 0.14818339
v 0.04901198 -0.06308683 0.14639389
v 0.00536696 -0.05357422 0.18295158
v 0.05664258 -0.05578496 0.14671042
v 0.02374812 -0.07382590 0.14715537
v 0.00537777 -0.03479995 0.18294704
v 0.02634241 -0.04761403 0.18302111
v 0.06789371 -0.04131743 0.14700643
v 0.00517007 -0.06842154 0.15696801
v 0.01943860 -0.05057225 0.18305873
v 0.03470078 -0.07079669 0.14695843
f 13 4 5
f 12 4 2
f 6 4 12
f 13 5 7
f 2 4 3
f 9 4 6
f 9 5 4
f 14 7 9
f 9 7 5
f 8 11 6
f 6 12 8
f 10 4 13
f 13 7 10
f 14 11 10
f 10 7 14
f 6 11 15
f 15 9 6
f 15 11 14
f 14 9 15
f 1 3 4
f 4 10 1
f 1 10 11
f 2 3 1
f 1 12 2
f 11 8 1
f 1 8 12

