# https://github.com/mikedh/trimesh
v -0.06252062 -0.01971142 -0.14522849
v -0.06617117 -0.04465340 -0.14500210
v -0.06247090 -0.03823308 -0.26683351
v -0.07745774 -0.02339628 -0.26739163
v -0.08598374 -0.03154155 -0.14481181
v -0.06289607 -0.02395843 -0.26730288
v -0.07760915 -0.01971142 -0.16786129
v -0.07608175 -0.03651475 -0.26521193
v -0.06252062 -0.01971142 -0.16786129
v -0.07702606 -0.03771468 -0.14527815
f 2 1 5
f 3 1 2
f 10 2 5
f 5 4 8
f 8 4 3
f 8 10 5
f 3 2 8
f 2 10 8
f 5 1 7
f 7 4 5
f 3 4 6
f 9 1 3
f 3 6 9
f 9 7 1
f 4 7 9
f 9 6 4

