# https://github.com/mikedh/trimesh
v 0.10271333 -0.05138499 -0.10197179
v 0.11362252 -0.04564132 -0.13056861
v 0.10746850 -0.04438925 -0.10842434
v 0.09213682 -0.04611634 -0.13013996
v 0.09160453 -0.08302217 -0.13036575
v 0.11165814 -0.04462589 -0.12369946
v 0.10593808 -0.04555140 -0.10397213
v 0.10355738 -0.06671267 -0.13159703
v 0.09014647 -0.07485399 -0.10807544
v 0.11105486 -0.05192501 -0.13151714
v 0.09345416 -0.08148805 -0.13125450
v 0.09275768 -0.06915218 -0.10360810
v 0.08990344 -0.08182830 -0.12351378
v 0.09670965 -0.07791864 -0.13144548
v 0.09526332 -0.06584497 -0.10489352
f 1 4 12
f 13 4 5
f 10 4 2
f 8 4 10
f 1 8 10
f 15 8 1
f 1 12 15
f 2 4 6
f 6 3 2
f 4 3 6
f 7 4 1
f 7 3 4
f 2 3 7
f 7 10 2
f 1 10 7
f 11 5 4
f 13 5 11
f 14 4 8
f 14 11 4
f 8 15 14
f 14 15 12
f 13 11 9
f 11 14 9
f 9 14 12
f 9 4 13
f 9 12 4

