# https://github.com/mikedh/trimesh
v 0.05637940 0.05642207 0.11901395
v 0.05802462 0.05545033 0.11883582
v 0.04881782 0.05648504 0.04687304
v 0.03414308 0.06417019 0.04726902
v 0.03532247 0.06657452 0.10376856
v 0.05347054 0.05401105 0.05854777
v 0.03843287 0.06210936 0.04700358
v 0.05357570 0.05798875 0.11892061
v 0.05052632 0.05550563 0.04716739
v 0.03927272 0.06324482 0.08435466
v 0.05718387 0.05402107 0.09255412
v 0.04133771 0.06359839 0.10399935
v 0.04482582 0.05877542 0.04731429
f 4 6 10
f 10 5 4
f 2 5 11
f 11 10 6
f 5 10 11
f 2 11 9
f 9 11 6
f 9 6 4
f 8 5 2
f 3 9 4
f 5 8 12
f 13 8 1
f 1 3 13
f 1 8 2
f 2 9 1
f 9 3 1
f 7 8 13
f 7 12 8
f 7 3 4
f 13 3 7
f 4 5 7
f 5 12 7

