# https://github.com/mikedh/trimesh
v 0.09422279 0.02718529 0.06233083
v 0.09590895 -0.00085075 0.06223880
v 0.09590895 -0.00085075 0.00188468
v 0.07230849 0.04146178 0.00170477
v 0.06950402 -0.00085075 0.06223880
v 0.09415878 0.02662370 0.00176713
v 0.08588917 0.03331964 0.06237370
v 0.06950402 -0.00085075 0.00188468
v 0.07302161 0.04196250 0.06194153
v 0.08972970 0.02982185 0.00184670
v 0.08275403 0.03418735 0.00144367
f 5 2 7
f 7 9 5
f 5 9 4
f 2 3 1
f 1 7 2
f 11 3 8
f 8 4 11
f 5 4 8
f 7 1 6
f 6 3 11
f 6 1 3
f 7 6 10
f 9 7 10
f 10 4 9
f 11 4 10
f 10 6 11
f 8 3 2
f 8 2 5

