# https://github.com/mikedh/trimesh
v 0.09431925 0.02731794 -0.03973815
v 0.09590895 -0.00462289 -0.03960878
v 0.09491629 0.02754661 -0.06604359
v 0.07233165 0.04159871 -0.06601288
v 0.06950402 -0.00462289 -0.03960878
v 0.07242625 0.04138248 -0.03953141
v 0.06950402 -0.00462289 -0.06601371
v 0.09037589 0.02990541 -0.03976648
v 0.08329037 0.03485636 -0.06622465
v 0.06950402 0.02178204 -0.03960878
v 0.08309716 0.03455635 -0.03961769
v 0.09590895 -0.00462289 -0.06601371
v 0.09036635 0.03027365 -0.06617065
f 5 2 6
f 5 6 10
f 10 6 4
f 10 7 5
f 4 7 10
f 9 12 7
f 9 7 4
f 4 6 9
f 11 8 6
f 1 8 11
f 11 6 2
f 2 1 11
f 2 12 3
f 3 1 2
f 3 8 1
f 6 8 3
f 3 9 6
f 12 9 13
f 13 3 12
f 9 3 13
f 5 7 12
f 12 2 5

