# https://github.com/mikedh/trimesh
v 0.01669417 -0.04611634 -0.24707607
v 0.01669417 -0.06874914 -0.24707607
v 0.01692931 -0.07525625 -0.26646803
v 0.00127732 -0.05122096 -0.26553861
v 0.00160564 -0.06874914 -0.24707607
v 0.01718989 -0.03423525 -0.26115905
v 0.00160564 -0.04611634 -0.24707607
v 0.01466382 -0.08487056 -0.25844877
v 0.01641319 -0.05500471 -0.26575772
v 0.00023248 -0.08164176 -0.25891048
v 0.00207248 -0.03410164 -0.26219994
v 0.00138394 -0.03513157 -0.26233724
v 0.00224209 -0.07450868 -0.26522732
f 7 1 6
f 10 8 5
f 5 7 10
f 13 8 10
f 13 3 8
f 10 4 13
f 13 4 3
f 2 5 8
f 8 3 2
f 6 1 2
f 2 3 6
f 6 3 9
f 3 4 9
f 11 7 6
f 6 9 11
f 11 9 4
f 7 11 12
f 12 11 4
f 10 7 12
f 12 4 10
f 7 5 2
f 1 7 2

