# https://github.com/mikedh/trimesh
v 0.00320708 0.07594595 -0.13001073
v 0.00160564 0.05195910 -0.13013996
v 0.00160564 0.05195910 -0.19803835
v -0.02865930 0.08916354 -0.19810644
v -0.02892867 0.08403978 -0.13018410
v 0.00075420 0.08285097 -0.19844028
v -0.02857142 0.05195910 -0.13013996
v -0.02857142 0.05195910 -0.19803835
v -0.01032669 0.07993950 -0.13021885
v -0.01775345 0.08716042 -0.19835347
v -0.02915031 0.08598658 -0.16817183
v -0.01821265 0.08183112 -0.13028275
f 3 8 6
f 1 2 3
f 3 6 1
f 7 2 1
f 1 5 7
f 11 8 7
f 7 5 11
f 11 5 4
f 4 8 11
f 1 6 9
f 9 5 1
f 10 4 5
f 6 8 10
f 8 4 10
f 5 9 12
f 12 10 5
f 12 9 6
f 6 10 12
f 8 3 7
f 7 3 2

