# https://github.com/mikedh/trimesh
v 0.06744767 -0.07038431 0.13081689
v 0.07602246 -0.07655864 0.11810803
v 0.05662781 -0.08338550 0.07688116
v 0.02322673 -0.07809290 0.07698988
v 0.03491985 -0.08386575 0.12542316
v 0.07155107 -0.07067992 0.12774996
v 0.04962567 -0.07913085 0.13124431
v 0.03681322 -0.07789830 0.13761998
v 0.06129803 -0.08413604 0.11403551
v 0.03243929 -0.07970682 0.07753618
v 0.06670559 -0.07599643 0.12631459
v 0.05874687 -0.08371463 0.07748729
v 0.02293764 -0.07894797 0.09203829
v 0.05987779 -0.07633249 0.13027517
v 0.03516827 -0.08096410 0.13268899
v 0.06657391 -0.07268783 0.12967073
v 0.07079588 -0.07295482 0.12652499
v 0.07238595 -0.08119900 0.11396070
v 0.05362238 -0.08322418 0.12100144
v 0.07083105 -0.07605899 0.12317417
v 0.06397725 -0.07920773 0.12373991
v 0.06103018 -0.08317709 0.11718506
v 0.04275376 -0.08308236 0.12513682
v 0.07162951 -0.08001362 0.11674651
f 5 12 9
f 18 12 2
f 9 12 18
f 4 5 13
f 13 8 4
f 8 1 4
f 2 12 6
f 6 4 1
f 14 1 8
f 19 5 9
f 24 18 2
f 21 18 24
f 5 4 10
f 3 6 12
f 4 6 3
f 3 10 4
f 12 5 3
f 5 10 3
f 7 14 8
f 21 14 7
f 7 19 21
f 16 6 1
f 1 14 16
f 11 14 21
f 11 16 14
f 22 18 21
f 21 19 22
f 9 18 22
f 22 19 9
f 19 7 15
f 15 7 8
f 15 8 13
f 13 5 15
f 6 16 17
f 16 11 17
f 2 6 17
f 5 19 23
f 23 15 5
f 19 15 23
f 2 17 20
f 20 17 11
f 20 24 2
f 21 24 20
f 20 11 21

