# https://github.com/mikedh/trimesh
v 0.02319620 0.06839778 0.00195290
v 0.02423843 0.04064271 0.00188468
v 0.02423843 0.04441484 -0.15654489
v 0.00146906 0.07793261 -0.15657553
v 0.00160564 0.04064271 0.00188468
v 0.02256868 0.07039118 -0.15676276
v 0.00097990 0.07633379 0.00196167
v 0.02423843 0.04064271 -0.13013996
v 0.00160564 0.04441484 -0.15654489
v 0.00746710 0.07441793 0.00187711
v 0.00160564 0.04064271 -0.13013996
v 0.01180309 0.07451762 -0.15672518
f 7 11 5
f 5 1 7
f 2 1 5
f 7 4 9
f 9 11 7
f 10 4 7
f 7 1 10
f 3 9 6
f 3 1 2
f 6 1 3
f 12 1 6
f 12 10 1
f 4 10 12
f 6 9 12
f 12 9 4
f 8 3 2
f 8 5 11
f 2 5 8
f 11 9 8
f 9 3 8

