# https://github.com/mikedh/trimesh
v -0.09368302 0.08349369 0.08313555
v -0.08892554 0.05195910 0.08109946
v -0.09710764 0.08621847 0.03985394
v -0.10877977 0.07876011 0.03955297
v -0.11921896 0.05029631 0.07628969
v -0.09269768 0.05195910 0.03960600
v -0.09185259 0.08727702 0.05886547
v -0.11742871 0.05120789 0.08053162
v -0.12284596 0.05194592 0.03960571
v -0.08892554 0.05195910 0.05846666
v -0.10842517 0.07250803 0.07253713
v -0.11856713 0.06132258 0.03955415
v -0.10675819 0.07158082 0.07947968
v -0.11438276 0.06064388 0.07576268
v -0.11810431 0.06097368 0.05800458
v -0.11788630 0.05346230 0.07591144
v -0.11482806 0.05745061 0.07939479
v -0.11815912 0.05712046 0.06860655
f 6 5 9
f 7 6 3
f 10 7 2
f 10 6 7
f 2 5 10
f 5 6 10
f 2 7 1
f 7 3 1
f 11 15 18
f 9 5 18
f 18 15 9
f 9 15 12
f 12 6 9
f 13 1 11
f 11 1 4
f 4 1 3
f 4 15 11
f 4 12 15
f 4 3 6
f 6 12 4
f 16 18 5
f 11 18 14
f 14 13 11
f 18 16 14
f 8 16 5
f 1 13 8
f 8 5 2
f 2 1 8
f 17 14 16
f 16 8 17
f 13 14 17
f 17 8 13

