# https://github.com/mikedh/trimesh
v -0.09269768 0.01046564 -0.02829238
v -0.09202677 -0.02615099 -0.02834045
v -0.09269768 0.01046564 -0.06224158
v -0.11333638 0.01015493 -0.06215557
v -0.11961663 0.00983317 -0.02745917
v -0.09257374 -0.02703374 -0.06224650
v -0.09826891 -0.02385000 -0.06240371
v -0.11201352 -0.01062568 -0.06222899
v -0.11504950 -0.00027859 -0.05823839
v -0.11193855 -0.01220387 -0.02847626
v -0.11882735 0.00028974 -0.02766250
v -0.10468260 -0.01939897 -0.05123012
v -0.11477719 -0.00359672 -0.05430965
v -0.11103920 -0.01290517 -0.05087154
v -0.10808188 -0.01568284 -0.02847660
v -0.09743970 -0.02279480 -0.02848349
f 5 2 1
f 5 1 4
f 2 7 6
f 11 2 5
f 2 11 15
f 15 11 10
f 7 4 3
f 3 6 7
f 3 4 1
f 3 1 2
f 2 6 3
f 8 4 7
f 2 15 16
f 12 15 10
f 12 8 7
f 12 16 15
f 12 7 2
f 2 16 12
f 10 11 14
f 11 8 14
f 14 12 10
f 8 12 14
f 9 11 5
f 5 4 9
f 4 8 9
f 13 8 11
f 11 9 13
f 13 9 8

