# https://github.com/mikedh/trimesh
v 0.11058785 0.01400628 -0.08111250
v 0.11084214 -0.02247620 -0.08130424
v 0.11441029 0.00265271 -0.08129803
v 0.11819038 -0.01585085 -0.11514911
v 0.10937656 -0.04172441 -0.11163555
v 0.11433237 -0.00433595 -0.08146180
v 0.11458409 0.00897351 -0.10412674
v 0.11060054 -0.02338174 -0.08112266
v 0.11150235 0.01239129 -0.08118404
v 0.11131284 0.01444340 -0.10371012
v 0.10992930 -0.02697513 -0.08498841
v 0.11462921 -0.02983832 -0.11605932
v 0.11254205 0.01265355 -0.10379135
v 0.11404772 0.00556912 -0.08510280
v 0.11086347 -0.04095482 -0.11605218
v 0.11022695 -0.04199600 -0.11527608
f 5 1 10
f 11 1 5
f 11 8 1
f 11 15 8
f 1 8 3
f 4 7 3
f 12 10 4
f 12 15 10
f 4 8 12
f 8 15 12
f 13 10 1
f 4 10 13
f 13 7 4
f 16 11 5
f 15 11 16
f 5 10 16
f 10 15 16
f 4 3 6
f 6 3 8
f 1 3 9
f 9 13 1
f 7 13 9
f 2 8 4
f 4 6 2
f 2 6 8
f 14 3 7
f 7 9 14
f 14 9 3

