# https://github.com/mikedh/trimesh
v 0.07077991 0.04243999 0.00193226
v 0.06736745 0.04457601 0.00182859
v 0.02423843 0.04064271 -0.04338091
v 0.02338915 0.06891482 -0.14165030
v 0.06331399 0.04787770 -0.13035947
v 0.03525803 0.06269220 0.00193321
v 0.07627656 0.03946647 -0.13014680
v 0.02423305 0.06703465 -0.04338069
v 0.03705833 0.06275860 -0.14129141
v 0.04119812 0.05963904 0.00202297
v 0.03932696 0.04064271 0.00188468
v 0.02423843 0.04064271 -0.13013996
v 0.02291392 0.06777282 -0.09275483
v 0.03419255 0.06409816 -0.14160581
v 0.04836915 0.05557006 0.00168847
v 0.07617909 0.03923150 -0.06602695
v 0.02654120 0.06752396 -0.14179190
f 7 12 9
f 4 12 13
f 17 12 4
f 8 4 13
f 7 9 5
f 5 9 10
f 14 12 17
f 14 9 12
f 10 11 1
f 7 5 1
f 16 12 7
f 7 1 16
f 16 1 11
f 6 11 10
f 4 8 6
f 17 4 6
f 6 14 17
f 10 9 6
f 9 14 6
f 10 1 2
f 2 1 5
f 12 16 3
f 3 16 11
f 13 12 3
f 3 8 13
f 3 6 8
f 11 6 3
f 15 5 10
f 10 2 15
f 15 2 5

