# https://github.com/mikedh/trimesh
v -0.08296059 0.08013027 -0.10439241
v -0.08475157 0.07799644 -0.10385550
v -0.07760915 0.07459190 -0.16031702
v -0.09846571 0.08685975 -0.16459421
v -0.10105839 0.08324700 -0.15783641
v -0.07769758 0.09071243 -0.16030099
v -0.09978917 0.07875370 -0.14312697
v -0.09296867 0.08523657 -0.14288783
v -0.10568059 0.07337697 -0.14971315
v -0.07702857 0.08974781 -0.13419172
v -0.09260745 0.08942223 -0.16411517
v -0.09727023 0.08534966 -0.15385214
v -0.10012843 0.08572805 -0.16412143
v -0.10423519 0.07599255 -0.15013891
v -0.09000404 0.07277264 -0.10831879
v -0.07744581 0.08912934 -0.13021035
v -0.09144066 0.08890368 -0.15711037
v -0.10071518 0.07254205 -0.13525975
v -0.08614878 0.07634608 -0.10448800
v -0.08313971 0.08652491 -0.12773486
v -0.09380911 0.08892357 -0.16360437
v -0.09158100 0.08932462 -0.16082675
v -0.10479871 0.07286814 -0.14623944
v -0.09942670 0.07504828 -0.13593597
v -0.08553079 0.08537065 -0.12774789
v -0.08010730 0.08898892 -0.13463874
v -0.10335644 0.07553756 -0.14685081
f 3 6 10
f 10 6 11
f 11 3 4
f 6 3 11
f 1 5 7
f 9 5 13
f 13 3 9
f 4 3 13
f 20 26 17
f 3 15 18
f 19 15 3
f 20 17 8
f 16 26 20
f 16 20 1
f 10 17 16
f 16 17 26
f 16 3 10
f 16 1 3
f 21 11 4
f 4 17 21
f 21 17 11
f 10 11 22
f 22 17 10
f 11 17 22
f 9 3 23
f 3 18 23
f 24 18 15
f 15 19 24
f 24 19 7
f 24 23 18
f 3 1 2
f 2 19 3
f 1 7 2
f 7 19 2
f 1 20 25
f 25 8 1
f 20 8 25
f 12 5 1
f 1 8 12
f 12 13 5
f 4 13 12
f 12 17 4
f 12 8 17
f 9 23 14
f 14 5 9
f 14 7 5
f 27 24 7
f 23 24 27
f 7 14 27
f 27 14 23

