# https://github.com/mikedh/trimesh
v -0.02857142 -0.03102781 0.00188468
v -0.02752789 -0.06267389 0.00189229
v -0.02857142 -0.03102781 -0.13013996
v -0.04365995 -0.03102781 -0.13013996
v -0.04365995 -0.03102781 0.00188468
v -0.02832398 -0.06444570 -0.13016856
v -0.04188483 -0.05781116 -0.13035017
v -0.03447036 -0.06154922 -0.13034162
v -0.04225741 -0.05494408 0.00186327
v -0.03044072 -0.06134805 0.00179175
v -0.03781498 -0.05743605 0.00188357
f 2 1 5
f 3 1 2
f 2 6 3
f 9 5 4
f 7 9 4
f 4 3 7
f 2 5 11
f 5 9 11
f 9 7 11
f 8 3 6
f 8 7 3
f 2 11 10
f 10 11 7
f 7 8 10
f 10 6 2
f 10 8 6
f 3 5 1
f 4 5 3

