# https://github.com/mikedh/trimesh
v 0.04973816 0.03086163 0.17739553
v 0.07900141 -0.01543199 0.14687450
v 0.07866259 0.02125524 0.14667777
v 0.05243674 0.06078905 0.14667823
v 0.05535609 -0.04142907 0.15800534
v 0.07079300 0.03914445 0.14680196
v 0.06534661 0.00647728 0.16441230
v 0.04435906 -0.03256143 0.17730589
v 0.07173757 -0.03404118 0.14726231
v 0.07480041 0.03203152 0.14673998
v 0.05972086 0.05356784 0.14675325
v 0.06148240 0.01357708 0.16791986
v 0.04473595 0.06017943 0.15370346
v 0.06171812 -0.00784358 0.16767853
v 0.04679550 0.06316569 0.14889717
v 0.07536476 -0.02673706 0.14723793
v 0.05066815 0.04852030 0.16004470
v 0.05808920 0.04881728 0.15273859
v 0.04514434 0.04277500 0.16946795
v 0.06537728 -0.00053591 0.16441217
v 0.04478341 0.05667345 0.15748578
v 0.05815501 -0.02142776 0.16756141
v 0.05846526 0.05232712 0.14919240
v 0.04713923 0.03327489 0.17526450
v 0.04738166 0.05917693 0.15271855
v 0.04717090 0.05575435 0.15643506
v 0.05553678 -0.01851173 0.17079256
v 0.06159632 -0.02140652 0.16394038
v 0.05131816 0.05938348 0.14913910
f 8 15 5
f 14 1 8
f 9 5 15
f 8 5 9
f 8 1 24
f 24 19 8
f 1 19 24
f 21 19 1
f 8 19 21
f 3 10 1
f 27 14 8
f 8 22 27
f 27 22 14
f 2 14 28
f 14 22 28
f 13 15 8
f 8 21 13
f 13 21 15
f 1 10 6
f 10 11 6
f 15 21 25
f 26 21 1
f 26 25 21
f 2 3 7
f 16 9 2
f 2 28 16
f 8 9 16
f 16 22 8
f 16 28 22
f 1 6 18
f 18 6 11
f 15 25 4
f 4 9 15
f 2 9 4
f 4 3 2
f 4 11 10
f 10 3 4
f 12 3 1
f 12 7 3
f 1 14 12
f 20 14 2
f 2 7 20
f 20 12 14
f 7 12 20
f 23 18 11
f 11 4 23
f 1 18 23
f 25 26 29
f 29 4 25
f 26 23 29
f 29 23 4
f 17 26 1
f 1 23 17
f 17 23 26

