# https://github.com/mikedh/trimesh
v -0.06264386 0.08813146 0.00184376
v -0.06252062 0.05195910 0.00188468
v -0.06242628 0.08902942 -0.04713198
v -0.09101613 0.06468654 -0.05494550
v -0.11818524 0.05150887 0.00221668
v -0.06252062 0.05195910 -0.04715305
v -0.11153046 0.06495692 0.00319941
v -0.08749172 0.06976081 -0.05455572
v -0.10090771 0.05033913 -0.04658963
v -0.11544342 0.05759871 0.00309066
v -0.10453962 0.07593367 0.00312374
v -0.09222157 0.06295415 -0.05464079
v -0.11612288 0.05052625 -0.00434762
v -0.09124526 0.08611899 0.00239351
v -0.09820130 0.08247972 0.00270483
v -0.09974722 0.07842851 -0.00378877
v -0.07475092 0.08508378 -0.04645734
v -0.09018633 0.08532339 -0.00452744
v -0.09646687 0.08155361 -0.00400864
f 12 9 5
f 5 9 13
f 13 2 5
f 9 2 13
f 1 2 3
f 1 11 2
f 15 11 1
f 6 2 9
f 9 12 6
f 3 2 6
f 6 12 4
f 16 11 15
f 10 12 5
f 5 2 10
f 4 12 7
f 7 11 4
f 12 10 7
f 2 11 7
f 7 10 2
f 14 1 3
f 15 1 14
f 3 17 14
f 8 17 3
f 4 11 8
f 11 16 8
f 3 6 8
f 8 6 4
f 15 17 19
f 19 16 15
f 17 8 19
f 19 8 16
f 18 17 15
f 15 14 18
f 18 14 17

