# https://github.com/mikedh/trimesh
v 0.00694744 0.07548763 0.06207078
v 0.00537777 0.05195910 0.06223880
v 0.00160564 0.05195910 -0.01697599
v -0.01099696 0.07958852 -0.01674217
v -0.01348289 0.05195910 0.06223880
v 0.00271591 0.07566101 -0.01735795
v 0.00697792 0.07462433 0.00189142
v -0.01131266 0.08072361 0.06190904
v -0.01348289 0.05195910 -0.01697599
v 0.00537777 0.05195910 0.00188468
f 5 8 9
f 1 8 5
f 5 2 1
f 1 2 7
f 4 9 8
f 8 1 6
f 6 4 8
f 6 1 7
f 7 3 6
f 6 3 9
f 9 4 6
f 7 2 10
f 10 3 7
f 5 9 10
f 10 2 5
f 9 3 10

