# https://github.com/mikedh/trimesh
v -0.04383195 0.07564585 0.13991417
v -0.02479929 0.06704763 0.13013718
v -0.02451784 0.08737311 0.12943166
v -0.03994723 0.08553807 0.06227556
v -0.03988782 0.05195910 0.06223880
v -0.03924625 0.08534530 0.12809825
v -0.03988782 0.05195910 0.11127652
v -0.04036139 0.08580365 0.06986573
v -0.02479929 0.05195910 0.06223880
v -0.02479929 0.05195910 0.11127652
v -0.02523529 0.08371532 0.06237534
f 2 3 1
f 1 5 7
f 7 2 1
f 5 4 9
f 1 3 6
f 11 4 3
f 3 9 11
f 11 9 4
f 2 7 10
f 3 2 10
f 10 9 3
f 3 4 8
f 8 6 3
f 1 6 8
f 8 5 1
f 8 4 5
f 5 9 10
f 10 7 5

