# https://github.com/mikedh/trimesh
v 0.10789091 -0.07014258 -0.00158904
v 0.09852429 -0.08219597 0.00226477
v 0.08079648 -0.08039331 -0.05808518
v 0.01057374 -0.07684844 -0.05828202
v 0.00035365 -0.07317838 0.00197723
v 0.05161118 -0.08722803 -0.05860465
v 0.09312563 -0.06320239 -0.06197375
v 0.06829098 -0.08744061 -0.05843842
v 0.02153377 -0.07937539 -0.03590268
v 0.07372866 -0.08726437 0.00161743
v 0.09032523 -0.06748316 -0.06209709
v 0.09687973 -0.06334271 -0.03890903
v 0.02801057 -0.06497701 -0.05846944
v 0.07765802 -0.08333455 -0.05431134
v 0.01021625 -0.07582629 0.00178114
v 0.02151838 -0.07975651 -0.05853563
v 0.02508993 -0.07920753 0.00252817
v 0.08419378 -0.08747346 0.00195172
v 0.09201784 -0.06490115 -0.06223013
v 0.08397885 -0.07679450 -0.05788695
v 0.00015685 -0.07356914 -0.03571442
v 0.09457011 -0.08452315 0.00229792
v 0.01011535 -0.07645408 -0.03589853
v 0.01355305 -0.07768280 -0.05849115
v 0.02511776 -0.07940586 -0.00204495
v 0.06267962 -0.08700672 -0.01345942
v 0.08375503 -0.08694337 -0.00920202
v 0.00232757 -0.07373939 0.00183131
v 0.00223537 -0.07419835 -0.03588978
v 0.05161616 -0.08698241 -0.05113054
v 0.04763321 -0.08352696 0.00164365
v 0.05523635 -0.08697292 -0.03603725
v 0.06631628 -0.08697204 -0.00595857
v 0.04391874 -0.08325345 -0.00589608
f 18 8 27
f 12 5 1
f 6 8 18
f 29 5 21
f 21 4 29
f 1 3 20
f 11 3 8
f 8 6 11
f 11 20 3
f 11 19 1
f 1 20 11
f 2 3 1
f 1 5 2
f 5 17 2
f 1 19 7
f 7 12 1
f 24 4 19
f 19 11 24
f 8 3 14
f 3 2 14
f 22 17 18
f 22 2 17
f 18 27 22
f 22 27 8
f 8 14 22
f 22 14 2
f 5 12 13
f 12 7 13
f 21 5 13
f 13 4 21
f 19 4 13
f 13 7 19
f 18 17 10
f 10 6 18
f 10 26 6
f 6 26 32
f 15 9 6
f 15 17 5
f 5 28 15
f 16 11 6
f 16 24 11
f 6 9 16
f 26 10 33
f 30 32 17
f 6 32 30
f 31 32 26
f 26 33 31
f 31 10 17
f 31 33 10
f 17 15 25
f 25 15 6
f 25 30 17
f 6 30 25
f 23 15 28
f 4 24 23
f 24 16 23
f 23 28 5
f 9 15 23
f 23 16 9
f 5 29 23
f 23 29 4
f 17 32 34
f 34 31 17
f 32 31 34

