# https://github.com/mikedh/trimesh
v 0.00322542 0.07536628 -0.09983801
v 0.00084196 0.07622048 -0.10002178
v -0.01026749 0.07969706 -0.09996287
v -0.00972950 0.08206420 -0.16787013
v 0.00274466 0.07849524 -0.16740018
v 0.00018628 0.07758357 -0.14550347
v -0.00741628 0.07883831 -0.10003299
v 0.00074170 0.07917551 -0.16821103
v -0.00633685 0.07834976 -0.09980286
v 0.00386241 0.07775947 -0.16337677
v -0.00334944 0.07751029 -0.10397966
v -0.00711323 0.08095155 -0.16324766
f 3 4 6
f 10 1 6
f 8 4 3
f 9 1 3
f 3 6 9
f 12 4 10
f 10 6 12
f 12 6 4
f 5 1 10
f 10 4 5
f 4 8 5
f 5 2 1
f 8 2 5
f 11 6 1
f 1 9 11
f 11 9 6
f 3 1 7
f 1 2 7
f 7 8 3
f 7 2 8

