# https://github.com/mikedh/trimesh
v -0.10975045 0.06601907 0.08041753
v -0.10222816 0.08017474 0.07298981
v -0.11298297 0.07265054 0.03975933
v -0.11185728 0.06344509 0.00177040
v -0.11121439 0.06307982 0.08096972
v -0.10218928 0.08299955 0.02104705
v -0.11442031 0.06809017 0.05781663
v -0.10434144 0.08146855 0.05774508
v -0.11039949 0.06639019 0.00232766
v -0.10680440 0.07520219 0.07201049
v -0.11435787 0.06444996 0.06850295
v -0.11557780 0.06146752 0.01031088
v -0.10818656 0.07809150 0.02395050
v -0.10227946 0.08300481 0.05813648
v -0.11084958 0.07533617 0.05053005
v -0.10380755 0.07879335 0.07231663
v -0.11241336 0.06161588 0.07999913
v -0.10904732 0.07020494 0.07525363
v -0.11463571 0.06830027 0.02501619
v -0.11586253 0.06150161 0.06890890
v -0.11153046 0.06495692 0.00319941
v -0.10440860 0.08148547 0.02122837
v -0.11418983 0.06426534 0.01066700
v -0.10731476 0.07871193 0.05784186
v -0.11074710 0.07550249 0.02871678
v -0.11298951 0.06198754 0.00269461
v -0.11094942 0.06455513 0.07944694
v -0.10382154 0.08188404 0.02077287
f 5 4 2
f 20 19 12
f 12 17 20
f 6 2 9
f 9 2 4
f 7 19 20
f 14 2 6
f 8 2 14
f 5 2 1
f 18 27 1
f 17 12 26
f 5 17 26
f 26 4 5
f 11 7 20
f 11 27 18
f 17 27 11
f 20 17 11
f 18 1 10
f 10 11 18
f 7 11 10
f 22 14 6
f 8 14 22
f 23 12 19
f 23 26 12
f 21 9 4
f 4 26 21
f 21 23 9
f 26 23 21
f 16 1 2
f 16 10 1
f 8 22 13
f 25 15 13
f 19 25 13
f 13 23 19
f 13 22 9
f 9 23 13
f 6 9 28
f 28 22 6
f 9 22 28
f 3 25 19
f 3 15 25
f 19 7 3
f 7 15 3
f 8 13 24
f 24 13 15
f 24 2 8
f 24 16 2
f 10 16 24
f 7 10 24
f 24 15 7
f 1 27 17
f 1 17 5

